<svg id="Ñëîé_1" data-name="Ñëîé 1" xmlns="http://www.w3.org/2000/svg" xmlns:xlink="http://www.w3.org/1999/xlink" viewBox="0 0 500 500"><defs><style>.cls-1{fill:url(#linear-gradient);}.cls-2{fill:#d8d8d8;}.cls-106,.cls-3{opacity:0;}.cls-4{opacity:0.01;}.cls-5{opacity:0.02;}.cls-6{opacity:0.03;}.cls-7{opacity:0.04;}.cls-8{opacity:0.05;}.cls-9{opacity:0.06;}.cls-10{opacity:0.07;}.cls-11{opacity:0.08;}.cls-12{opacity:0.09;}.cls-13{opacity:0.1;}.cls-14{opacity:0.11;}.cls-15{opacity:0.12;}.cls-16{opacity:0.13;}.cls-17{opacity:0.14;}.cls-18{opacity:0.15;}.cls-19{opacity:0.16;}.cls-20{opacity:0.17;}.cls-21{opacity:0.18;}.cls-22{opacity:0.19;}.cls-23{opacity:0.2;}.cls-24{opacity:0.21;}.cls-25{opacity:0.22;}.cls-26{opacity:0.23;}.cls-27{opacity:0.24;}.cls-28{opacity:0.25;}.cls-29{opacity:0.26;}.cls-30{opacity:0.27;}.cls-31{opacity:0.28;}.cls-32{opacity:0.29;}.cls-33{opacity:0.3;}.cls-34{opacity:0.31;}.cls-35{opacity:0.32;}.cls-36{opacity:0.33;}.cls-37{opacity:0.34;}.cls-38{opacity:0.35;}.cls-39{opacity:0.36;}.cls-40{opacity:0.37;}.cls-41{opacity:0.38;}.cls-42{opacity:0.39;}.cls-43{opacity:0.4;}.cls-44{opacity:0.41;}.cls-45{opacity:0.42;}.cls-46{opacity:0.43;}.cls-47{opacity:0.44;}.cls-48{opacity:0.45;}.cls-49{opacity:0.46;}.cls-50{opacity:0.47;}.cls-51{opacity:0.48;}.cls-52{opacity:0.49;}.cls-53{opacity:0.5;}.cls-54{opacity:0.5;}.cls-55{opacity:0.51;}.cls-56{opacity:0.52;}.cls-57{opacity:0.53;}.cls-58{opacity:0.54;}.cls-59{opacity:0.55;}.cls-60{opacity:0.56;}.cls-61{opacity:0.57;}.cls-62{opacity:0.58;}.cls-63{opacity:0.59;}.cls-64{opacity:0.6;}.cls-65{opacity:0.61;}.cls-66{opacity:0.62;}.cls-67{opacity:0.63;}.cls-68{opacity:0.64;}.cls-69{opacity:0.65;}.cls-70{opacity:0.66;}.cls-71{opacity:0.67;}.cls-72{opacity:0.68;}.cls-73{opacity:0.69;}.cls-74{opacity:0.7;}.cls-75{opacity:0.71;}.cls-76{opacity:0.72;}.cls-77{opacity:0.73;}.cls-78{opacity:0.74;}.cls-79{opacity:0.75;}.cls-80{opacity:0.76;}.cls-81{opacity:0.77;}.cls-82{opacity:0.78;}.cls-83{opacity:0.79;}.cls-84{opacity:0.8;}.cls-85{opacity:0.81;}.cls-86{opacity:0.82;}.cls-87{opacity:0.83;}.cls-88{opacity:0.84;}.cls-89{opacity:0.85;}.cls-90{opacity:0.86;}.cls-91{opacity:0.87;}.cls-92{opacity:0.88;}.cls-93{opacity:0.89;}.cls-94{opacity:0.9;}.cls-95{opacity:0.91;}.cls-96{opacity:0.92;}.cls-97{opacity:0.93;}.cls-98{opacity:0.94;}.cls-99{opacity:0.95;}.cls-100{opacity:0.96;}.cls-101{opacity:0.97;}.cls-102{opacity:0.98;}.cls-103{opacity:0.99;}.cls-104{fill:url(#Áåçûìÿííûé_ãðàäèåíò_40);}.cls-105{fill:url(#linear-gradient-2);}.cls-106,.cls-107,.cls-108,.cls-109,.cls-110,.cls-111,.cls-112,.cls-113,.cls-114,.cls-115,.cls-116,.cls-117,.cls-118,.cls-119,.cls-120,.cls-121,.cls-122,.cls-123,.cls-124,.cls-125,.cls-126,.cls-127,.cls-128,.cls-129,.cls-130,.cls-131,.cls-132{fill:#fff;}.cls-107{opacity:0.04;}.cls-108{opacity:0.08;}.cls-109{opacity:0.12;}.cls-110{opacity:0.15;}.cls-111{opacity:0.19;}.cls-112{opacity:0.23;}.cls-113{opacity:0.27;}.cls-114{opacity:0.31;}.cls-115{opacity:0.35;}.cls-116{opacity:0.38;}.cls-117{opacity:0.42;}.cls-118{opacity:0.46;}.cls-119{opacity:0.5;}.cls-120{opacity:0.54;}.cls-121{opacity:0.58;}.cls-122{opacity:0.62;}.cls-123{opacity:0.65;}.cls-124{opacity:0.69;}.cls-125{opacity:0.73;}.cls-126{opacity:0.77;}.cls-127{opacity:0.81;}.cls-128{opacity:0.85;}.cls-129{opacity:0.88;}.cls-130{opacity:0.92;}.cls-131{opacity:0.96;}.cls-133{opacity:0.7;}.cls-134{fill:url(#linear-gradient-3);}</style><linearGradient id="linear-gradient" x1="62.01" y1="320.59" x2="438.01" y2="320.59" gradientUnits="userSpaceOnUse"><stop offset="0" stop-color="#5a99ff"/><stop offset="1" stop-color="#5e9bfd"/></linearGradient><linearGradient id="Áåçûìÿííûé_ãðàäèåíò_40" x1="110.37" y1="274.41" x2="389.65" y2="274.41" gradientUnits="userSpaceOnUse"><stop offset="0" stop-color="#f2f2f2"/><stop offset="1" stop-color="#f2f2f2"/></linearGradient><linearGradient id="linear-gradient-2" x1="56.78" y1="366.04" x2="443.24" y2="366.04" gradientUnits="userSpaceOnUse"><stop offset="0" stop-color="#5289fc"/><stop offset="0.09" stop-color="#5a99ff"/><stop offset="0.89" stop-color="#619cfc"/><stop offset="1" stop-color="#5289fc"/></linearGradient><linearGradient id="linear-gradient-3" x1="56.78" y1="395.17" x2="443.24" y2="395.17" xlink:href="#linear-gradient-2"/></defs><rect class="cls-1" x="62.01" y="211.78" width="376" height="217.62" rx="7.98"/><path class="cls-2" d="M422,431.26H78a8.49,8.49,0,0,1-8.49-8.48V230.37A8.5,8.5,0,0,1,78,221.88H422a8.5,8.5,0,0,1,8.49,8.49V422.78A8.49,8.49,0,0,1,422,431.26ZM78,222.88a7.5,7.5,0,0,0-7.49,7.49V422.78A7.49,7.49,0,0,0,78,430.26H422a7.49,7.49,0,0,0,7.49-7.48V230.37a7.5,7.5,0,0,0-7.49-7.49Z"/><rect class="cls-3" x="99.18" y="211.7" width="101.2" height="173.38"/><rect class="cls-4" x="99.48" y="211.7" width="101.2" height="173.38"/><rect class="cls-5" x="99.77" y="211.7" width="101.2" height="173.38"/><rect class="cls-6" x="100.06" y="211.7" width="101.2" height="173.38"/><rect class="cls-7" x="100.36" y="211.7" width="101.2" height="173.38"/><rect class="cls-8" x="100.65" y="211.7" width="101.2" height="173.38"/><rect class="cls-9" x="100.95" y="211.7" width="101.2" height="173.38"/><rect class="cls-10" x="101.24" y="211.7" width="101.2" height="173.38"/><rect class="cls-11" x="101.53" y="211.7" width="101.2" height="173.38"/><rect class="cls-12" x="101.83" y="211.7" width="101.2" height="173.38"/><rect class="cls-13" x="102.12" y="211.7" width="101.2" height="173.38"/><rect class="cls-14" x="102.41" y="211.7" width="101.2" height="173.38"/><rect class="cls-15" x="102.71" y="211.7" width="101.2" height="173.38"/><rect class="cls-16" x="103" y="211.7" width="101.2" height="173.38"/><rect class="cls-17" x="103.3" y="211.7" width="101.2" height="173.38"/><rect class="cls-18" x="103.59" y="211.7" width="101.2" height="173.38"/><rect class="cls-19" x="103.88" y="211.7" width="101.2" height="173.38"/><rect class="cls-20" x="104.18" y="211.7" width="101.2" height="173.38"/><rect class="cls-21" x="104.47" y="211.7" width="101.2" height="173.38"/><rect class="cls-22" x="104.77" y="211.7" width="101.2" height="173.38"/><rect class="cls-23" x="105.06" y="211.7" width="101.2" height="173.38"/><rect class="cls-24" x="105.35" y="211.7" width="101.2" height="173.38"/><rect class="cls-25" x="105.65" y="211.7" width="101.2" height="173.38"/><rect class="cls-26" x="105.94" y="211.7" width="101.2" height="173.38"/><rect class="cls-27" x="106.23" y="211.7" width="101.2" height="173.38"/><rect class="cls-28" x="106.53" y="211.7" width="101.2" height="173.38"/><rect class="cls-29" x="106.82" y="211.7" width="101.2" height="173.38"/><rect class="cls-30" x="107.12" y="211.7" width="101.2" height="173.38"/><rect class="cls-31" x="107.41" y="211.7" width="101.2" height="173.38"/><rect class="cls-32" x="107.7" y="211.7" width="101.2" height="173.38"/><rect class="cls-33" x="108" y="211.7" width="101.2" height="173.38"/><rect class="cls-34" x="108.29" y="211.7" width="101.2" height="173.38"/><rect class="cls-35" x="108.58" y="211.7" width="101.2" height="173.38"/><rect class="cls-36" x="108.88" y="211.7" width="101.2" height="173.38"/><rect class="cls-37" x="109.17" y="211.7" width="101.2" height="173.38"/><rect class="cls-38" x="109.47" y="211.7" width="101.2" height="173.38"/><rect class="cls-39" x="109.76" y="211.7" width="101.2" height="173.38"/><rect class="cls-40" x="110.05" y="211.7" width="101.2" height="173.38"/><rect class="cls-41" x="110.35" y="211.7" width="101.2" height="173.38"/><rect class="cls-42" x="110.64" y="211.7" width="101.2" height="173.38"/><rect class="cls-43" x="110.94" y="211.7" width="101.2" height="173.38"/><rect class="cls-44" x="111.23" y="211.7" width="101.2" height="173.38"/><rect class="cls-45" x="111.52" y="211.7" width="101.2" height="173.38"/><rect class="cls-46" x="111.82" y="211.7" width="101.2" height="173.38"/><rect class="cls-47" x="112.11" y="211.7" width="101.2" height="173.38"/><rect class="cls-48" x="112.4" y="211.7" width="101.2" height="173.38"/><rect class="cls-49" x="112.7" y="211.7" width="101.2" height="173.38"/><rect class="cls-50" x="112.99" y="211.7" width="101.2" height="173.38"/><rect class="cls-51" x="113.29" y="211.7" width="101.2" height="173.38"/><rect class="cls-52" x="113.58" y="211.7" width="101.2" height="173.38"/><rect class="cls-53" x="113.87" y="211.7" width="101.2" height="173.38"/><rect class="cls-54" x="114.17" y="211.7" width="101.2" height="173.38"/><rect class="cls-55" x="114.46" y="211.7" width="101.2" height="173.38"/><rect class="cls-56" x="114.75" y="211.7" width="101.2" height="173.38"/><rect class="cls-57" x="115.05" y="211.7" width="101.2" height="173.38"/><rect class="cls-58" x="115.34" y="211.7" width="101.2" height="173.38"/><rect class="cls-59" x="115.64" y="211.7" width="101.2" height="173.38"/><rect class="cls-60" x="115.93" y="211.7" width="101.2" height="173.38"/><rect class="cls-61" x="116.22" y="211.7" width="101.2" height="173.38"/><rect class="cls-62" x="116.52" y="211.7" width="101.2" height="173.38"/><rect class="cls-63" x="116.81" y="211.7" width="101.2" height="173.38"/><rect class="cls-64" x="117.11" y="211.7" width="101.2" height="173.38"/><rect class="cls-65" x="117.4" y="211.7" width="101.2" height="173.38"/><rect class="cls-66" x="117.69" y="211.7" width="101.2" height="173.38"/><rect class="cls-67" x="117.99" y="211.7" width="101.2" height="173.38"/><rect class="cls-68" x="118.28" y="211.7" width="101.2" height="173.38"/><rect class="cls-69" x="118.57" y="211.7" width="101.2" height="173.38"/><rect class="cls-70" x="118.87" y="211.7" width="101.2" height="173.38"/><rect class="cls-71" x="119.16" y="211.7" width="101.2" height="173.38"/><rect class="cls-72" x="119.46" y="211.7" width="101.2" height="173.38"/><rect class="cls-73" x="119.75" y="211.7" width="101.2" height="173.38"/><rect class="cls-74" x="120.04" y="211.7" width="101.2" height="173.38"/><rect class="cls-75" x="120.34" y="211.7" width="101.2" height="173.38"/><rect class="cls-76" x="120.63" y="211.7" width="101.2" height="173.38"/><rect class="cls-77" x="120.92" y="211.7" width="101.2" height="173.38"/><rect class="cls-78" x="121.22" y="211.7" width="101.2" height="173.38"/><rect class="cls-79" x="121.51" y="211.7" width="101.2" height="173.38"/><rect class="cls-80" x="121.81" y="211.7" width="101.2" height="173.38"/><rect class="cls-81" x="122.1" y="211.7" width="101.2" height="173.38"/><rect class="cls-82" x="122.39" y="211.7" width="101.2" height="173.38"/><rect class="cls-83" x="122.69" y="211.7" width="101.2" height="173.38"/><rect class="cls-84" x="122.98" y="211.7" width="101.2" height="173.38"/><rect class="cls-85" x="123.28" y="211.7" width="101.2" height="173.38"/><rect class="cls-86" x="123.57" y="211.7" width="101.2" height="173.38"/><rect class="cls-87" x="123.86" y="211.7" width="101.2" height="173.38"/><rect class="cls-88" x="124.16" y="211.7" width="101.2" height="173.38"/><rect class="cls-89" x="124.45" y="211.7" width="101.2" height="173.38"/><rect class="cls-90" x="124.74" y="211.7" width="101.2" height="173.38"/><rect class="cls-91" x="125.04" y="211.7" width="101.2" height="173.38"/><rect class="cls-92" x="125.33" y="211.7" width="101.2" height="173.38"/><rect class="cls-93" x="125.63" y="211.7" width="101.2" height="173.38"/><rect class="cls-94" x="125.92" y="211.7" width="101.2" height="173.38"/><rect class="cls-95" x="126.21" y="211.7" width="101.2" height="173.38"/><rect class="cls-96" x="126.51" y="211.7" width="101.2" height="173.38"/><rect class="cls-97" x="126.8" y="211.7" width="101.2" height="173.38"/><rect class="cls-98" x="127.09" y="211.7" width="101.2" height="173.38"/><rect class="cls-99" x="127.39" y="211.7" width="101.2" height="173.38"/><rect class="cls-100" x="127.68" y="211.7" width="101.2" height="173.38"/><rect class="cls-101" x="127.98" y="211.7" width="101.2" height="173.38"/><rect class="cls-102" x="128.27" y="211.7" width="101.2" height="173.38"/><rect class="cls-103" x="128.56" y="211.7" width="101.2" height="173.38"/><rect x="128.86" y="211.7" width="101.2" height="173.38"/><rect class="cls-3" x="299.17" y="212.09" width="101.2" height="173.38"/><rect class="cls-4" x="298.88" y="212.09" width="101.2" height="173.38"/><rect class="cls-5" x="298.58" y="212.09" width="101.2" height="173.38"/><rect class="cls-6" x="298.29" y="212.09" width="101.2" height="173.38"/><rect class="cls-7" x="297.99" y="212.09" width="101.2" height="173.38"/><rect class="cls-8" x="297.7" y="212.09" width="101.2" height="173.38"/><rect class="cls-9" x="297.41" y="212.09" width="101.2" height="173.38"/><rect class="cls-10" x="297.11" y="212.09" width="101.2" height="173.38"/><rect class="cls-11" x="296.82" y="212.09" width="101.2" height="173.38"/><rect class="cls-12" x="296.53" y="212.09" width="101.2" height="173.38"/><rect class="cls-13" x="296.23" y="212.09" width="101.2" height="173.38"/><rect class="cls-14" x="295.94" y="212.09" width="101.2" height="173.38"/><rect class="cls-15" x="295.64" y="212.09" width="101.2" height="173.38"/><rect class="cls-16" x="295.35" y="212.09" width="101.2" height="173.38"/><rect class="cls-17" x="295.06" y="212.09" width="101.2" height="173.38"/><rect class="cls-18" x="294.76" y="212.09" width="101.2" height="173.38"/><rect class="cls-19" x="294.47" y="212.09" width="101.2" height="173.38"/><rect class="cls-20" x="294.17" y="212.09" width="101.2" height="173.38"/><rect class="cls-21" x="293.88" y="212.09" width="101.2" height="173.38"/><rect class="cls-22" x="293.59" y="212.09" width="101.2" height="173.38"/><rect class="cls-23" x="293.29" y="212.09" width="101.2" height="173.38"/><rect class="cls-24" x="293" y="212.09" width="101.2" height="173.38"/><rect class="cls-25" x="292.71" y="212.09" width="101.2" height="173.38"/><rect class="cls-26" x="292.41" y="212.09" width="101.2" height="173.38"/><rect class="cls-27" x="292.12" y="212.09" width="101.2" height="173.38"/><rect class="cls-28" x="291.82" y="212.09" width="101.2" height="173.38"/><rect class="cls-29" x="291.53" y="212.09" width="101.2" height="173.38"/><rect class="cls-30" x="291.24" y="212.09" width="101.2" height="173.38"/><rect class="cls-31" x="290.94" y="212.09" width="101.2" height="173.38"/><rect class="cls-32" x="290.65" y="212.09" width="101.2" height="173.38"/><rect class="cls-33" x="290.36" y="212.09" width="101.2" height="173.38"/><rect class="cls-34" x="290.06" y="212.09" width="101.2" height="173.38"/><rect class="cls-35" x="289.77" y="212.09" width="101.2" height="173.38"/><rect class="cls-36" x="289.47" y="212.09" width="101.2" height="173.38"/><rect class="cls-37" x="289.18" y="212.09" width="101.2" height="173.38"/><rect class="cls-38" x="288.89" y="212.09" width="101.2" height="173.38"/><rect class="cls-39" x="288.59" y="212.09" width="101.2" height="173.38"/><rect class="cls-40" x="288.3" y="212.09" width="101.2" height="173.38"/><rect class="cls-41" x="288" y="212.09" width="101.2" height="173.38"/><rect class="cls-42" x="287.71" y="212.09" width="101.2" height="173.38"/><rect class="cls-43" x="287.42" y="212.09" width="101.2" height="173.38"/><rect class="cls-44" x="287.12" y="212.09" width="101.2" height="173.38"/><rect class="cls-45" x="286.83" y="212.09" width="101.2" height="173.38"/><rect class="cls-46" x="286.54" y="212.09" width="101.2" height="173.38"/><rect class="cls-47" x="286.24" y="212.09" width="101.2" height="173.38"/><rect class="cls-48" x="285.95" y="212.09" width="101.2" height="173.38"/><rect class="cls-49" x="285.65" y="212.09" width="101.2" height="173.38"/><rect class="cls-50" x="285.36" y="212.09" width="101.2" height="173.38"/><rect class="cls-51" x="285.07" y="212.09" width="101.2" height="173.38"/><rect class="cls-52" x="284.77" y="212.09" width="101.2" height="173.38"/><rect class="cls-53" x="284.48" y="212.09" width="101.2" height="173.38"/><rect class="cls-54" x="284.19" y="212.09" width="101.2" height="173.38"/><rect class="cls-55" x="283.89" y="212.09" width="101.2" height="173.38"/><rect class="cls-56" x="283.6" y="212.09" width="101.2" height="173.38"/><rect class="cls-57" x="283.3" y="212.09" width="101.2" height="173.38"/><rect class="cls-58" x="283.01" y="212.09" width="101.2" height="173.38"/><rect class="cls-59" x="282.72" y="212.09" width="101.2" height="173.38"/><rect class="cls-60" x="282.42" y="212.09" width="101.2" height="173.38"/><rect class="cls-61" x="282.13" y="212.09" width="101.2" height="173.38"/><rect class="cls-62" x="281.83" y="212.09" width="101.2" height="173.38"/><rect class="cls-63" x="281.54" y="212.09" width="101.2" height="173.38"/><rect class="cls-64" x="281.25" y="212.09" width="101.2" height="173.38"/><rect class="cls-65" x="280.95" y="212.09" width="101.2" height="173.38"/><rect class="cls-66" x="280.66" y="212.09" width="101.2" height="173.38"/><rect class="cls-67" x="280.37" y="212.09" width="101.2" height="173.38"/><rect class="cls-68" x="280.07" y="212.09" width="101.2" height="173.38"/><rect class="cls-69" x="279.78" y="212.09" width="101.2" height="173.38"/><rect class="cls-70" x="279.48" y="212.09" width="101.2" height="173.38"/><rect class="cls-71" x="279.19" y="212.09" width="101.2" height="173.38"/><rect class="cls-72" x="278.9" y="212.09" width="101.2" height="173.38"/><rect class="cls-73" x="278.6" y="212.09" width="101.2" height="173.38"/><rect class="cls-74" x="278.31" y="212.09" width="101.2" height="173.38"/><rect class="cls-75" x="278.02" y="212.09" width="101.2" height="173.38"/><rect class="cls-76" x="277.72" y="212.09" width="101.2" height="173.38"/><rect class="cls-77" x="277.43" y="212.09" width="101.2" height="173.38"/><rect class="cls-78" x="277.13" y="212.09" width="101.2" height="173.38"/><rect class="cls-79" x="276.84" y="212.09" width="101.2" height="173.38"/><rect class="cls-80" x="276.55" y="212.09" width="101.2" height="173.38"/><rect class="cls-81" x="276.25" y="212.09" width="101.2" height="173.38"/><rect class="cls-82" x="275.96" y="212.09" width="101.2" height="173.38"/><rect class="cls-83" x="275.66" y="212.09" width="101.2" height="173.38"/><rect class="cls-84" x="275.37" y="212.09" width="101.2" height="173.38"/><rect class="cls-85" x="275.08" y="212.09" width="101.2" height="173.38"/><rect class="cls-86" x="274.78" y="212.09" width="101.2" height="173.38"/><rect class="cls-87" x="274.49" y="212.09" width="101.2" height="173.38"/><rect class="cls-88" x="274.2" y="212.09" width="101.2" height="173.38"/><rect class="cls-89" x="273.9" y="212.09" width="101.2" height="173.38"/><rect class="cls-90" x="273.61" y="212.09" width="101.2" height="173.38"/><rect class="cls-91" x="273.31" y="212.09" width="101.2" height="173.38"/><rect class="cls-92" x="273.02" y="212.09" width="101.2" height="173.38"/><rect class="cls-93" x="272.73" y="212.09" width="101.2" height="173.38"/><rect class="cls-94" x="272.43" y="212.09" width="101.2" height="173.38"/><rect class="cls-95" x="272.14" y="212.09" width="101.2" height="173.38"/><rect class="cls-96" x="271.84" y="212.09" width="101.2" height="173.38"/><rect class="cls-97" x="271.55" y="212.09" width="101.2" height="173.38"/><rect class="cls-98" x="271.26" y="212.09" width="101.2" height="173.38"/><rect class="cls-99" x="270.96" y="212.09" width="101.2" height="173.38"/><rect class="cls-100" x="270.67" y="212.09" width="101.2" height="173.38"/><rect class="cls-101" x="270.38" y="212.09" width="101.2" height="173.38"/><rect class="cls-102" x="270.08" y="212.09" width="101.2" height="173.38"/><rect class="cls-103" x="269.79" y="212.09" width="101.2" height="173.38"/><rect x="269.49" y="212.09" width="101.2" height="173.38"/><rect class="cls-104" x="110.37" y="119.43" width="279.28" height="309.97"/><rect class="cls-104" x="110.37" y="119.43" width="279.28" height="309.97"/><path class="cls-3" d="M437.88,383.53H62v-96a5.11,5.11,0,0,1,7-4.76l181,71,181-71a5.11,5.11,0,0,1,7,4.76Z"/><path class="cls-4" d="M437.88,383.92H62v-96a5.14,5.14,0,0,1,7-4.79l180.9,71,180.9-71a5.14,5.14,0,0,1,7,4.79Z"/><path class="cls-5" d="M437.88,384.32H62v-96a5.17,5.17,0,0,1,7.06-4.81l180.86,71,180.86-71a5.17,5.17,0,0,1,7.06,4.81Z"/><path class="cls-6" d="M437.88,384.71H62v-95.9A5.21,5.21,0,0,1,69.15,284l180.81,71,180.81-71a5.21,5.21,0,0,1,7.11,4.85Z"/><path class="cls-7" d="M437.88,385.11H62V289.25a5.23,5.23,0,0,1,7.15-4.87l180.77,71,180.77-71a5.23,5.23,0,0,1,7.15,4.87Z"/><path class="cls-8" d="M437.88,385.51H62V289.7a5.27,5.27,0,0,1,7.2-4.91L250,355.73l180.73-70.94a5.27,5.27,0,0,1,7.19,4.91Z"/><path class="cls-9" d="M437.88,385.9H62V290.14a5.31,5.31,0,0,1,7.24-4.94L250,356.13,430.64,285.2a5.31,5.31,0,0,1,7.24,4.94Z"/><path class="cls-10" d="M437.88,386.3H62V290.58a5.33,5.33,0,0,1,7.28-5L250,356.53,430.6,285.62a5.33,5.33,0,0,1,7.28,5Z"/><path class="cls-11" d="M437.88,386.69H62V291a5.37,5.37,0,0,1,7.33-5L250,356.92,430.55,286a5.37,5.37,0,0,1,7.33,5Z"/><path class="cls-12" d="M437.88,387.09H62V291.47a5.4,5.4,0,0,1,7.37-5L250,357.32l180.55-70.88a5.4,5.4,0,0,1,7.37,5Z"/><path class="cls-13" d="M437.88,387.49H62V291.91a5.43,5.43,0,0,1,7.42-5.05L250,357.71l180.5-70.85a5.43,5.43,0,0,1,7.42,5.05Z"/><path class="cls-14" d="M437.88,387.88H62V292.36a5.47,5.47,0,0,1,7.46-5.09L250,358.11l180.46-70.84a5.46,5.46,0,0,1,7.46,5.09Z"/><path class="cls-15" d="M437.88,388.28H62V292.8a5.5,5.5,0,0,1,7.51-5.12L250,358.51l180.41-70.83a5.5,5.5,0,0,1,7.51,5.12Z"/><path class="cls-16" d="M437.88,388.67H62V293.24a5.53,5.53,0,0,1,7.55-5.14L250,358.9l180.37-70.8a5.53,5.53,0,0,1,7.55,5.14Z"/><path class="cls-17" d="M437.88,389.07H62V293.69a5.56,5.56,0,0,1,7.59-5.18L250,359.3l180.33-70.79a5.56,5.56,0,0,1,7.59,5.18Z"/><path class="cls-18" d="M437.88,389.47H62V294.13a5.6,5.6,0,0,1,7.64-5.21L250,359.69l180.28-70.77a5.6,5.6,0,0,1,7.64,5.21Z"/><path class="cls-19" d="M437.88,389.86H62V294.58a5.62,5.62,0,0,1,7.68-5.24L250,360.09,430.2,289.34a5.62,5.62,0,0,1,7.68,5.24Z"/><path class="cls-20" d="M437.88,390.26H62V295a5.66,5.66,0,0,1,7.73-5.27L250,360.49l180.19-70.74a5.66,5.66,0,0,1,7.73,5.27Z"/><path class="cls-21" d="M437.88,390.65H62V295.46a5.7,5.7,0,0,1,7.77-5.3L250,360.88l180.15-70.72a5.7,5.7,0,0,1,7.77,5.3Z"/><path class="cls-22" d="M437.88,391.05H62V295.91a5.72,5.72,0,0,1,7.82-5.33L250,361.28l180.1-70.7a5.72,5.72,0,0,1,7.82,5.33Z"/><path class="cls-23" d="M437.88,391.45H62v-95.1A5.76,5.76,0,0,1,69.9,291L250,361.67,430,291a5.76,5.76,0,0,1,7.86,5.36Z"/><path class="cls-24" d="M437.88,391.84H62v-95a5.79,5.79,0,0,1,7.9-5.39l180,70.67L430,291.4a5.79,5.79,0,0,1,7.9,5.39Z"/><path class="cls-25" d="M437.88,392.24H62v-95A5.82,5.82,0,0,1,70,291.82l180,70.65,180-70.65a5.82,5.82,0,0,1,7.95,5.42Z"/><path class="cls-26" d="M437.88,392.63H62V297.68a5.85,5.85,0,0,1,8-5.45L250,362.86l179.93-70.63a5.85,5.85,0,0,1,8,5.45Z"/><path class="cls-27" d="M437.88,393H62v-94.9a5.89,5.89,0,0,1,8-5.49L250,363.26l179.88-70.62a5.89,5.89,0,0,1,8,5.49Z"/><path class="cls-28" d="M437.88,393.43H62V298.57a5.92,5.92,0,0,1,8.08-5.51L250,363.66l179.84-70.6a5.92,5.92,0,0,1,8.08,5.51Z"/><path class="cls-29" d="M437.88,393.82H62V299a6,6,0,0,1,8.13-5.54L250,364.05l179.79-70.58a6,6,0,0,1,8.13,5.54Z"/><path class="cls-30" d="M437.88,394.22H62V299.46a6,6,0,0,1,8.17-5.58L250,364.45l179.75-70.57a6,6,0,0,1,8.17,5.58Z"/><path class="cls-31" d="M437.88,394.61H62V299.9a6,6,0,0,1,8.21-5.6L250,364.84,429.67,294.3a6,6,0,0,1,8.21,5.6Z"/><path class="cls-32" d="M437.88,395H62V300.34a6,6,0,0,1,8.26-5.63L250,365.24l179.66-70.53a6,6,0,0,1,8.26,5.63Z"/><path class="cls-33" d="M437.88,395.41H62V300.79a6.08,6.08,0,0,1,8.3-5.67L250,365.64l179.62-70.52a6.08,6.08,0,0,1,8.3,5.67Z"/><path class="cls-34" d="M437.88,395.8H62V301.23a6.11,6.11,0,0,1,8.35-5.69L250,366l179.57-70.49a6.11,6.11,0,0,1,8.35,5.69Z"/><path class="cls-35" d="M437.88,396.2H62V301.67A6.15,6.15,0,0,1,70.43,296L250,366.43,429.49,296a6.15,6.15,0,0,1,8.39,5.72Z"/><path class="cls-36" d="M437.88,396.59H62V302.12a6.18,6.18,0,0,1,8.44-5.76L250,366.82l179.48-70.46a6.18,6.18,0,0,1,8.44,5.76Z"/><path class="cls-37" d="M437.88,397H62V302.56a6.21,6.21,0,0,1,8.48-5.78L250,367.22,429.4,296.78a6.21,6.21,0,0,1,8.48,5.78Z"/><path class="cls-38" d="M437.88,397.39H62V303a6.24,6.24,0,0,1,8.52-5.82L250,367.62l179.4-70.43a6.24,6.24,0,0,1,8.52,5.82Z"/><path class="cls-39" d="M437.88,397.78H62V303.45a6.27,6.27,0,0,1,8.57-5.84L250,368l179.35-70.4a6.27,6.27,0,0,1,8.57,5.84Z"/><path class="cls-40" d="M437.88,398.18H62V303.89A6.3,6.3,0,0,1,70.65,298L250,368.41,429.27,298a6.3,6.3,0,0,1,8.61,5.87Z"/><path class="cls-41" d="M437.88,398.57H62V304.34a6.35,6.35,0,0,1,8.66-5.91L250,368.8l179.26-70.37a6.35,6.35,0,0,1,8.66,5.91Z"/><path class="cls-42" d="M437.88,399H62V304.78a6.37,6.37,0,0,1,8.7-5.93L250,369.2l179.22-70.35a6.37,6.37,0,0,1,8.7,5.93Z"/><path class="cls-43" d="M437.88,399.37H62V305.22a6.41,6.41,0,0,1,8.75-6L250,369.6l179.17-70.34a6.41,6.41,0,0,1,8.75,6Z"/><path class="cls-44" d="M437.88,399.76H62V305.67a6.44,6.44,0,0,1,8.79-6L250,370l179.13-70.32a6.44,6.44,0,0,1,8.79,6Z"/><path class="cls-45" d="M437.88,400.16H62V306.11a6.46,6.46,0,0,1,8.83-6L250,370.39l179.09-70.3a6.46,6.46,0,0,1,8.83,6Z"/><path class="cls-46" d="M437.88,400.56H62v-94a6.5,6.5,0,0,1,8.88-6.05l179,70.28L429,300.5a6.5,6.5,0,0,1,8.88,6.05Z"/><path class="cls-47" d="M437.88,401H62V307A6.53,6.53,0,0,1,71,300.91l179,70.27,179-70.27a6.53,6.53,0,0,1,8.92,6.09Z"/><path class="cls-48" d="M437.88,401.35H62V307.44a6.56,6.56,0,0,1,9-6.11l179,70.25,179-70.25a6.56,6.56,0,0,1,9,6.11Z"/><path class="cls-49" d="M437.88,401.74H62V307.89a6.6,6.6,0,0,1,9-6.15L250,372l178.91-70.23a6.6,6.6,0,0,1,9,6.15Z"/><path class="cls-50" d="M437.88,402.14H62V308.33a6.63,6.63,0,0,1,9.06-6.18L250,372.37l178.86-70.22a6.63,6.63,0,0,1,9.06,6.18Z"/><path class="cls-51" d="M437.88,402.54H62V308.77a6.66,6.66,0,0,1,9.1-6.2L250,372.76l178.82-70.19a6.66,6.66,0,0,1,9.1,6.2Z"/><path class="cls-52" d="M437.88,402.93H62V309.22A6.69,6.69,0,0,1,71.18,303L250,373.16,428.74,303a6.69,6.69,0,0,1,9.14,6.24Z"/><path class="cls-53" d="M437.88,403.33H62V309.66a6.73,6.73,0,0,1,9.19-6.27L250,373.56l178.73-70.17a6.73,6.73,0,0,1,9.19,6.27Z"/><path class="cls-54" d="M437.88,403.72H62V310.1a6.76,6.76,0,0,1,9.23-6.29L250,374l178.69-70.14a6.76,6.76,0,0,1,9.23,6.29Z"/><path class="cls-55" d="M437.88,404.12H62V310.55a6.8,6.8,0,0,1,9.28-6.33L250,374.35,428.6,304.22a6.8,6.8,0,0,1,9.28,6.33Z"/><path class="cls-56" d="M437.88,404.52H62V311a6.83,6.83,0,0,1,9.32-6.36L250,374.74l178.6-70.11a6.83,6.83,0,0,1,9.32,6.36Z"/><path class="cls-57" d="M437.88,404.91H62V311.43a6.86,6.86,0,0,1,9.37-6.38L250,375.14l178.55-70.09a6.86,6.86,0,0,1,9.37,6.38Z"/><path class="cls-58" d="M437.88,405.31H62V311.88a6.9,6.9,0,0,1,9.41-6.42L250,375.54l178.51-70.08a6.9,6.9,0,0,1,9.41,6.42Z"/><path class="cls-59" d="M437.88,405.7H62V312.32a6.93,6.93,0,0,1,9.46-6.45L250,375.93l178.47-70.06a6.92,6.92,0,0,1,9.45,6.45Z"/><path class="cls-60" d="M437.88,406.1H62V312.77a7,7,0,0,1,9.5-6.48l178.42,70,178.42-70a7,7,0,0,1,9.5,6.48Z"/><path class="cls-61" d="M437.88,406.5H62V313.21a7,7,0,0,1,9.54-6.51l178.38,70,178.38-70a7,7,0,0,1,9.54,6.51Z"/><path class="cls-62" d="M437.88,406.89H62V313.65a7,7,0,0,1,9.59-6.54l178.33,70,178.33-70a7,7,0,0,1,9.59,6.54Z"/><path class="cls-63" d="M437.88,407.29H62V314.1a7,7,0,0,1,9.63-6.57l178.29,70,178.29-70a7,7,0,0,1,9.63,6.57Z"/><path class="cls-64" d="M437.88,407.68H62V314.54a7.09,7.09,0,0,1,9.68-6.6l178.24,70,178.24-70a7.09,7.09,0,0,1,9.68,6.6Z"/><path class="cls-65" d="M437.88,408.08H62V315a7.12,7.12,0,0,1,9.72-6.63l178.2,70,178.2-70a7.12,7.12,0,0,1,9.72,6.63Z"/><path class="cls-66" d="M437.88,408.48H62V315.43a7.16,7.16,0,0,1,9.77-6.66L250,378.7l178.15-69.93a7.16,7.16,0,0,1,9.77,6.66Z"/><path class="cls-67" d="M437.88,408.87H62v-93a7.19,7.19,0,0,1,9.81-6.69L250,379.1l178.11-69.92a7.19,7.19,0,0,1,9.81,6.69Z"/><path class="cls-68" d="M437.88,409.27H62v-93a7.22,7.22,0,0,1,9.85-6.72L250,379.5,428,309.59a7.22,7.22,0,0,1,9.85,6.72Z"/><path class="cls-69" d="M437.88,409.66H62v-92.9a7.25,7.25,0,0,1,9.9-6.75l178,69.88L428,310a7.25,7.25,0,0,1,9.9,6.75Z"/><path class="cls-70" d="M437.88,410.06H62V317.2A7.28,7.28,0,0,1,72,310.42l178,69.87,178-69.87a7.28,7.28,0,0,1,9.94,6.78Z"/><path class="cls-71" d="M437.88,410.46H62V317.65a7.31,7.31,0,0,1,10-6.81L250,380.68l177.93-69.84a7.31,7.31,0,0,1,10,6.81Z"/><path class="cls-72" d="M437.88,410.85H62V318.09a7.35,7.35,0,0,1,10-6.84L250,381.08l177.89-69.83a7.35,7.35,0,0,1,10,6.84Z"/><path class="cls-73" d="M437.88,411.25H62V318.53a7.38,7.38,0,0,1,10.08-6.87L250,381.48,427.8,311.66a7.38,7.38,0,0,1,10.08,6.87Z"/><path class="cls-74" d="M437.88,411.64H62V319a7.41,7.41,0,0,1,10.12-6.9L250,381.87l177.8-69.79a7.41,7.41,0,0,1,10.12,6.9Z"/><path class="cls-75" d="M437.88,412H62V319.42a7.44,7.44,0,0,1,10.16-6.93L250,382.27l177.76-69.78a7.44,7.44,0,0,1,10.16,6.93Z"/><path class="cls-76" d="M437.88,412.44H62V319.86a7.48,7.48,0,0,1,10.21-7L250,382.66,427.67,312.9a7.48,7.48,0,0,1,10.21,7Z"/><path class="cls-77" d="M437.88,412.83H62V320.31a7.5,7.5,0,0,1,10.25-7L250,383.06l177.67-69.74a7.5,7.5,0,0,1,10.25,7Z"/><path class="cls-78" d="M437.88,413.23H62V320.75a7.54,7.54,0,0,1,10.3-7L250,383.46l177.62-69.73a7.54,7.54,0,0,1,10.3,7Z"/><path class="cls-79" d="M437.88,413.62H62V321.19a7.58,7.58,0,0,1,10.34-7.05L250,383.85l177.58-69.71a7.58,7.58,0,0,1,10.34,7.05Z"/><path class="cls-80" d="M437.88,414H62V321.64a7.61,7.61,0,0,1,10.39-7.08L250,384.25l177.53-69.69a7.61,7.61,0,0,1,10.39,7.08Z"/><path class="cls-81" d="M437.88,414.42H62V322.08A7.64,7.64,0,0,1,72.47,315L250,384.65,427.45,315a7.64,7.64,0,0,1,10.43,7.11Z"/><path class="cls-82" d="M437.88,414.81H62V322.53a7.67,7.67,0,0,1,10.47-7.15L250,385l177.45-69.66a7.67,7.67,0,0,1,10.47,7.15Z"/><path class="cls-83" d="M437.88,415.21H62V323a7.7,7.7,0,0,1,10.52-7.17L250,385.44l177.4-69.64A7.7,7.7,0,0,1,437.88,323Z"/><path class="cls-84" d="M437.88,415.6H62V323.41a7.74,7.74,0,0,1,10.56-7.2L250,385.83l177.36-69.62a7.74,7.74,0,0,1,10.56,7.2Z"/><path class="cls-85" d="M437.88,416H62V323.86a7.77,7.77,0,0,1,10.61-7.24L250,386.23l177.31-69.61a7.77,7.77,0,0,1,10.61,7.24Z"/><path class="cls-86" d="M437.88,416.4H62V324.3A7.8,7.8,0,0,1,72.69,317L250,386.63,427.23,317a7.8,7.8,0,0,1,10.65,7.26Z"/><path class="cls-87" d="M437.88,416.79H62V324.74a7.83,7.83,0,0,1,10.7-7.29L250,387l177.22-69.57a7.83,7.83,0,0,1,10.7,7.29Z"/><path class="cls-88" d="M437.88,417.19H62v-92a7.87,7.87,0,0,1,10.74-7.33L250,387.42l177.18-69.56a7.87,7.87,0,0,1,10.74,7.33Z"/><path class="cls-89" d="M437.88,417.58H62V325.63a7.89,7.89,0,0,1,10.78-7.35L250,387.81,427.1,318.28a7.89,7.89,0,0,1,10.78,7.35Z"/><path class="cls-90" d="M437.88,418H62V326.07a7.93,7.93,0,0,1,10.83-7.38L250,388.21l177.09-69.52a7.93,7.93,0,0,1,10.83,7.38Z"/><path class="cls-91" d="M437.88,418.38H62V326.52a8,8,0,0,1,10.87-7.42L250,388.61,427,319.1a8,8,0,0,1,10.87,7.42Z"/><path class="cls-92" d="M437.88,418.77H62V327A8,8,0,0,1,73,319.52L250,389l177-69.48A8,8,0,0,1,437.88,327Z"/><path class="cls-93" d="M437.88,419.17H62V327.41a8,8,0,0,1,11-7.48L250,389.4l177-69.47a8,8,0,0,1,11,7.48Z"/><path class="cls-94" d="M437.88,419.56H62V327.85a8.07,8.07,0,0,1,11-7.51L250,389.79l176.91-69.45a8.07,8.07,0,0,1,11,7.51Z"/><path class="cls-95" d="M437.88,420H62V328.29a8.09,8.09,0,0,1,11.05-7.53L250,390.19l176.87-69.43a8.09,8.09,0,0,1,11.05,7.53Z"/><path class="cls-96" d="M437.88,420.36H62V328.74a8.12,8.12,0,0,1,11.09-7.57L250,390.59l176.83-69.42a8.12,8.12,0,0,1,11.09,7.57Z"/><path class="cls-97" d="M437.88,420.75H62V329.18a8.16,8.16,0,0,1,11.14-7.6L250,391l176.78-69.4a8.16,8.16,0,0,1,11.14,7.6Z"/><path class="cls-98" d="M437.88,421.15H62V329.62A8.19,8.19,0,0,1,73.22,322L250,391.38,426.7,322a8.19,8.19,0,0,1,11.18,7.62Z"/><path class="cls-99" d="M437.88,421.55H62V330.07a8.22,8.22,0,0,1,11.23-7.66L250,391.77l176.69-69.36a8.22,8.22,0,0,1,11.23,7.66Z"/><path class="cls-100" d="M437.88,421.94H62V330.51a8.26,8.26,0,0,1,11.27-7.69L250,392.17l176.65-69.35a8.26,8.26,0,0,1,11.27,7.69Z"/><path class="cls-101" d="M437.88,422.34H62V331a8.29,8.29,0,0,1,11.32-7.71L250,392.57l176.6-69.33A8.29,8.29,0,0,1,437.88,331Z"/><path class="cls-102" d="M437.88,422.73H62V331.4a8.32,8.32,0,0,1,11.36-7.75L250,393l176.56-69.31a8.32,8.32,0,0,1,11.36,7.75Z"/><path class="cls-103" d="M437.88,423.13H62V331.84a8.34,8.34,0,0,1,11.4-7.77L250,393.36l176.52-69.29a8.34,8.34,0,0,1,11.4,7.77Z"/><path d="M437.88,423.53H62V332.29a8.39,8.39,0,0,1,11.45-7.81L250,393.75l176.47-69.27a8.39,8.39,0,0,1,11.45,7.81Z"/><path class="cls-105" d="M435.41,439.77H64.61a7.83,7.83,0,0,1-7.83-7.84V296c0-.16,0-.31,0-.46a3.83,3.83,0,0,1,5.32-2.91l186.39,77.9a3.9,3.9,0,0,0,3,0l186.39-77.9a3.83,3.83,0,0,1,5.32,2.91c0,.15,0,.3,0,.46v136A7.83,7.83,0,0,1,435.41,439.77Z"/><path class="cls-106" d="M436.86,292.22,382.14,315.9l-59.5,25.43-35.19,14.89-18.63,7.84-9.54,4-4.81,2-2.42,1-.61.26c-.21.08-.37.16-.69.27a5.33,5.33,0,0,1-3.61,0c-.5-.19-.83-.34-1.26-.52l-2.42-1-4.82-2-9.53-4-18.63-7.84-35.19-14.89-59.5-25.43L61.07,292.22l55.3,22.3L176.27,339l35.32,14.58,18.66,7.75,9.55,4,4.82,2,2.42,1,1.16.48a2.88,2.88,0,0,0,.76.12,2.44,2.44,0,0,0,.8-.13l1.13-.47,2.42-1,4.82-2,9.54-4,18.67-7.75L321.66,339l59.9-24.47Z"/><path class="cls-107" d="M249,371.88a5.21,5.21,0,0,1-1.76-.3l-.36-.14-.3-.12-.59-.25-2.36-1-4.7-2-9.31-3.91-18.2-7.65L177,342,118.7,317.1,64.16,293.51l55.11,22.24,58.67,24L212.46,354l18.23,7.57,9.32,3.89,4.7,2,2.37,1,.59.24.3.13.23.09a2.58,2.58,0,0,0,.76.12,2.34,2.34,0,0,0,.79-.13c.1,0,.31-.12.51-.21l.59-.24,2.36-1,4.71-2,9.32-3.89L285.47,354,320,339.73l58.67-24,55.11-22.24L379.23,317.1,320.94,342l-34.39,14.56-18.2,7.65L259,368.12l-4.7,2-2.36,1-.6.25c-.19.08-.37.16-.68.27A5.17,5.17,0,0,1,249,371.88Z"/><path class="cls-108" d="M249,371.85a5.33,5.33,0,0,1-1.7-.29,6.07,6.07,0,0,1-.66-.26l-.58-.24-2.3-1-4.59-1.92L230,364.37l-17.76-7.48-33.6-14.21L121.61,318.3,67.25,294.8,122.17,317l57.44,23.48,33.72,13.92,17.8,7.39,9.09,3.79,4.59,1.91,2.31,1,.58.25.5.2a2.69,2.69,0,0,0,.76.12,2.28,2.28,0,0,0,.78-.13l.2-.07.29-.12.58-.25,2.3-1,4.59-1.91,9.1-3.79,17.8-7.39,33.72-13.92L375.76,317l54.92-22.18-54.37,23.5-57.07,24.38-33.59,14.21-17.77,7.48-9.08,3.81q-2.3.94-4.59,1.92l-2.31,1-.57.24-.29.12-.39.15A5.65,5.65,0,0,1,249,371.85Z"/><path class="cls-109" d="M249,371.81a5.47,5.47,0,0,1-1.64-.27c-.5-.17-.85-.34-1.22-.49l-2.25-.94-4.48-1.87-8.86-3.72-17.33-7.29-32.8-13.88L124.53,319.5,70.34,296.1l54.73,22.11,56.21,23,32.92,13.59L231.57,362l8.87,3.7,4.47,1.87,2.25.93c.38.16.77.34,1,.43a2.74,2.74,0,0,0,.76.12,2.55,2.55,0,0,0,.78-.13l.18-.06.28-.12.56-.24,2.25-.93,4.48-1.87,8.87-3.7,17.36-7.21,32.92-13.59,56.22-23,54.73-22.11c-1.75.75-22.2,9.58-54.19,23.41l-55.85,23.85-32.8,13.87-17.33,7.29-8.86,3.72-4.48,1.87-2.25.94-.56.23-.29.12-.38.15A5.68,5.68,0,0,1,249,371.81Z"/><path class="cls-110" d="M249,371.77a5.06,5.06,0,0,1-1.58-.25c-.52-.17-.84-.33-1.21-.48l-2.19-.92-4.36-1.82L231,364.67l-16.9-7.1-32-13.54-54.63-23.32c-31.39-13.56-51.68-22.32-54-23.32l54.55,22,55,22.49,32.13,13.27,16.92,7,8.65,3.6,4.36,1.82,2.2.91c.36.15.76.33,1,.41a2.8,2.8,0,0,0,.76.12,2.88,2.88,0,0,0,.77-.12c.19-.06.65-.27,1-.41l2.19-.91,4.37-1.82,8.64-3.6,16.93-7L315,341.92l55-22.49,54.54-22-54,23.32L315.85,344l-32,13.54-16.9,7.1-8.64,3.63L254,370.12l-2.19.92c-.4.16-.65.29-1.22.48A5,5,0,0,1,249,371.77Z"/><path class="cls-111" d="M249,371.73a5.35,5.35,0,0,1-1.53-.23c-.53-.18-.82-.33-1.19-.47l-2.13-.9-4.25-1.77-8.42-3.53L215,357.9l-31.21-13.19-53.42-22.8L76.51,298.68l54.36,22,53.76,22L216,355.59l16.49,6.85,8.42,3.51,4.25,1.77,2.14.89a3.19,3.19,0,0,0,3.43,0l2.13-.89,4.25-1.77,8.43-3.51L282,355.59l31.32-12.93,53.76-22,54.35-22-53.83,23.23-53.42,22.8L283,357.9l-16.47,6.93-8.41,3.53-4.25,1.77-2.13.9c-.38.14-.65.29-1.2.47A5.25,5.25,0,0,1,249,371.73Z"/><path class="cls-112" d="M249,371.69a4.85,4.85,0,0,1-1.47-.22,11.32,11.32,0,0,1-1.18-.46l-2.07-.86-4.14-1.73L231.91,365l-16-6.74-30.41-12.86-52.21-22.27L79.6,300l54.17,21.92,52.53,21.5L216.82,356l16.06,6.67,8.2,3.42,4.13,1.73,2.08.86a3.16,3.16,0,0,0,3.35,0l2.07-.86,4.14-1.73,8.2-3.42L281.11,356l30.52-12.6,52.53-21.5L418.33,300l-53.66,23.14-52.21,22.27-30.41,12.86L266,365l-8.19,3.44-4.14,1.73-2.08.86a11,11,0,0,1-1.17.46A5,5,0,0,1,249,371.69Z"/><path class="cls-113" d="M249,371.65a5.24,5.24,0,0,1-1.42-.2c-.55-.17-.8-.31-1.16-.45l-2-.84-4-1.68-8-3.34-15.6-6.56-29.62-12.52-51-21.75L82.69,301.26l54,21.86,51.3,21,29.72,12.28,15.63,6.49,8,3.32,4,1.68,2,.84c.32.13.74.32.89.35a2.54,2.54,0,0,0,1.48,0,2.36,2.36,0,0,0,.39-.14l.5-.21,2-.84,4-1.68,8-3.32,15.63-6.49L310,344.12l51.3-21,54-21.86-53.48,23.05-51,21.75c-9.49,4-19.39,8.19-29.62,12.52l-15.6,6.56-8,3.34-4,1.68-2,.84-.5.21a5,5,0,0,1-2.08.44Z"/><path class="cls-114" d="M249,371.61a4.87,4.87,0,0,1-1.37-.19,9.17,9.17,0,0,1-1.13-.43l-2-.82-3.9-1.63-7.74-3.25-15.17-6.38-28.82-12.18-49.78-21.22-53.3-23,53.79,21.8L249,369.23l109.4-44.88,53.79-21.8-53.31,23-49.77,21.22-28.82,12.18-15.17,6.38-7.74,3.25-3.91,1.63-2,.82-.49.21c-.18.07-.42.16-.64.22A4.94,4.94,0,0,1,249,371.61Z"/><path class="cls-115" d="M249,371.58a5.38,5.38,0,0,1-1.32-.18,8.89,8.89,0,0,1-1.11-.42l-1.91-.8-3.79-1.58-7.52-3.16-14.73-6.19-28-11.84L142,326.71,88.87,303.84l53.6,21.74,48.84,20,28.13,11.63c4.84,2,9.77,4.05,14.75,6.13l7.53,3.13,3.79,1.59,1.91.79a8,8,0,0,0,.82.32,3,3,0,0,0,.72.1,2.84,2.84,0,0,0,.72-.1,2.42,2.42,0,0,0,.35-.12l.48-.2,1.9-.79,3.8-1.59,7.52-3.13,14.76-6.13,28.12-11.63,48.85-20,53.6-21.74-53.13,22.87-48.56,20.7-28,11.84-14.74,6.19-7.51,3.16-3.8,1.58-1.9.8-.48.2a5.83,5.83,0,0,1-.63.22A5.4,5.4,0,0,1,249,371.58Z"/><path class="cls-116" d="M249,371.54a5.55,5.55,0,0,1-1.28-.17,8.43,8.43,0,0,1-1.08-.4l-1.85-.77-3.68-1.54-7.29-3.06-14.3-6-27.23-11.51-47.34-20.17L92,305.13l53.41,21.67L193,346.32l27.32,11.29,14.32,5.95,7.3,3,3.68,1.54,1.85.77a5.69,5.69,0,0,0,.8.3,2.54,2.54,0,0,0,1.41,0l.34-.11.46-.19,1.84-.77L256,366.6l7.3-3,14.32-5.95,27.32-11.29,47.62-19.52L406,305.13l-53,22.78-47.34,20.17-27.23,11.51-14.3,6-7.3,3.06-3.68,1.54-1.84.77-.47.19a3.48,3.48,0,0,1-.62.21A5.48,5.48,0,0,1,249,371.54Z"/><path class="cls-117" d="M249,371.5a4.67,4.67,0,0,1-1.23-.16,8.89,8.89,0,0,1-1.06-.38l-1.79-.75-3.56-1.49-7.07-3-13.87-5.83L194,348.76l-46.13-19.65L95.05,306.42,148.27,328l46.39,19,26.52,11,13.89,5.77,7.08,3,3.56,1.49,1.79.75a6.82,6.82,0,0,0,.77.29,4,4,0,0,0,.69.09,4.06,4.06,0,0,0,.7-.09l.33-.11.43-.18,1.79-.75,3.57-1.49,7.08-3L276.75,358l26.52-11,46.39-19,53.22-21.61-52.77,22.69L304,348.76l-26.43,11.16-13.87,5.83-7.07,3L253,370.21l-1.79.75-.47.19a4.06,4.06,0,0,1-.59.19A4.61,4.61,0,0,1,249,371.5Z"/><path class="cls-118" d="M249,371.46a5.28,5.28,0,0,1-1.18-.14,7.81,7.81,0,0,1-1-.37l-1.74-.73-3.45-1.44-6.85-2.87-13.43-5.65-25.64-10.83-44.91-19.12-52.6-22.6,53,21.55,45.16,18.52,25.72,10.64L235.51,364l6.85,2.85,3.45,1.45,1.74.72a5.4,5.4,0,0,0,.73.27,3.08,3.08,0,0,0,.68.08,3.25,3.25,0,0,0,.69-.08,4.94,4.94,0,0,0,.73-.27l1.73-.72,3.46-1.45,6.85-2.85,13.46-5.59,25.72-10.64,45.16-18.52,53-21.55-52.59,22.6-44.91,19.12-25.64,10.83-13.44,5.65-6.84,2.87-3.46,1.44-1.73.73a9,9,0,0,1-1,.37A5.3,5.3,0,0,1,249,371.46Z"/><path class="cls-119" d="M249,371.42a4.78,4.78,0,0,1-1.13-.13c-.18,0-.38-.11-.57-.17l-.44-.19-1.68-.7-3.34-1.39-6.62-2.78-13-5.46-24.84-10.49-43.7-18.6L101.22,309l52.85,21.49,43.93,18,24.92,10.31,13,5.41,6.63,2.77,3.34,1.39,1.68.7.4.16a2.13,2.13,0,0,0,.3.09,3.07,3.07,0,0,0,.67.08,3,3,0,0,0,.67-.08,3.6,3.6,0,0,0,.71-.25l1.67-.7,3.35-1.39,6.62-2.77,13-5.41,24.92-10.31,43.94-18L396.7,309l-52.41,22.51-43.7,18.6L275.75,360.6l-13,5.46-6.63,2.78-3.33,1.39-1.68.7a5.87,5.87,0,0,1-1,.36A4.8,4.8,0,0,1,249,371.42Z"/><path class="cls-120" d="M249,371.38a4.9,4.9,0,0,1-1.08-.12,4.71,4.71,0,0,1-.55-.16l-.44-.18-1.62-.67-3.22-1.35-6.4-2.69-12.57-5.28L199,350.78l-42.48-18.07-52.24-22.42L157,331.72l42.7,17.53,24.13,10,12.58,5.23,6.41,2.67,3.22,1.34,1.62.68.2.08.18.07.3.08a2.82,2.82,0,0,0,.65.08,3.1,3.1,0,0,0,1.34-.31l1.61-.68,3.23-1.34,6.41-2.67,12.58-5.23,24.12-10L341,331.72l52.66-21.43-52.25,22.42-42.48,18.07-24,10.15-12.57,5.28-6.4,2.69c-1.07.44-2.15.89-3.22,1.35l-1.62.67A5,5,0,0,1,249,371.38Z"/><path class="cls-121" d="M249,371.35a5.18,5.18,0,0,1-1-.12,4.19,4.19,0,0,1-.52-.15l-.22-.08-.22-.09-1.56-.65-3.11-1.3-6.18-2.59L224,361.27l-23.25-9.81-41.27-17.55L107.4,311.58,159.87,333l41.48,17,23.32,9.65,12.15,5.05,6.18,2.58,3.11,1.3,1.56.65.18.07.18.07.29.08a3.48,3.48,0,0,0,.64.07,3.21,3.21,0,0,0,1.29-.29l1.56-.65,3.12-1.3,6.18-2.58,12.15-5.05L296.58,350l41.48-17,52.47-21.37-52.07,22.33L297.2,351.46,274,361.27l-12.14,5.1L255.64,369l-3.11,1.3-1.57.65A5,5,0,0,1,249,371.35Z"/><path class="cls-122" d="M249,371.31a4.72,4.72,0,0,1-1.92-.41l-1.51-.63-3-1.25-5.95-2.5-11.7-4.91-22.46-9.48-40-17-51.88-22.23,52.28,21.3L203,350.71,225.54,360l11.72,4.88,6,2.48,3,1.25,1.51.63a3.08,3.08,0,0,0,1.24.27,3.31,3.31,0,0,0,1.25-.27l1.5-.63,3-1.25,6-2.48L272.39,360l22.52-9.32,40.25-16.54,52.28-21.29-51.89,22.23-40.05,17-22.45,9.48-11.7,4.91-6,2.5-3,1.25-1.51.63A5,5,0,0,1,249,371.31Z"/><path class="cls-123" d="M249,371.27a4.82,4.82,0,0,1-1.85-.38l-1.45-.61-2.88-1.2-5.73-2.4-11.27-4.74-21.66-9.13-38.83-16.5-51.71-22.14,52.09,21.23,39,16,21.72,9,11.29,4.69,5.73,2.39,2.88,1.2,1.45.61a3.19,3.19,0,0,0,1.2.25,3.36,3.36,0,0,0,1.21-.25l1.45-.61,2.88-1.2,5.73-2.39,11.29-4.69,21.72-9,39-16,52.09-21.23-51.71,22.14-38.83,16.5-21.66,9.13-11.27,4.74-5.73,2.4-2.88,1.2-1.45.61A4.87,4.87,0,0,1,249,371.27Z"/><path class="cls-124" d="M249,371.23a4.72,4.72,0,0,1-1.76-.35l-1.41-.58L243,369.14l-5.5-2.31-10.84-4.55-20.86-8.8-37.62-16-51.53-22.05,51.9,21.17,37.79,15.55,20.92,8.66,10.85,4.51,5.51,2.3,2.77,1.16,1.37.57a3.1,3.1,0,0,0,1.18.23,2.94,2.94,0,0,0,1.17-.23l1.39-.57,2.77-1.16,5.5-2.3,10.85-4.51,20.92-8.66,37.8-15.55,51.9-21.17-51.53,22.05-37.62,16-20.86,8.8-10.84,4.55-5.5,2.31-2.77,1.16-1.4.58A4.71,4.71,0,0,1,249,371.23Z"/><path class="cls-125" d="M249,371.19a4.69,4.69,0,0,1-1.69-.32l-1.35-.56-2.66-1.11L238,367l-10.4-4.36-20.07-8.46-36.4-15.45-51.36-22L249,369.65l129.21-52.9-51.35,22-36.41,15.45-20.06,8.46L259.94,367l-5.27,2.22L252,370.31l-1.35.56A4.71,4.71,0,0,1,249,371.19Z"/><path class="cls-126" d="M249,371.15a4.58,4.58,0,0,1-1.62-.29l-1.29-.54-2.55-1.06-5.05-2.12-10-4.18-19.27-8.13L174,339.91,122.84,318,249,369.69,375.08,318l-51.17,21.87-35.19,14.92L269.44,363l-10,4.18-5.06,2.12-2.54,1.06-1.3.54A4.73,4.73,0,0,1,249,371.15Z"/><path class="cls-127" d="M249,371.11a4.39,4.39,0,0,1-1.54-.27l-1.24-.51-2.43-1-4.83-2-9.54-4-18.48-7.78-34-14.4-51-21.78,123,50.4,123-50.4-51,21.78-34,14.4-18.48,7.78-9.53,4-4.83,2-2.43,1-1.26.52A4.68,4.68,0,0,1,249,371.11Z"/><path class="cls-128" d="M249,371.08a4.56,4.56,0,0,1-1.45-.25c-.47-.16-.8-.32-1.2-.48l-2.32-1-4.61-1.93-9.1-3.82-17.68-7.45-32.76-13.87L129,320.62,249,369.77l120-49.15-50.83,21.69-32.75,13.87-17.69,7.45-9.1,3.82-4.6,1.93-2.32,1c-.41.16-.73.31-1.21.49A4.69,4.69,0,0,1,249,371.08Z"/><path class="cls-129" d="M249,371a4.62,4.62,0,0,1-1.37-.22c-.44-.15-.78-.31-1.15-.46l-2.21-.92-4.38-1.84L231.18,364l-16.88-7.11-31.54-13.35-50.65-21.6,50.95,20.86,31.66,13.07,16.92,7,8.68,3.61,4.39,1.83,2.2.92c.37.15.75.33,1.07.43a3.24,3.24,0,0,0,1,.16,5,5,0,0,0,2.06-.59l2.2-.92,4.39-1.83,8.67-3.61,16.92-7,31.66-13.07,51-20.86-50.65,21.6-31.54,13.35L266.74,364l-8.66,3.63-4.39,1.84-2.2.92c-.38.15-.69.3-1.16.46A4.23,4.23,0,0,1,249,371Z"/><path class="cls-130" d="M249,371a4.61,4.61,0,0,1-1.28-.19c-.45-.14-.76-.3-1.11-.44l-2.09-.87-4.16-1.74-8.24-3.46L216,357.53l-30.32-12.82L135.2,323.2,186,344l30.44,12.57,16.12,6.69,8.24,3.44,4.16,1.73,2.09.88a3.81,3.81,0,0,0,3.91,0l2.09-.88,4.16-1.73,8.24-3.44,16.12-6.69L312,344l50.77-20.8-50.47,21.51-30.32,12.82-16.1,6.77-8.23,3.46-4.16,1.74-2.09.87c-.35.14-.67.3-1.11.44A4.68,4.68,0,0,1,249,371Z"/><path class="cls-131" d="M249,371a4.46,4.46,0,0,1-1.2-.17,7.85,7.85,0,0,1-1.06-.41l-2-.82-3.94-1.65-7.8-3.27-15.29-6.43-29.11-12.3-50.29-21.42,50.57,20.74,29.21,12.07,15.32,6.37,7.81,3.25,3.93,1.64,2,.83a3.76,3.76,0,0,0,3.71,0l2-.83,3.94-1.64,7.81-3.25,15.32-6.37,29.2-12.07,50.58-20.74-50.29,21.42-29.11,12.3-15.3,6.43-7.8,3.27-3.93,1.65-2,.82a8.41,8.41,0,0,1-1.06.41A4.48,4.48,0,0,1,249,371Z"/><path class="cls-132" d="M249,370.92a5.07,5.07,0,0,1-2.13-.52l-1.87-.78-3.71-1.56L233.88,365l-14.5-6.1-27.89-11.77-50.11-21.33,50.38,20.68,28,11.57,14.52,6,7.38,3.08,3.71,1.54,1.86.78a3.89,3.89,0,0,0,1.75.45,3.72,3.72,0,0,0,.88-.11,6.77,6.77,0,0,0,.88-.34l1.86-.78,3.71-1.54,7.38-3.08,14.52-6,28-11.57,50.39-20.68-50.11,21.33-27.9,11.77L264,365l-7.36,3.08L253,369.62l-1.86.78a8.32,8.32,0,0,1-1,.37A4.28,4.28,0,0,1,249,370.92Z"/><g class="cls-133"><path class="cls-3" d="M425.75,430h-351a12.44,12.44,0,0,1-12.44-12.44c0-2.27,2.39-4,5.09-4a12.47,12.47,0,0,0,5.24-1.33L150,375.19l77.27-37.07a55.21,55.21,0,0,1,46.53-.56l77,34.66,77,34.65a13.15,13.15,0,0,0,5.39,1.3c2.69,0,5.09,1.7,5.09,4v5.42A12.44,12.44,0,0,1,425.75,430Z"/><path class="cls-4" d="M227.2,338.4c14.68-7,31.14-5.82,46.53-.58l5.39,2.42,71.61,32.14,74.63,33.49,2.33,1.05c.86.23,1.66.67,2.52.9a11.61,11.61,0,0,0,2.87.39c2.7,0,5.09,1.69,5.1,4v5.42A12.44,12.44,0,0,1,425.75,430h-351a12.44,12.44,0,0,1-12.44-12.44,3.22,3.22,0,0,1,.44-1.62,5.35,5.35,0,0,1,4.62-2.36c1.82,0,3.49-.86,5.24-1.34l1.92-.91,4.41-2.1,71-33.92Z"/><path class="cls-5" d="M227.19,338.67c14.67-7,31.14-5.81,46.52-.58l5.39,2.4,71.63,32.05,74.61,33.39,2.34,1c.86.23,1.65.67,2.52.89a11.6,11.6,0,0,0,2.87.38c2.69,0,5.07,1.7,5.1,3.95,0,0,0,3.58,0,3.61v1.81A12.44,12.44,0,0,1,425.75,430h-351a12.44,12.44,0,0,1-12.44-12.43,3.26,3.26,0,0,1,.44-1.63,5.36,5.36,0,0,1,4.6-2.38c1.81,0,3.48-.86,5.23-1.35,0,0,1.91-.9,1.92-.89s4.39-2.08,4.42-2.09l71-33.81Z"/><path class="cls-6" d="M227.17,338.94c14.68-7,31.14-5.8,46.53-.59l5.39,2.4,71.64,31.95L425.33,406l2.33,1c.86.23,1.66.66,2.52.88a12.62,12.62,0,0,0,2.87.38c2.69,0,5.07,1.69,5.11,3.94,0,0,0,3.57,0,3.6v1.81a12.44,12.44,0,0,1-12.44,12.44h-351a12.44,12.44,0,0,1-12.44-12.44,3.39,3.39,0,0,1,.43-1.63,5.37,5.37,0,0,1,4.58-2.4c1.81,0,3.48-.87,5.24-1.35l1.91-.89s4.38-2.05,4.43-2.07l71-33.7Z"/><path class="cls-7" d="M227.15,339.21c14.69-6.94,31.14-5.79,46.53-.6.07,0,5.32,2.37,5.39,2.39l71.65,31.86L425.31,406s2.31,1,2.34,1c.86.23,1.66.66,2.52.88a12.61,12.61,0,0,0,2.86.38c2.69,0,5.07,1.69,5.12,3.93,0,0,0,3.55,0,3.6v1.8a12.44,12.44,0,0,1-12.44,12.44h-351a12.44,12.44,0,0,1-12.44-12.44,3.35,3.35,0,0,1,.43-1.62,5.36,5.36,0,0,1,4.55-2.43c1.8-.05,3.48-.88,5.24-1.36,0,0,1.89-.88,1.92-.88s4.36-2,4.42-2.05L150,375.72Z"/><path class="cls-8" d="M227.13,339.49c14.69-6.92,31.15-5.79,46.53-.61l5.39,2.38L350.72,373l74.58,33.07,2.33,1c.86.23,1.66.65,2.52.86a12.62,12.62,0,0,0,2.87.38c2.68,0,5.06,1.69,5.12,3.93,0,.05.05,3.53.05,3.59v1.81a12.44,12.44,0,0,1-12.44,12.43h-351a12.44,12.44,0,0,1-12.44-12.43,3.49,3.49,0,0,1,.42-1.63,5.36,5.36,0,0,1,4.54-2.45c1.79-.06,3.47-.89,5.23-1.36,0,0,1.88-.88,1.92-.87s4.35-2,4.43-2L150,375.85Z"/><path class="cls-9" d="M227.12,339.76c14.69-6.89,31.14-5.78,46.52-.62.1,0,5.28,2.34,5.39,2.37l71.69,31.67,74.56,33c.05,0,2.29,1,2.34,1,.86.23,1.66.65,2.52.85a12.54,12.54,0,0,0,2.86.38c2.68,0,5.05,1.69,5.13,3.92,0,.05.06,3.51.06,3.58v1.81a12.43,12.43,0,0,1-12.44,12.43h-351A12.43,12.43,0,0,1,62.34,417.7a3.53,3.53,0,0,1,.42-1.63,5.35,5.35,0,0,1,4.51-2.47c1.79-.07,3.47-.9,5.23-1.37,0,0,1.88-.86,1.92-.86s4.34-2,4.44-2L150,376Z"/><path class="cls-10" d="M227.1,340c14.7-6.87,31.14-5.77,46.52-.62.12,0,5.27,2.32,5.4,2.36l71.7,31.57,74.55,32.86c.05,0,2.28,1,2.33,1,.86.22,1.66.64,2.52.84a12.61,12.61,0,0,0,2.87.37c2.67,0,5,1.69,5.13,3.92,0,.06.07,3.5.07,3.58v1.8a12.44,12.44,0,0,1-12.44,12.44h-351a12.44,12.44,0,0,1-12.44-12.44,3.64,3.64,0,0,1,.41-1.63,5.36,5.36,0,0,1,4.49-2.49c1.79-.08,3.47-.91,5.23-1.37,0,0,1.87-.86,1.92-.85s4.34-2,4.44-2L150,376.11Z"/><path class="cls-11" d="M227.08,340.3c14.7-6.84,31.15-5.76,46.52-.63.14.05,5.25,2.31,5.4,2.35l71.72,31.49,74.53,32.74,2.34,1c.85.22,1.66.63,2.52.83a13.11,13.11,0,0,0,2.86.37c2.67,0,5,1.69,5.13,3.91.06.07.09,3.48.09,3.57v1.8a12.44,12.44,0,0,1-12.44,12.44h-351a12.44,12.44,0,0,1-12.44-12.44,3.64,3.64,0,0,1,.41-1.63,5.4,5.4,0,0,1,4.47-2.51c1.78-.09,3.46-.92,5.22-1.38,0,0,1.87-.85,1.93-.84s4.32-1.95,4.44-2L150,376.24Z"/><path class="cls-12" d="M227.06,340.58c14.71-6.83,31.15-5.76,46.52-.65.16.06,5.24,2.3,5.4,2.35l71.74,31.39,74.52,32.63c.06,0,2.26,1,2.33,1,.86.22,1.66.62,2.52.82a13.84,13.84,0,0,0,2.86.37c2.67,0,5,1.68,5.14,3.89.06.09.1,3.47.1,3.58v1.8a12.43,12.43,0,0,1-12.44,12.43h-351a12.43,12.43,0,0,1-12.44-12.43,3.61,3.61,0,0,1,.41-1.63,5.37,5.37,0,0,1,4.44-2.54c1.78-.1,3.46-.92,5.22-1.38.06,0,1.87-.84,1.93-.84s4.31-1.92,4.45-2l71.26-33Z"/><path class="cls-13" d="M227.05,340.85c14.7-6.8,31.14-5.75,46.51-.65.18.06,5.22,2.28,5.4,2.33l71.76,31.3,74.5,32.53c.08,0,2.26,1,2.34,1,.85.22,1.66.62,2.52.82a13.74,13.74,0,0,0,2.86.36c2.66.05,5,1.69,5.14,3.89.07.09.11,3.45.11,3.57v1.8a12.44,12.44,0,0,1-12.44,12.44h-351a12.44,12.44,0,0,1-12.44-12.44,3.77,3.77,0,0,1,.4-1.63,5.39,5.39,0,0,1,4.42-2.56c1.78-.11,3.46-.93,5.22-1.39.07,0,1.86-.83,1.93-.82s4.3-1.91,4.45-2l71.3-32.92Z"/><path class="cls-14" d="M227,341.12c14.71-6.77,31.15-5.74,46.51-.66.2.07,5.2,2.27,5.4,2.33L350.72,374l74.49,32.42c.08,0,2.25,1,2.33,1,.86.22,1.66.62,2.52.81a14.54,14.54,0,0,0,2.86.36c2.66.05,5,1.68,5.15,3.88.08.1.12,3.44.12,3.56v1.8a12.44,12.44,0,0,1-12.44,12.44h-351a12.44,12.44,0,0,1-12.44-12.44,3.81,3.81,0,0,1,.4-1.63,5.39,5.39,0,0,1,4.4-2.58c1.76-.12,3.45-.94,5.21-1.39.07,0,1.86-.83,1.94-.82s4.28-1.89,4.45-1.94l71.33-32.81Z"/><path class="cls-15" d="M227,341.39c14.72-6.75,31.15-5.73,46.51-.66.22.07,5.19,2.25,5.41,2.32l71.78,31.1,74.48,32.31c.09,0,2.24,1,2.34,1,.85.22,1.66.61,2.52.8a13.71,13.71,0,0,0,2.85.35c2.66.06,5,1.68,5.16,3.88.08.11.13,3.42.13,3.56v1.8a12.44,12.44,0,0,1-12.44,12.43h-351a12.44,12.44,0,0,1-12.44-12.43,4,4,0,0,1,.39-1.64,5.41,5.41,0,0,1,4.38-2.6c1.76-.13,3.45-1,5.21-1.4.08,0,1.85-.81,1.94-.8s4.27-1.87,4.46-1.93l71.36-32.7Z"/><path class="cls-16" d="M227,341.67c14.72-6.73,31.15-5.73,46.51-.68.23.08,5.17,2.24,5.41,2.31l71.8,31,74.46,32.21c.1,0,2.24,1,2.34,1,.86.21,1.66.6,2.52.79a15.32,15.32,0,0,0,2.86.35c2.65.06,5,1.68,5.16,3.87.09.12.14,3.4.14,3.55v1.8a12.44,12.44,0,0,1-12.44,12.44h-351a12.44,12.44,0,0,1-12.44-12.44,3.91,3.91,0,0,1,.39-1.63,5.37,5.37,0,0,1,4.35-2.63c1.76-.14,3.45-1,5.21-1.4.09,0,1.85-.81,1.94-.8s4.26-1.85,4.47-1.91l71.39-32.59Z"/><path class="cls-17" d="M227,341.94c14.72-6.7,31.14-5.72,46.5-.69.25.09,5.16,2.23,5.41,2.31l71.82,30.91,74.45,32.1c.11,0,2.23.95,2.34,1,.85.21,1.66.59,2.52.78a15.21,15.21,0,0,0,2.85.35c2.65.05,5,1.67,5.17,3.86.09.13.15,3.39.15,3.55v1.79a12.44,12.44,0,0,1-12.44,12.44h-351a12.44,12.44,0,0,1-12.44-12.44,4.1,4.1,0,0,1,.38-1.63,5.42,5.42,0,0,1,4.34-2.65c1.75-.15,3.44-1,5.2-1.41.1,0,1.84-.8,1.94-.79s4.26-1.82,4.47-1.89L150.1,377Z"/><path class="cls-18" d="M227,342.21c14.73-6.68,31.15-5.71,46.5-.69.27.09,5.14,2.21,5.41,2.29l71.84,30.82,74.43,32c.12,0,2.23.93,2.34,1,.86.22,1.66.6,2.52.78a16.19,16.19,0,0,0,2.85.34c2.65.06,5,1.68,5.18,3.86.1.13.16,3.37.16,3.54v1.8a12.44,12.44,0,0,1-12.44,12.43h-351a12.44,12.44,0,0,1-12.44-12.43,4.15,4.15,0,0,1,.38-1.64A5.41,5.41,0,0,1,67,413.6a36.2,36.2,0,0,0,5.2-1.41c.1,0,1.84-.79,2-.78s4.24-1.81,4.47-1.88l71.46-32.37Z"/><path class="cls-19" d="M226.94,342.48c14.73-6.65,31.15-5.7,46.5-.7.29.1,5.12,2.19,5.42,2.29l71.85,30.72,74.42,31.89c.12,0,2.21.93,2.34,1,.85.21,1.66.59,2.52.77a17.06,17.06,0,0,0,2.85.34c2.65.06,5,1.67,5.18,3.84.11.15.17,3.36.17,3.54v1.8a12.43,12.43,0,0,1-12.44,12.43h-351a12.43,12.43,0,0,1-12.44-12.43,4,4,0,0,1,.38-1.64A5.4,5.4,0,0,1,67,413.6a37.61,37.61,0,0,0,5.2-1.42c.11,0,1.84-.78,2-.77s4.23-1.78,4.48-1.86l71.49-32.25Z"/><path class="cls-20" d="M226.92,342.76c14.74-6.63,31.15-5.7,46.5-.71.31.1,5.11,2.17,5.42,2.27L350.71,375l74.4,31.77c.13,0,2.21.93,2.34,1,.86.21,1.66.58,2.52.76a17,17,0,0,0,2.85.33c2.65.07,5,1.68,5.19,3.84.11.16.18,3.34.18,3.54V418a12.44,12.44,0,0,1-12.44,12.44h-351A12.44,12.44,0,0,1,62.34,418a4.05,4.05,0,0,1,.37-1.63A5.42,5.42,0,0,1,67,413.6a42,42,0,0,0,5.2-1.42c.11,0,1.82-.78,1.94-.77.28,0,4.22-1.76,4.48-1.84l71.53-32.14Z"/><path class="cls-21" d="M226.9,343c14.75-6.61,31.16-5.69,46.5-.72.33.11,5.09,2.16,5.42,2.27l71.89,30.54,74.39,31.67c.14,0,2.2.91,2.34.95.85.21,1.66.57,2.52.74a17.07,17.07,0,0,0,2.84.34c2.65.07,5,1.67,5.2,3.83a34.32,34.32,0,0,1,.19,3.53V418a12.44,12.44,0,0,1-12.44,12.44h-351A12.44,12.44,0,0,1,62.34,418a4.09,4.09,0,0,1,.37-1.63A5.41,5.41,0,0,1,67,413.6a43.94,43.94,0,0,0,5.2-1.43c.12,0,1.82-.77,1.95-.75.28,0,4.2-1.74,4.48-1.83l71.56-32Z"/><path class="cls-22" d="M226.89,343.3c14.74-6.58,31.15-5.68,46.49-.73.34.11,5.07,2.15,5.42,2.26l71.91,30.45,74.37,31.56c.15.05,2.2.91,2.34,1,.86.2,1.66.57,2.52.73a17.06,17.06,0,0,0,2.85.34c2.64.07,5,1.67,5.2,3.82a31.44,31.44,0,0,1,.2,3.53V418a12.43,12.43,0,0,1-12.44,12.43h-351A12.43,12.43,0,0,1,62.34,418a4.31,4.31,0,0,1,.36-1.64,5.44,5.44,0,0,1,4.22-2.76,46,46,0,0,0,5.2-1.44c.12,0,1.81-.75,1.95-.74.3,0,4.19-1.72,4.49-1.81l71.6-31.92Z"/><path class="cls-23" d="M226.87,343.57c14.75-6.55,31.15-5.67,46.49-.73.36.11,5.06,2.13,5.42,2.25l71.92,30.35,74.37,31.45c.15.05,2.18.91,2.34.94.85.21,1.66.57,2.52.73a18,18,0,0,0,2.84.33c2.64.08,5,1.67,5.21,3.82a31.25,31.25,0,0,1,.21,3.52V418a12.44,12.44,0,0,1-12.44,12.44h-351A12.44,12.44,0,0,1,62.34,418a4.35,4.35,0,0,1,.36-1.64,5.43,5.43,0,0,1,4.2-2.78,48.71,48.71,0,0,0,5.19-1.44c.13,0,1.81-.75,2-.73.32,0,4.19-1.7,4.49-1.8l71.64-31.81Z"/><path class="cls-24" d="M226.85,343.85c14.75-6.54,31.16-5.67,46.49-.75.38.12,5,2.12,5.43,2.24L350.7,375.6,425.05,407c.16.05,2.18.89,2.34.93.85.21,1.67.56,2.52.72a18.16,18.16,0,0,0,2.85.33c2.63.08,5,1.67,5.21,3.81a28.92,28.92,0,0,1,.22,3.52V418a12.44,12.44,0,0,1-12.44,12.44h-351A12.44,12.44,0,0,1,62.34,418a4.54,4.54,0,0,1,.35-1.64,5.46,5.46,0,0,1,4.18-2.8,51.29,51.29,0,0,0,5.19-1.45c.14,0,1.8-.74,2-.72.34,0,4.18-1.68,4.5-1.78L150.18,378Z"/><path class="cls-25" d="M226.83,344.12c14.76-6.51,31.16-5.66,46.49-.75.4.12,5,2.1,5.43,2.23l71.95,30.16L425,407c.17.05,2.17.89,2.34.93.85.2,1.66.55,2.52.71a19.29,19.29,0,0,0,2.84.32c2.63.09,5,1.67,5.22,3.81a28.87,28.87,0,0,1,.23,3.51v1.79a12.44,12.44,0,0,1-12.44,12.43h-351a12.44,12.44,0,0,1-12.44-12.43,4.5,4.5,0,0,1,.35-1.64,5.43,5.43,0,0,1,4.15-2.83c1.72-.22,3.42-1,5.19-1.45.15,0,1.8-.73,2-.72.35,0,4.16-1.65,4.5-1.76l71.7-31.59Z"/><path class="cls-26" d="M226.82,344.39c14.76-6.48,31.15-5.65,46.48-.76.42.13,5,2.09,5.43,2.22l72,30.07L425,407.06c.18.05,2.17.88,2.34.92.85.2,1.67.54,2.52.7a19.44,19.44,0,0,0,2.84.32c2.63.09,5,1.67,5.23,3.8a26.83,26.83,0,0,1,.24,3.5v1.79a12.44,12.44,0,0,1-12.44,12.44h-351a12.44,12.44,0,0,1-12.44-12.44,4.75,4.75,0,0,1,.34-1.64,5.42,5.42,0,0,1,4.14-2.84c1.7-.24,3.41-1.05,5.18-1.47.15,0,1.8-.72,2-.7.37,0,4.15-1.64,4.5-1.75l71.74-31.48Z"/><path class="cls-27" d="M226.8,344.67c14.76-6.47,31.15-5.65,46.48-.78.44.14,5,2.08,5.43,2.22l72,30,74.31,31c.18.06,2.15.87,2.34.92.85.2,1.66.54,2.52.69a22.43,22.43,0,0,0,2.84.32c2.62.09,5,1.66,5.23,3.78a25.22,25.22,0,0,1,.25,3.51v1.78a12.44,12.44,0,0,1-12.44,12.44h-351a12.44,12.44,0,0,1-12.44-12.44,4.8,4.8,0,0,1,.34-1.64,5.41,5.41,0,0,1,4.11-2.86c1.7-.25,3.41-1.06,5.18-1.47.16,0,1.79-.72,2-.7.39,0,4.14-1.61,4.51-1.73l71.77-31.36Z"/><path class="cls-28" d="M226.78,344.94c14.77-6.44,31.16-5.64,46.48-.78.46.14,5,2.06,5.44,2.2l72,29.89L425,407.16c.19.06,2.15.87,2.34.91.85.2,1.67.54,2.52.69a20.9,20.9,0,0,0,2.84.31c2.62.1,4.94,1.66,5.24,3.78a25.06,25.06,0,0,1,.26,3.5v1.79a12.44,12.44,0,0,1-12.44,12.43h-351a12.44,12.44,0,0,1-12.44-12.43,4.81,4.81,0,0,1,.34-1.65,5.43,5.43,0,0,1,4.08-2.88c1.7-.26,3.41-1.07,5.18-1.48.17,0,1.79-.7,2-.68.4,0,4.12-1.6,4.51-1.72l71.8-31.25Z"/><path class="cls-29" d="M226.76,345.21c14.78-6.41,31.16-5.63,46.48-.79.47.15,5,2.05,5.44,2.2l72,29.79L425,407.22c.2.06,2.14.86,2.34.9.85.2,1.66.53,2.52.68a22.47,22.47,0,0,0,2.83.31c2.62.1,4.94,1.66,5.25,3.77a23.62,23.62,0,0,1,.27,3.5v1.78a12.43,12.43,0,0,1-12.44,12.43h-351a12.43,12.43,0,0,1-12.44-12.43,4.94,4.94,0,0,1,.33-1.64,5.45,5.45,0,0,1,4.07-2.91c1.69-.27,3.4-1.08,5.17-1.48.18,0,1.78-.7,2-.68a47.82,47.82,0,0,0,4.52-1.7l71.83-31.14Z"/><path class="cls-30" d="M226.75,345.48c14.77-6.39,31.15-5.62,46.47-.8.49.16,4.95,2,5.44,2.19l72,29.7L425,407.27c.21.06,2.14.85,2.34.9.85.2,1.67.52,2.52.67a22.6,22.6,0,0,0,2.84.3c2.61.11,4.93,1.66,5.25,3.77a22.21,22.21,0,0,1,.28,3.49v1.78a12.44,12.44,0,0,1-12.44,12.44h-351a12.44,12.44,0,0,1-12.44-12.44,5,5,0,0,1,.33-1.64,5.42,5.42,0,0,1,4-2.93c1.69-.28,3.4-1.09,5.17-1.49.18,0,1.78-.69,2-.67a44.15,44.15,0,0,0,4.52-1.68l71.87-31Z"/><path class="cls-31" d="M226.73,345.76c14.78-6.37,31.15-5.62,46.47-.81.51.16,4.93,2,5.44,2.18l72.05,29.6L425,407.32c.21.07,2.12.85,2.34.9.85.19,1.66.52,2.52.66a24.23,24.23,0,0,0,2.83.3c2.61.11,4.93,1.66,5.26,3.76a22,22,0,0,1,.29,3.48v1.79a12.44,12.44,0,0,1-12.44,12.43h-351a12.44,12.44,0,0,1-12.44-12.43,5.31,5.31,0,0,1,.32-1.65,5.47,5.47,0,0,1,4-2.95c1.69-.29,3.4-1.09,5.17-1.49a20.7,20.7,0,0,1,2-.66,42,42,0,0,0,4.53-1.67l71.9-30.92Z"/><path class="cls-32" d="M226.71,346c14.78-6.35,31.16-5.61,46.47-.82.53.17,4.91,2,5.44,2.17l72.07,29.51,74.24,30.49c.23.07,2.12.84,2.34.89.85.19,1.67.51,2.52.65a27.17,27.17,0,0,0,2.83.3c2.61.11,4.92,1.65,5.27,3.75a20.76,20.76,0,0,1,.3,3.48v1.78a12.43,12.43,0,0,1-12.44,12.43h-351a12.43,12.43,0,0,1-12.44-12.43,5.09,5.09,0,0,1,.32-1.65,5.46,5.46,0,0,1,4-3c1.68-.3,3.39-1.1,5.16-1.5.2,0,1.77-.67,2-.65a42.61,42.61,0,0,0,4.53-1.65L150.26,379Z"/><path class="cls-33" d="M226.69,346.3c14.79-6.32,31.16-5.6,46.47-.82.55.17,4.9,2,5.45,2.16l72.08,29.41,74.23,30.38c.23.07,2.11.83,2.34.89.85.19,1.66.5,2.52.63a24.23,24.23,0,0,0,2.83.3c2.6.12,4.91,1.66,5.27,3.75a20.73,20.73,0,0,1,.31,3.47v1.78a12.44,12.44,0,0,1-12.44,12.44h-351a12.44,12.44,0,0,1-12.44-12.44,5.36,5.36,0,0,1,.31-1.65,5.49,5.49,0,0,1,4-3c1.67-.31,3.39-1.11,5.16-1.5a19,19,0,0,1,2-.64,39.74,39.74,0,0,0,4.53-1.64l72-30.7Z"/><path class="cls-34" d="M226.68,346.57c14.79-6.29,31.15-5.59,46.46-.83.57.18,4.88,2,5.45,2.15l72.1,29.32,74.21,30.27c.24.08,2.1.83,2.34.88.85.19,1.67.5,2.52.63a27.17,27.17,0,0,0,2.83.3c2.61.12,4.91,1.65,5.28,3.74a19.64,19.64,0,0,1,.32,3.47v1.77a12.44,12.44,0,0,1-12.44,12.44h-351a12.44,12.44,0,0,1-12.44-12.44,5.3,5.3,0,0,1,.31-1.64,5.5,5.5,0,0,1,3.95-3c1.67-.32,3.38-1.12,5.17-1.51a19.61,19.61,0,0,1,2-.63,39.74,39.74,0,0,0,4.54-1.62l72-30.59Z"/><path class="cls-35" d="M226.66,346.85c14.79-6.28,31.15-5.59,46.46-.85.59.18,4.87,2,5.45,2.15l72.12,29.22,74.2,30.17c.24.07,2.09.82,2.34.87.85.19,1.66.5,2.52.62a26.59,26.59,0,0,0,2.83.29c2.6.13,4.9,1.66,5.28,3.73a18.82,18.82,0,0,1,.33,3.47v1.78a12.43,12.43,0,0,1-12.44,12.43h-351A12.43,12.43,0,0,1,62.34,418.3a5.67,5.67,0,0,1,.3-1.65,5.53,5.53,0,0,1,3.94-3c1.66-.33,3.37-1.13,5.16-1.51a19.79,19.79,0,0,1,2-.63,36.67,36.67,0,0,0,4.54-1.6l72-30.47Z"/><path class="cls-36" d="M226.64,347.12c14.8-6.25,31.16-5.58,46.46-.85.6.18,4.85,1.94,5.45,2.13l72.14,29.13,74.18,30.06c.26.08,2.09.81,2.34.87.85.19,1.67.49,2.52.61s1.89.24,2.83.29c2.6.13,4.9,1.65,5.29,3.72a18.73,18.73,0,0,1,.34,3.47v1.77a12.44,12.44,0,0,1-12.44,12.44h-351a12.44,12.44,0,0,1-12.44-12.44,5.73,5.73,0,0,1,.3-1.65,5.55,5.55,0,0,1,3.91-3.06c1.66-.34,3.37-1.14,5.16-1.52a17.39,17.39,0,0,1,2-.61,37.7,37.7,0,0,0,4.54-1.59l72.08-30.36Z"/><path class="cls-37" d="M226.62,347.39c14.81-6.22,31.16-5.57,46.46-.86.62.19,4.83,1.93,5.46,2.13l72.15,29,74.17,29.95c.26.08,2.08.8,2.34.86.85.18,1.66.48,2.52.6s1.88.24,2.82.29c2.6.13,4.89,1.65,5.3,3.71a17.8,17.8,0,0,1,.35,3.46v1.77a12.44,12.44,0,0,1-12.44,12.44h-351a12.44,12.44,0,0,1-12.44-12.44,5.73,5.73,0,0,1,.3-1.65,5.54,5.54,0,0,1,3.88-3.08c1.66-.35,3.37-1.14,5.16-1.53a20.43,20.43,0,0,1,2-.6c.55.06,4-1.41,4.55-1.57l72.11-30.25Z"/><path class="cls-38" d="M226.6,347.66c14.81-6.2,31.16-5.56,46.46-.86.64.19,4.82,1.91,5.46,2.11l72.16,28.95,74.16,29.84c.27.08,2.07.8,2.35.86.84.18,1.66.47,2.51.59s1.89.23,2.83.28c2.59.14,4.88,1.65,5.3,3.71a17.7,17.7,0,0,1,.36,3.45v1.78a12.44,12.44,0,0,1-12.44,12.43h-351a12.44,12.44,0,0,1-12.44-12.43,5.94,5.94,0,0,1,.29-1.65,5.54,5.54,0,0,1,3.87-3.11c1.65-.36,3.36-1.15,5.15-1.53a19.61,19.61,0,0,1,2-.6c.57.06,4-1.38,4.56-1.55l72.14-30.14Z"/><path class="cls-39" d="M226.59,347.94c14.81-6.18,31.15-5.56,46.45-.88.66.2,4.8,1.9,5.46,2.11L350.68,378l74.15,29.73c.27.09,2.06.79,2.34.85.85.19,1.66.47,2.52.59s1.88.23,2.82.28c2.59.14,4.88,1.65,5.31,3.7a16.88,16.88,0,0,1,.37,3.45v1.77a12.43,12.43,0,0,1-12.44,12.43h-351a12.43,12.43,0,0,1-12.44-12.43,6,6,0,0,1,.29-1.65,5.54,5.54,0,0,1,3.84-3.13c1.64-.37,3.36-1.16,5.15-1.54a17.4,17.4,0,0,1,2-.58c.57.06,4-1.37,4.55-1.54l72.18-30Z"/><path class="cls-40" d="M226.57,348.21c14.82-6.15,31.16-5.55,46.45-.89.68.21,4.79,1.89,5.46,2.1l72.2,28.76,74.13,29.63c.29.08,2.06.78,2.35.84.84.18,1.66.47,2.51.58s1.89.22,2.82.27c2.59.15,4.88,1.65,5.31,3.7a15.57,15.57,0,0,1,.39,3.44v1.77a12.44,12.44,0,0,1-12.44,12.44h-351a12.44,12.44,0,0,1-12.44-12.44,6.48,6.48,0,0,1,.28-1.65,5.6,5.6,0,0,1,3.83-3.15c1.63-.38,3.35-1.17,5.14-1.54a18,18,0,0,1,2-.58c.59.07,4-1.34,4.56-1.52l72.21-29.92Z"/><path class="cls-41" d="M226.55,348.48c14.82-6.13,31.16-5.54,46.46-.89.69.21,4.76,1.87,5.45,2.09l72.22,28.66,74.12,29.52c.29.09,2.05.78,2.34.84.84.18,1.67.46,2.52.57s1.88.22,2.82.27c2.58.15,4.86,1.65,5.31,3.69a15.43,15.43,0,0,1,.4,3.44v1.77a12.44,12.44,0,0,1-12.44,12.43h-351a12.44,12.44,0,0,1-12.44-12.43,6.14,6.14,0,0,1,.28-1.66,5.62,5.62,0,0,1,3.8-3.17c1.63-.39,3.35-1.18,5.14-1.55a17.88,17.88,0,0,1,2-.56c.61.06,4-1.33,4.57-1.51l72.24-29.81Z"/><path class="cls-42" d="M226.53,348.75c14.83-6.1,31.16-5.53,46.46-.9.71.22,4.74,1.86,5.46,2.08l72.23,28.57,74.1,29.41c.3.1,2,.77,2.35.84.84.18,1.66.45,2.51.56s1.88.21,2.82.27c2.58.15,4.86,1.64,5.32,3.67a14.93,14.93,0,0,1,.41,3.44v1.77a12.43,12.43,0,0,1-12.44,12.43h-351a12.43,12.43,0,0,1-12.44-12.43,6.4,6.4,0,0,1,.27-1.65,5.64,5.64,0,0,1,3.78-3.2c1.63-.4,3.35-1.19,5.14-1.55a15.64,15.64,0,0,1,2-.56c.62.07,4-1.3,4.56-1.49l72.28-29.7Z"/><path class="cls-43" d="M226.52,349c14.82-6.08,31.15-5.53,46.45-.91.73.22,4.73,1.84,5.46,2.07l72.25,28.47L424.77,408c.3.09,2,.76,2.34.83.84.17,1.67.44,2.52.55s1.88.21,2.81.26c2.58.16,4.86,1.64,5.33,3.67a14.32,14.32,0,0,1,.42,3.43v1.77a12.44,12.44,0,0,1-12.44,12.44h-351a12.44,12.44,0,0,1-12.44-12.44,6.47,6.47,0,0,1,.27-1.65,5.64,5.64,0,0,1,3.76-3.22c1.62-.41,3.34-1.19,5.13-1.56a17.41,17.41,0,0,1,2-.55c.64.07,4-1.28,4.57-1.47l72.31-29.58Z"/><path class="cls-44" d="M226.5,349.3c14.83-6.06,31.15-5.52,46.45-.92.74.22,4.71,1.83,5.46,2.06l72.27,28.38L424.75,408c.32.1,2,.76,2.35.82.84.18,1.66.45,2.51.55s1.88.2,2.82.26c2.57.16,4.85,1.64,5.33,3.66a14.32,14.32,0,0,1,.43,3.43v1.76a12.44,12.44,0,0,1-12.44,12.44h-351A12.44,12.44,0,0,1,62.34,418.5a6.54,6.54,0,0,1,.27-1.65,5.61,5.61,0,0,1,3.73-3.24c1.62-.42,3.34-1.2,5.13-1.56a16,16,0,0,1,2-.54c.66.07,4-1.26,4.58-1.46l72.35-29.47Z"/><path class="cls-45" d="M226.48,349.57c14.84-6,31.16-5.51,46.45-.93.76.23,4.7,1.82,5.46,2.06L350.68,379l74.06,29.09c.32.1,2,.76,2.34.82a24.54,24.54,0,0,0,2.52.53c.93.11,1.88.21,2.81.26,2.57.16,4.85,1.64,5.34,3.66a13.7,13.7,0,0,1,.44,3.42v1.77A12.43,12.43,0,0,1,425.75,431h-351a12.43,12.43,0,0,1-12.44-12.43,7,7,0,0,1,.26-1.66,5.65,5.65,0,0,1,3.71-3.26c1.62-.43,3.34-1.21,5.13-1.57a17.88,17.88,0,0,1,2-.53c.68.07,3.94-1.24,4.59-1.44l72.38-29.36Z"/><path class="cls-46" d="M226.46,349.84c14.84-6,31.16-5.5,46.45-.93.78.23,4.68,1.8,5.47,2l72.29,28.2,74.05,29c.33.1,2,.74,2.35.81.84.17,1.66.43,2.51.52s1.88.2,2.82.26c2.56.16,4.83,1.64,5.34,3.65a13.64,13.64,0,0,1,.45,3.42v1.76A12.44,12.44,0,0,1,425.75,431h-351a12.44,12.44,0,0,1-12.44-12.44,7,7,0,0,1,.26-1.66,5.68,5.68,0,0,1,3.69-3.28c1.6-.44,3.33-1.22,5.12-1.57a14.49,14.49,0,0,1,2-.52c.69.07,3.92-1.22,4.58-1.43l72.42-29.25Z"/><path class="cls-47" d="M226.45,350.12c14.84-6,31.15-5.5,46.44-.95.8.24,4.66,1.79,5.47,2l72.31,28.1,74,28.87c.33.11,2,.74,2.34.81.84.17,1.67.42,2.52.51s1.88.2,2.81.26c2.56.16,4.83,1.63,5.35,3.64a13.12,13.12,0,0,1,.46,3.41v1.76A12.44,12.44,0,0,1,425.75,431h-351a12.44,12.44,0,0,1-12.44-12.44,7.47,7.47,0,0,1,.25-1.65,5.71,5.71,0,0,1,3.67-3.31c1.6-.45,3.33-1.23,5.12-1.58a16,16,0,0,1,2-.51c.71.07,3.91-1.2,4.59-1.41L150.43,381Z"/><path class="cls-48" d="M226.43,350.39c14.85-6,31.15-5.49,46.44-1,.82.25,4.65,1.78,5.47,2l72.33,28,74,28.77c.35.1,2,.73,2.35.8a24.22,24.22,0,0,0,2.51.5c.94.1,1.88.19,2.81.25,2.57.17,4.83,1.64,5.36,3.64a12.69,12.69,0,0,1,.47,3.4v1.77A12.44,12.44,0,0,1,425.75,431h-351A12.44,12.44,0,0,1,62.34,418.6a7.56,7.56,0,0,1,.25-1.66,5.71,5.71,0,0,1,3.64-3.33c1.6-.46,3.33-1.24,5.13-1.58a15.43,15.43,0,0,1,2-.51c.72.08,3.9-1.17,4.6-1.39l72.48-29Z"/><path class="cls-49" d="M226.41,350.66c14.85-5.93,31.15-5.48,46.44-1,.84.25,4.63,1.76,5.47,2l72.35,27.91,74,28.66c.35.11,2,.72,2.34.79a24.4,24.4,0,0,0,2.52.5c.93.09,1.88.18,2.81.25,2.56.17,4.82,1.63,5.36,3.63a12.64,12.64,0,0,1,.48,3.4v1.76a12.43,12.43,0,0,1-12.44,12.43h-351a12.43,12.43,0,0,1-12.44-12.43,7.64,7.64,0,0,1,.24-1.66,5.75,5.75,0,0,1,3.63-3.35A51.4,51.4,0,0,1,71.33,412a14,14,0,0,1,2-.49c.73.08,3.88-1.16,4.59-1.38l72.52-28.92Z"/><path class="cls-50" d="M226.39,350.93c14.86-5.91,31.16-5.47,46.44-1,.86.26,4.61,1.75,5.47,2l72.37,27.82,74,28.55c.36.11,2,.72,2.35.79a24.17,24.17,0,0,0,2.51.49c.94.09,1.88.18,2.81.24a6.43,6.43,0,0,1,5.37,3.62,16.7,16.7,0,0,1,.49,3.4v1.76a12.44,12.44,0,0,1-12.44,12.44h-351a12.44,12.44,0,0,1-12.44-12.44,7.64,7.64,0,0,1,.24-1.66,5.77,5.77,0,0,1,3.6-3.37A48.9,48.9,0,0,1,71.3,412a15.5,15.5,0,0,1,2-.49c.75.08,3.87-1.13,4.6-1.36l72.55-28.8Z"/><path class="cls-51" d="M226.38,351.21c14.85-5.89,31.15-5.47,46.43-1,.88.25,4.6,1.73,5.48,2L350.67,380l74,28.45c.36.11,2,.71,2.34.78a24.31,24.31,0,0,0,2.52.48l2.8.24a6.47,6.47,0,0,1,5.38,3.61,15.94,15.94,0,0,1,.5,3.4v1.76a12.44,12.44,0,0,1-12.44,12.43h-351a12.44,12.44,0,0,1-12.44-12.43,8.2,8.2,0,0,1,.23-1.66,5.81,5.81,0,0,1,3.58-3.4,46.62,46.62,0,0,1,5.12-1.6,15.46,15.46,0,0,1,2-.48c.77.09,3.87-1.11,4.61-1.34l72.58-28.69Z"/><path class="cls-52" d="M226.36,351.48c14.86-5.87,31.15-5.46,46.43-1,.89.26,4.58,1.71,5.48,2l72.4,27.63,74,28.34c.38.12,2,.71,2.35.78.84.16,1.66.39,2.51.47l2.81.24a6.48,6.48,0,0,1,5.38,3.6,16,16,0,0,1,.51,3.39v1.76a12.43,12.43,0,0,1-12.44,12.43h-351a12.43,12.43,0,0,1-12.44-12.43,8.3,8.3,0,0,1,.23-1.66,5.81,5.81,0,0,1,3.56-3.42,41.4,41.4,0,0,1,5.11-1.6,13,13,0,0,1,2-.47c.79.08,3.86-1.09,4.61-1.33l72.62-28.58Z"/><path class="cls-53" d="M226.34,351.75c14.87-5.84,31.15-5.45,46.43-1,.91.27,4.57,1.7,5.48,2l72.41,27.53,74,28.23c.38.12,1.95.7,2.34.78a24.23,24.23,0,0,0,2.52.46l2.8.23a6.55,6.55,0,0,1,5.39,3.6,15.17,15.17,0,0,1,.52,3.39v1.75a12.44,12.44,0,0,1-12.44,12.44h-351a12.44,12.44,0,0,1-12.44-12.44,8.4,8.4,0,0,1,.23-1.66,5.81,5.81,0,0,1,3.53-3.44A39.27,39.27,0,0,1,71.21,412a14.05,14.05,0,0,1,2-.46c.8.09,3.84-1.07,4.61-1.31l72.65-28.47Z"/><path class="cls-54" d="M226.32,352c14.87-5.81,31.15-5.44,46.43-1,.93.27,4.55,1.68,5.48,2l72.43,27.45,73.94,28.12c.39.12,1.95.69,2.35.77a24,24,0,0,0,2.51.45l2.8.23a6.56,6.56,0,0,1,5.4,3.59,15.09,15.09,0,0,1,.53,3.38v1.75a12.44,12.44,0,0,1-12.44,12.44h-351a12.44,12.44,0,0,1-12.44-12.44,9.09,9.09,0,0,1,.22-1.66,5.86,5.86,0,0,1,3.51-3.46A37.79,37.79,0,0,1,71.18,412a14.29,14.29,0,0,1,2-.44c.82.08,3.83-1.05,4.62-1.3l72.69-28.36Z"/><path class="cls-55" d="M226.31,352.3c14.87-5.8,31.14-5.44,46.42-1,.95.28,4.53,1.67,5.49,2l72.44,27.35,73.93,28c.39.12,1.94.69,2.34.76a24.19,24.19,0,0,0,2.52.45l2.8.22a6.6,6.6,0,0,1,5.4,3.59,14.55,14.55,0,0,1,.54,3.37v1.76a12.43,12.43,0,0,1-12.44,12.43h-351a12.43,12.43,0,0,1-12.44-12.43,8.2,8.2,0,0,1,.22-1.66,5.81,5.81,0,0,1,3.49-3.48,33.48,33.48,0,0,1,5.1-1.63,14,14,0,0,1,2-.44c.84.09,3.82-1,4.62-1.28L150.52,382Z"/><path class="cls-56" d="M226.29,352.57c14.88-5.77,31.15-5.43,46.42-1,1,.28,4.52,1.65,5.49,1.95l72.46,27.26,73.91,27.91c.41.12,1.93.67,2.35.75a24,24,0,0,0,2.51.44c.94.06,1.88.15,2.8.22a6.63,6.63,0,0,1,5.41,3.58,14,14,0,0,1,.55,3.37v1.75a12.44,12.44,0,0,1-12.44,12.44h-351a12.44,12.44,0,0,1-12.44-12.44,9.08,9.08,0,0,1,.21-1.66,5.85,5.85,0,0,1,3.47-3.5,33.49,33.49,0,0,1,5.1-1.64,14.09,14.09,0,0,1,2-.43c.85.09,3.8-1,4.62-1.26l72.76-28.14Z"/><path class="cls-57" d="M226.27,352.84c14.88-5.74,31.15-5.42,46.42-1,1,.28,4.5,1.64,5.49,1.95l72.48,27.16,73.9,27.8c.41.13,1.92.67,2.34.75a21.75,21.75,0,0,0,2.52.43c.93.06,1.87.14,2.8.22a6.67,6.67,0,0,1,5.41,3.56,14.05,14.05,0,0,1,.56,3.37v1.75a12.44,12.44,0,0,1-12.44,12.44h-351A12.44,12.44,0,0,1,62.34,418.8a9.08,9.08,0,0,1,.21-1.66A5.86,5.86,0,0,1,66,413.62a31.41,31.41,0,0,1,5.1-1.64,12.84,12.84,0,0,1,2-.42c.86.09,3.79-1,4.63-1.25l72.79-28Z"/><path class="cls-58" d="M226.25,353.11c14.89-5.72,31.15-5.41,46.42-1,1,.29,4.49,1.63,5.49,1.94l72.5,27.07,73.88,27.69c.42.13,1.92.67,2.35.75a21.86,21.86,0,0,0,2.51.41c.94.06,1.88.15,2.8.22a6.7,6.7,0,0,1,5.42,3.56,13.43,13.43,0,0,1,.57,3.37v1.75a12.44,12.44,0,0,1-12.44,12.43h-351a12.44,12.44,0,0,1-12.44-12.43,10.16,10.16,0,0,1,.2-1.67A5.93,5.93,0,0,1,66,413.62,30.05,30.05,0,0,1,71.06,412a14.32,14.32,0,0,1,2-.41c.88.1,3.79-1,4.64-1.22l72.82-27.92Z"/><path class="cls-59" d="M226.23,353.39c14.9-5.7,31.15-5.41,46.42-1.05,1,.29,4.47,1.61,5.49,1.93l72.52,27,73.87,27.59c.42.13,1.91.66,2.34.74a21.65,21.65,0,0,0,2.52.4c.93.06,1.87.14,2.79.22a6.75,6.75,0,0,1,5.43,3.55,13,13,0,0,1,.58,3.36v1.75a12.44,12.44,0,0,1-12.44,12.44h-351a12.44,12.44,0,0,1-12.44-12.44,10.3,10.3,0,0,1,.2-1.67,6,6,0,0,1,3.4-3.56A28.11,28.11,0,0,1,71,412a12,12,0,0,1,2-.4c.9.09,3.78-.95,4.64-1.21l72.86-27.81Z"/><path class="cls-60" d="M226.22,353.66c14.89-5.67,31.14-5.4,46.41-1.06,1.05.3,4.45,1.6,5.5,1.92l72.53,26.88,73.85,27.48c.44.13,1.9.65,2.35.73a19.84,19.84,0,0,0,2.51.4c.94.06,1.88.14,2.8.21a6.79,6.79,0,0,1,5.43,3.55,12.93,12.93,0,0,1,.59,3.35v1.75a12.44,12.44,0,0,1-12.44,12.44h-351a12.44,12.44,0,0,1-12.44-12.44,11.4,11.4,0,0,1,.19-1.66,6,6,0,0,1,3.38-3.59A27.36,27.36,0,0,1,71,412a14.12,14.12,0,0,1,2-.39c.91.1,3.76-.93,4.64-1.19l72.89-27.7Z"/><path class="cls-61" d="M226.2,353.93c14.9-5.65,31.14-5.39,46.41-1.06,1.06.3,4.44,1.58,5.5,1.91l72.54,26.78,73.85,27.37c.44.14,1.89.65,2.34.73a19.68,19.68,0,0,0,2.52.39c.93.05,1.87.13,2.79.21a6.81,6.81,0,0,1,5.44,3.54,12.47,12.47,0,0,1,.6,3.35v1.75a12.44,12.44,0,0,1-12.44,12.43h-351A12.44,12.44,0,0,1,62.34,418.9a10.16,10.16,0,0,1,.19-1.67,6,6,0,0,1,3.36-3.61A25.64,25.64,0,0,1,71,412a13.1,13.1,0,0,1,2-.39c.93.1,3.75-.9,4.65-1.17l72.92-27.59Z"/><path class="cls-62" d="M226.18,354.2c14.9-5.62,31.15-5.38,46.41-1.07,1.08.3,4.42,1.57,5.5,1.9l72.56,26.69L424.48,409c.45.14,1.89.64,2.35.72a19.77,19.77,0,0,0,2.51.38q1.41.07,2.79.21a6.86,6.86,0,0,1,5.45,3.53,12,12,0,0,1,.61,3.34v1.75a12.43,12.43,0,0,1-12.44,12.43h-351a12.43,12.43,0,0,1-12.44-12.43,10.16,10.16,0,0,1,.19-1.67,6,6,0,0,1,3.33-3.63A25.53,25.53,0,0,1,71,412a11.69,11.69,0,0,1,2-.37c1,.1,3.74-.89,4.65-1.16l73-27.48Z"/><path class="cls-63" d="M226.16,354.48c14.91-5.6,31.15-5.38,46.41-1.09,1.1.31,4.41,1.56,5.5,1.9l72.58,26.6L424.47,409c.45.14,1.88.64,2.34.72a19.63,19.63,0,0,0,2.52.37c.93,0,1.87.12,2.79.2a6.88,6.88,0,0,1,5.45,3.53,12,12,0,0,1,.62,3.34v1.74a12.44,12.44,0,0,1-12.44,12.44h-351a12.44,12.44,0,0,1-12.44-12.44,11.53,11.53,0,0,1,.18-1.67,6.05,6.05,0,0,1,3.31-3.65A24.31,24.31,0,0,1,70.92,412a12.64,12.64,0,0,1,2-.37c1,.1,3.72-.86,4.65-1.14l73-27.37Z"/><path class="cls-64" d="M226.15,354.75c14.91-5.58,31.14-5.37,46.4-1.09,1.12.31,4.39,1.54,5.51,1.88l72.59,26.51,73.8,27c.47.15,1.87.63,2.35.72a21.67,21.67,0,0,0,2.51.36c.94,0,1.87.11,2.79.2a6.9,6.9,0,0,1,5.46,3.52,11.56,11.56,0,0,1,.63,3.33V419a12.44,12.44,0,0,1-12.44,12.44h-351A12.44,12.44,0,0,1,62.34,419a11.39,11.39,0,0,1,.18-1.66,6.07,6.07,0,0,1,3.29-3.68,23.48,23.48,0,0,1,5.08-1.68,11.6,11.6,0,0,1,2-.35c1,.1,3.71-.85,4.66-1.13l73-27.26Z"/><path class="cls-65" d="M226.13,355c14.91-5.55,31.14-5.36,46.4-1.1,1.14.32,4.37,1.53,5.51,1.88l72.61,26.41,73.79,26.94c.47.14,1.86.62,2.34.7a19.6,19.6,0,0,0,2.52.36c.93,0,1.87.11,2.78.19a7,7,0,0,1,5.47,3.51,11.31,11.31,0,0,1,.64,3.34V419a12.43,12.43,0,0,1-12.44,12.43h-351A12.43,12.43,0,0,1,62.34,419a12.94,12.94,0,0,1,.17-1.67,6.13,6.13,0,0,1,3.27-3.7,22.12,22.12,0,0,1,5.08-1.68,11.76,11.76,0,0,1,2-.35c1,.1,3.71-.82,4.66-1.11l73.07-27.15Z"/><path class="cls-66" d="M226.11,355.29c14.92-5.52,31.14-5.35,46.4-1.11,1.16.33,4.36,1.52,5.51,1.87l72.63,26.32,73.77,26.83c.48.15,1.86.62,2.35.7a18,18,0,0,0,2.51.35c.94,0,1.87.1,2.79.19a7,7,0,0,1,5.47,3.5,11.19,11.19,0,0,1,.65,3.33V419a12.44,12.44,0,0,1-12.44,12.44h-351A12.44,12.44,0,0,1,62.34,419a11.52,11.52,0,0,1,.17-1.67,6.14,6.14,0,0,1,3.24-3.72,21.65,21.65,0,0,1,5.08-1.69,13,13,0,0,1,2-.34c1,.11,3.7-.8,4.67-1.09l73.1-27Z"/><path class="cls-67" d="M226.09,355.57c14.93-5.51,31.14-5.35,46.4-1.12,1.18.32,4.34,1.5,5.51,1.86l72.65,26.22,73.76,26.73c.49.15,1.84.61,2.34.69a19.55,19.55,0,0,0,2.52.34c.93,0,1.87.1,2.78.19a7,7,0,0,1,5.48,3.49,10.89,10.89,0,0,1,.66,3.32V419a12.44,12.44,0,0,1-12.44,12.44h-351A12.44,12.44,0,0,1,62.34,419a13.3,13.3,0,0,1,.16-1.67,6.19,6.19,0,0,1,3.23-3.74,21,21,0,0,1,5.07-1.69,11.84,11.84,0,0,1,2-.33c1,.11,3.68-.78,4.67-1.08l73.13-26.92Z"/><path class="cls-68" d="M226.08,355.84c14.92-5.48,31.13-5.34,46.39-1.13,1.2.33,4.33,1.48,5.51,1.85l72.67,26.13,73.74,26.62c.5.15,1.84.6,2.35.69a19.61,19.61,0,0,0,2.51.33c.94,0,1.87.09,2.78.18a7.07,7.07,0,0,1,5.49,3.49,10.55,10.55,0,0,1,.67,3.32v1.74a12.44,12.44,0,0,1-12.44,12.43h-351a12.44,12.44,0,0,1-12.44-12.43,9.29,9.29,0,0,1,.16-1.68,5.26,5.26,0,0,1,3.2-3.76,20.56,20.56,0,0,1,5.07-1.7,11.82,11.82,0,0,1,2-.32c1,.11,3.67-.76,4.67-1.06l73.17-26.81Z"/><path class="cls-69" d="M226.06,356.11c14.93-5.45,31.13-5.33,46.39-1.13,1.22.33,4.31,1.46,5.52,1.84l72.67,26,73.74,26.51c.5.16,1.83.6,2.34.69a19.51,19.51,0,0,0,2.52.32c.93,0,1.87.09,2.78.18A7.07,7.07,0,0,1,437.5,414a10,10,0,0,1,.69,3.31v1.74a12.44,12.44,0,0,1-12.44,12.44h-351a12.44,12.44,0,0,1-12.44-12.44,9.18,9.18,0,0,1,.16-1.67,5.28,5.28,0,0,1,3.17-3.79,20.17,20.17,0,0,1,5.07-1.71,11.8,11.8,0,0,1,2.05-.31c1.06.12,3.66-.73,4.68-1l73.2-26.7Z"/><path class="cls-70" d="M226,356.38c14.93-5.43,31.13-5.32,46.39-1.14,1.24.34,4.29,1.45,5.52,1.83L350.64,383l73.72,26.41c.51.15,1.83.59,2.35.67a16.55,16.55,0,0,0,2.51.31c.94,0,1.87.09,2.78.18a7.13,7.13,0,0,1,5.49,3.48,9.94,9.94,0,0,1,.7,3.31v1.73a12.44,12.44,0,0,1-12.44,12.44h-351A12.44,12.44,0,0,1,62.34,419.1a10.17,10.17,0,0,1,.15-1.67,5.28,5.28,0,0,1,3.16-3.81,19.2,19.2,0,0,1,5.06-1.71,11.9,11.9,0,0,1,2.06-.3c1.07.11,3.64-.72,4.68-1L150.68,384Z"/><path class="cls-71" d="M226,356.66c14.94-5.41,31.14-5.32,46.39-1.16,1.25.35,4.28,1.44,5.52,1.83l72.71,25.85,73.71,26.29c.52.16,1.81.59,2.34.67a16.5,16.5,0,0,0,2.52.3c.93,0,1.87.09,2.78.18a7.16,7.16,0,0,1,5.49,3.47,9.65,9.65,0,0,1,.71,3.3v1.74a12.44,12.44,0,0,1-12.44,12.43h-351a12.44,12.44,0,0,1-12.44-12.43,9.21,9.21,0,0,1,.15-1.68,5.28,5.28,0,0,1,3.13-3.83,18.74,18.74,0,0,1,5.06-1.72,11.88,11.88,0,0,1,2.06-.29c1.09.12,3.64-.69,4.68-1l73.27-26.48Z"/><path class="cls-72" d="M226,356.93c14.94-5.39,31.13-5.32,46.38-1.16,1.27.34,4.26,1.42,5.52,1.81l72.73,25.76,73.69,26.18c.53.17,1.81.58,2.35.67a16.5,16.5,0,0,0,2.51.29c.94,0,1.87.08,2.78.18a7.17,7.17,0,0,1,5.5,3.46,9.37,9.37,0,0,1,.72,3.29v1.74a12.43,12.43,0,0,1-12.44,12.43h-351a12.43,12.43,0,0,1-12.44-12.43,10.29,10.29,0,0,1,.14-1.68,5.33,5.33,0,0,1,3.11-3.85,18.08,18.08,0,0,1,5.06-1.72,11,11,0,0,1,2.06-.28,17.87,17.87,0,0,0,4.69-1l73.3-26.37Z"/><path class="cls-73" d="M226,357.2c14.94-5.36,31.13-5.31,46.38-1.17,1.29.35,4.25,1.41,5.53,1.81l72.74,25.66,73.68,26.08c.53.16,1.8.57,2.35.66a17.53,17.53,0,0,0,2.51.28c.93,0,1.86.08,2.77.17a7.24,7.24,0,0,1,5.51,3.45,9.22,9.22,0,0,1,.73,3.3v1.73a12.44,12.44,0,0,1-12.44,12.44h-351a12.44,12.44,0,0,1-12.44-12.44,10.17,10.17,0,0,1,.14-1.67,5.32,5.32,0,0,1,3.09-3.88,17.91,17.91,0,0,1,5.05-1.73,12,12,0,0,1,2.06-.27,17.13,17.13,0,0,0,4.7-1l73.33-26.26Z"/><path class="cls-74" d="M226,357.48c14.95-5.34,31.13-5.31,46.38-1.18,1.31.35,4.23,1.39,5.53,1.79l72.76,25.57,73.66,26a24.11,24.11,0,0,0,2.35.66,16.46,16.46,0,0,0,2.51.27c.94,0,1.87.07,2.78.17a7.25,7.25,0,0,1,5.51,3.44,9.18,9.18,0,0,1,.74,3.29v1.73a12.44,12.44,0,0,1-12.44,12.44h-351a12.44,12.44,0,0,1-12.44-12.44,11.41,11.41,0,0,1,.13-1.67,5.34,5.34,0,0,1,3.07-3.9,17.3,17.3,0,0,1,5-1.73,12,12,0,0,1,2.07-.27,16.81,16.81,0,0,0,4.7-1l73.36-26.14Z"/><path class="cls-75" d="M226,357.75c15-5.32,31.13-5.3,46.38-1.19,1.33.36,4.21,1.38,5.53,1.79l72.78,25.47,73.65,25.87a24.05,24.05,0,0,0,2.35.65,16.31,16.31,0,0,0,2.51.26c.93,0,1.86.07,2.77.16a7.32,7.32,0,0,1,5.52,3.44,8.93,8.93,0,0,1,.75,3.29v1.73a12.43,12.43,0,0,1-12.44,12.43h-351a12.43,12.43,0,0,1-12.44-12.43,11.55,11.55,0,0,1,.13-1.68,5.33,5.33,0,0,1,3-3.92,17,17,0,0,1,5-1.74,11.15,11.15,0,0,1,2.07-.25,16.72,16.72,0,0,0,4.7-.95l73.4-26Z"/><path class="cls-76" d="M225.93,358c15-5.29,31.13-5.29,46.39-1.2,1.34.36,4.19,1.37,5.52,1.78L350.63,384l73.64,25.76a22.12,22.12,0,0,0,2.35.64,16.31,16.31,0,0,0,2.51.26,25.14,25.14,0,0,1,2.77.16,7.33,7.33,0,0,1,5.53,3.43,8.7,8.7,0,0,1,.76,3.28v1.73a12.44,12.44,0,0,1-12.44,12.44h-351a12.44,12.44,0,0,1-12.44-12.44,13.28,13.28,0,0,1,.12-1.68,5.37,5.37,0,0,1,3-3.94,16.21,16.21,0,0,1,5.05-1.74,11.72,11.72,0,0,1,2.06-.25,16.47,16.47,0,0,0,4.71-.93l73.44-25.92Z"/><path class="cls-77" d="M225.92,358.29c15-5.26,31.12-5.28,46.38-1.2,1.36.36,4.17,1.35,5.52,1.77l72.81,25.28,73.63,25.65a21.49,21.49,0,0,0,2.35.64,16.29,16.29,0,0,0,2.51.25,21.24,21.24,0,0,1,2.77.16,7.38,7.38,0,0,1,5.53,3.42,8.43,8.43,0,0,1,.77,3.27v1.73a12.44,12.44,0,0,1-12.44,12.44h-351a12.44,12.44,0,0,1-12.44-12.44,11.52,11.52,0,0,1,.12-1.67,5.37,5.37,0,0,1,3-4,16,16,0,0,1,5.05-1.75,10.94,10.94,0,0,1,2.07-.23,16.52,16.52,0,0,0,4.71-.92l73.47-25.81Z"/><path class="cls-78" d="M225.9,358.57c15-5.25,31.12-5.28,46.38-1.22,1.38.37,4.16,1.34,5.53,1.76l72.82,25.19,73.61,25.55a24,24,0,0,0,2.35.63,16.28,16.28,0,0,0,2.51.24,22.92,22.92,0,0,1,2.77.15,7.43,7.43,0,0,1,5.54,3.42,8.44,8.44,0,0,1,.78,3.27v1.73a12.44,12.44,0,0,1-12.44,12.43h-351a12.44,12.44,0,0,1-12.44-12.43,11.56,11.56,0,0,1,.12-1.68,5.38,5.38,0,0,1,3-4,15.4,15.4,0,0,1,5-1.75,10.94,10.94,0,0,1,2.07-.23,16,16,0,0,0,4.71-.9L150.77,385Z"/><path class="cls-79" d="M225.88,358.84c15-5.22,31.12-5.27,46.38-1.22,1.4.37,4.14,1.32,5.53,1.75l72.84,25.09,73.6,25.44a21.44,21.44,0,0,0,2.35.63,16.27,16.27,0,0,0,2.51.23,21,21,0,0,1,2.76.15,7.44,7.44,0,0,1,5.55,3.41,8.23,8.23,0,0,1,.79,3.26v1.73a12.44,12.44,0,0,1-12.44,12.44h-351a12.44,12.44,0,0,1-12.44-12.44,13.17,13.17,0,0,1,.11-1.68,5.4,5.4,0,0,1,3-4,15.28,15.28,0,0,1,5-1.76,11.92,11.92,0,0,1,2.07-.22,15.75,15.75,0,0,0,4.72-.88l73.54-25.59Z"/><path class="cls-80" d="M225.86,359.11c15-5.19,31.12-5.26,46.38-1.23,1.42.37,4.12,1.31,5.53,1.74l72.86,25L424.21,410a19.91,19.91,0,0,0,2.35.63,16.26,16.26,0,0,0,2.51.22,21.06,21.06,0,0,1,2.77.14,7.52,7.52,0,0,1,5.55,3.4,8.08,8.08,0,0,1,.8,3.27v1.72a12.44,12.44,0,0,1-12.44,12.44h-351a12.44,12.44,0,0,1-12.44-12.44,13.29,13.29,0,0,1,.11-1.68,5.41,5.41,0,0,1,2.93-4,14.84,14.84,0,0,1,5-1.76,10.31,10.31,0,0,1,2.07-.21,15.8,15.8,0,0,0,4.73-.87l73.57-25.48Z"/><path class="cls-81" d="M225.85,359.38c15-5.17,31.11-5.25,46.37-1.24,1.43.38,4.11,1.3,5.53,1.74l72.88,24.91L424.2,410a20.78,20.78,0,0,0,2.35.61,15.11,15.11,0,0,0,2.51.22,19.4,19.4,0,0,1,2.76.14,7.53,7.53,0,0,1,5.56,3.39,7.88,7.88,0,0,1,.81,3.26v1.73a12.44,12.44,0,0,1-12.44,12.43h-351a12.44,12.44,0,0,1-12.44-12.43,15.65,15.65,0,0,1,.1-1.69,5.46,5.46,0,0,1,2.91-4.05,14.64,14.64,0,0,1,5-1.77,11,11,0,0,1,2.08-.2,15.4,15.4,0,0,0,4.72-.85l73.61-25.36Z"/><path class="cls-82" d="M225.83,359.66a80.07,80.07,0,0,1,46.37-1.25c1.45.38,4.09,1.28,5.54,1.72L350.63,385l73.55,25.11a19.32,19.32,0,0,0,2.35.61,16.24,16.24,0,0,0,2.51.21,18.1,18.1,0,0,1,2.77.14,7.59,7.59,0,0,1,5.56,3.38,7.74,7.74,0,0,1,.82,3.26v1.72a12.43,12.43,0,0,1-12.44,12.43h-351a12.43,12.43,0,0,1-12.44-12.43,15.32,15.32,0,0,1,.1-1.68,5.43,5.43,0,0,1,2.89-4.08,14.11,14.11,0,0,1,5-1.77,10.32,10.32,0,0,1,2.08-.19,15.45,15.45,0,0,0,4.73-.84l73.64-25.25Z"/><path class="cls-83" d="M225.81,359.93a80.49,80.49,0,0,1,46.37-1.26c1.47.39,4.07,1.27,5.54,1.72l72.91,24.72,73.54,25a19.32,19.32,0,0,0,2.35.61,14.08,14.08,0,0,0,2.51.19,19.4,19.4,0,0,1,2.76.14,6.58,6.58,0,0,1,6.4,6.63v1.72a12.44,12.44,0,0,1-12.44,12.44h-351A12.44,12.44,0,0,1,62.34,419.4a15.48,15.48,0,0,1,.09-1.68,5.46,5.46,0,0,1,2.87-4.1,13.93,13.93,0,0,1,5-1.78,11.1,11.1,0,0,1,2.08-.18,15.19,15.19,0,0,0,4.74-.82l73.67-25.14Z"/><path class="cls-84" d="M225.79,360.2a80.83,80.83,0,0,1,46.37-1.27c1.49.39,4.06,1.25,5.54,1.72l72.92,24.62,73.53,24.9a19.75,19.75,0,0,0,2.35.6A14.14,14.14,0,0,0,429,411a19.33,19.33,0,0,1,2.76.14,7.67,7.67,0,0,1,5.58,3.37,7.49,7.49,0,0,1,.84,3.24v1.72a12.44,12.44,0,0,1-12.44,12.44h-351a12.44,12.44,0,0,1-12.44-12.44,15.62,15.62,0,0,1,.09-1.68,5.47,5.47,0,0,1,2.84-4.12,13.44,13.44,0,0,1,5-1.78,10.41,10.41,0,0,1,2.09-.18,14.82,14.82,0,0,0,4.73-.8l73.71-25Z"/><path class="cls-85" d="M225.78,360.47a81.14,81.14,0,0,1,46.36-1.27c1.51.39,4,1.23,5.54,1.7l72.94,24.53,73.52,24.79a17.22,17.22,0,0,0,2.35.6A15.06,15.06,0,0,0,429,411a18,18,0,0,1,2.76.13,7.74,7.74,0,0,1,5.58,3.37,7.33,7.33,0,0,1,.85,3.24v1.72a12.43,12.43,0,0,1-12.44,12.43h-351a12.43,12.43,0,0,1-12.44-12.43c0-.11,0-1.59.08-1.69a5.47,5.47,0,0,1,2.83-4.13,13.18,13.18,0,0,1,5-1.8,10.35,10.35,0,0,1,2.09-.16,14.87,14.87,0,0,0,4.74-.79L150.84,386Z"/><path class="cls-86" d="M225.76,360.75a81.49,81.49,0,0,1,46.36-1.29c1.53.4,4,1.22,5.54,1.7l73,24.43,73.5,24.69a19.19,19.19,0,0,0,2.35.58A14.12,14.12,0,0,0,429,411a18,18,0,0,1,2.76.13,7.75,7.75,0,0,1,5.59,3.36,7.17,7.17,0,0,1,.86,3.23v1.72a12.44,12.44,0,0,1-12.44,12.44h-351a12.44,12.44,0,0,1-12.44-12.44c0-.1,0-1.6.08-1.68a5.49,5.49,0,0,1,2.8-4.16,13,13,0,0,1,5-1.81,11.19,11.19,0,0,1,2.09-.15,14.63,14.63,0,0,0,4.75-.77l73.77-24.81Z"/><path class="cls-87" d="M225.74,361a81.76,81.76,0,0,1,46.36-1.29c1.55.39,4,1.2,5.55,1.68l73,24.34,73.49,24.58a17.52,17.52,0,0,0,2.35.58,13.18,13.18,0,0,0,2.51.16,15.65,15.65,0,0,1,2.75.13,7.81,7.81,0,0,1,5.6,3.35,7,7,0,0,1,.87,3.23v1.71a12.44,12.44,0,0,1-12.44,12.44h-351a12.44,12.44,0,0,1-12.44-12.44c0-.09,0-1.6.08-1.68a5.48,5.48,0,0,1,2.77-4.18,12.71,12.71,0,0,1,5-1.81,11.25,11.25,0,0,1,2.09-.15,14.3,14.3,0,0,0,4.75-.75l73.82-24.7Z"/><path class="cls-88" d="M225.72,361.29a82.2,82.2,0,0,1,46.36-1.3c1.57.4,4,1.19,5.55,1.68l73,24.25,73.47,24.46a17.52,17.52,0,0,0,2.35.58,14.1,14.1,0,0,0,2.51.15,16.81,16.81,0,0,1,2.76.12,7.9,7.9,0,0,1,5.6,3.34,7.06,7.06,0,0,1,.88,3.23v1.72A12.43,12.43,0,0,1,425.75,432h-351a12.43,12.43,0,0,1-12.44-12.43c0-.1,0-1.61.07-1.69a5.51,5.51,0,0,1,2.76-4.2,12.47,12.47,0,0,1,5-1.82,10.49,10.49,0,0,1,2.1-.13,14.33,14.33,0,0,0,4.75-.74l73.85-24.59Z"/><path class="cls-89" d="M225.71,361.56a82.61,82.61,0,0,1,46.35-1.31c1.59.41,4,1.18,5.55,1.67l73,24.16,73.46,24.36a17.12,17.12,0,0,0,2.35.57,14,14,0,0,0,2.51.14,14.75,14.75,0,0,1,2.75.12,7.92,7.92,0,0,1,5.61,3.33,6.91,6.91,0,0,1,.89,3.22v1.72A12.44,12.44,0,0,1,425.75,432h-351a12.44,12.44,0,0,1-12.44-12.44c0-.09,0-1.61.07-1.69a5.5,5.5,0,0,1,2.73-4.22,12.18,12.18,0,0,1,5-1.82,11.29,11.29,0,0,1,2.1-.13A14.12,14.12,0,0,0,77,411l73.88-24.47Z"/><path class="cls-90" d="M225.69,361.84A82.7,82.7,0,0,1,272,360.52c1.61.41,4,1.16,5.55,1.66l73,24.06,73.44,24.25a16.09,16.09,0,0,0,2.35.57,14.08,14.08,0,0,0,2.51.13,15.63,15.63,0,0,1,2.75.11,8,8,0,0,1,5.62,3.33,6.77,6.77,0,0,1,.9,3.22v1.71A12.44,12.44,0,0,1,425.75,432h-351a12.44,12.44,0,0,1-12.44-12.44c0-.08,0-1.62.06-1.69a5.54,5.54,0,0,1,2.72-4.24,11.94,11.94,0,0,1,5-1.83,10.35,10.35,0,0,1,2.09-.11A14.16,14.16,0,0,0,77,411l73.91-24.36Z"/><path class="cls-91" d="M225.67,362.11A83.16,83.16,0,0,1,272,360.78c1.63.41,4,1.15,5.56,1.65l73,24,73.43,24.14a14.86,14.86,0,0,0,2.35.56,14,14,0,0,0,2.51.13,14.76,14.76,0,0,1,2.75.11,8,8,0,0,1,5.62,3.32,6.63,6.63,0,0,1,.91,3.21v1.72A12.44,12.44,0,0,1,425.75,432h-351a12.44,12.44,0,0,1-12.44-12.43c0-.08,0-1.63.06-1.69a5.53,5.53,0,0,1,2.69-4.27,11.76,11.76,0,0,1,5-1.83,10.45,10.45,0,0,1,2.1-.11A13.84,13.84,0,0,0,77,411l74-24.25Z"/><path class="cls-92" d="M225.65,362.38A83.43,83.43,0,0,1,272,361.05c1.65.41,3.93,1.13,5.56,1.64l73.05,23.87,73.42,24a16,16,0,0,0,2.35.55,13.2,13.2,0,0,0,2.51.12,13.2,13.2,0,0,1,2.75.11,8,8,0,0,1,5.63,3.31,6.48,6.48,0,0,1,.92,3.21v1.71A12.43,12.43,0,0,1,425.75,432h-351a12.43,12.43,0,0,1-12.44-12.43c0-.07,0-1.63,0-1.69a5.57,5.57,0,0,1,2.67-4.29,11.59,11.59,0,0,1,5-1.84,11.25,11.25,0,0,1,2.1-.1,13.38,13.38,0,0,0,4.77-.67l74-24.14Z"/><path class="cls-93" d="M225.64,362.65A83.86,83.86,0,0,1,272,361.31c1.66.42,3.91,1.12,5.56,1.63l73.07,23.78L424,410.65a15.72,15.72,0,0,0,2.35.55,13.16,13.16,0,0,0,2.51.11,14,14,0,0,1,2.75.1,8.12,8.12,0,0,1,5.63,3.31,6.38,6.38,0,0,1,.93,3.2v1.71a12.44,12.44,0,0,1-12.44,12.44h-351a12.44,12.44,0,0,1-12.44-12.44c0-.06,0-1.63,0-1.69A5.59,5.59,0,0,1,65,413.63a11.26,11.26,0,0,1,5-1.84,10.49,10.49,0,0,1,2.1-.09,13.66,13.66,0,0,0,4.78-.66l74-24Z"/><path class="cls-94" d="M225.62,362.93A84.23,84.23,0,0,1,272,361.57c1.68.42,3.9,1.11,5.56,1.63l73.09,23.68L424,410.7a14.83,14.83,0,0,0,2.35.55,14.1,14.1,0,0,0,2.51.1,12.55,12.55,0,0,1,2.75.1,8.16,8.16,0,0,1,5.64,3.3,6.26,6.26,0,0,1,.94,3.2v1.71a12.44,12.44,0,0,1-12.44,12.43h-351a12.44,12.44,0,0,1-12.44-12.43c0-.06,0-1.65,0-1.7A5.6,5.6,0,0,1,65,413.63a11.15,11.15,0,0,1,5-1.85,10.49,10.49,0,0,1,2.1-.08,13.19,13.19,0,0,0,4.78-.64l74.05-23.92Z"/><path class="cls-95" d="M225.6,363.2a84.51,84.51,0,0,1,46.34-1.36c1.7.42,3.88,1.09,5.56,1.61L350.61,387,424,410.76a14.55,14.55,0,0,0,2.35.54,13.15,13.15,0,0,0,2.51.08,13.85,13.85,0,0,1,2.74.1,8.24,8.24,0,0,1,5.65,3.29,6.27,6.27,0,0,1,.95,3.2v1.71a12.43,12.43,0,0,1-12.44,12.43h-351a12.43,12.43,0,0,1-12.44-12.43c0-.05,0-1.65,0-1.69a5.63,5.63,0,0,1,2.6-4.36,10.92,10.92,0,0,1,5-1.85,10.57,10.57,0,0,1,2.11-.07,13.43,13.43,0,0,0,4.78-.63L151,387.27Z"/><path class="cls-96" d="M225.58,363.47a85,85,0,0,1,46.34-1.37c1.72.43,3.87,1.08,5.57,1.61l73.12,23.49L424,410.81a14.8,14.8,0,0,0,2.35.54,12.42,12.42,0,0,0,2.51.07,12.57,12.57,0,0,1,2.75.1,8.27,8.27,0,0,1,5.65,3.28,6.15,6.15,0,0,1,1,3.19v1.71a12.44,12.44,0,0,1-12.44,12.44h-351A12.44,12.44,0,0,1,62.34,419.7c0-.05,0-1.65,0-1.69A5.64,5.64,0,0,1,65,413.63a10.84,10.84,0,0,1,5-1.86,10.6,10.6,0,0,1,2.11-.06,13,13,0,0,0,4.79-.61L151,387.4Z"/><path class="cls-97" d="M225.56,363.74a85.37,85.37,0,0,1,46.34-1.37c1.74.42,3.85,1.06,5.57,1.59l73.14,23.41L424,410.87a13.51,13.51,0,0,0,2.35.52,12.38,12.38,0,0,0,2.51.07,12.48,12.48,0,0,1,2.74.1,8.31,8.31,0,0,1,5.66,3.27,6,6,0,0,1,1,3.19v1.7a12.44,12.44,0,0,1-12.44,12.44h-351a12.44,12.44,0,0,1-12.44-12.44s0-1.66,0-1.69a5.66,5.66,0,0,1,2.56-4.4,11.4,11.4,0,0,1,7.1-1.92,13,13,0,0,0,4.79-.59L151,387.54Z"/><path class="cls-98" d="M225.55,364a85.63,85.63,0,0,1,46.33-1.39c1.76.43,3.83,1.05,5.57,1.59l73.16,23.31,73.33,23.39a14.74,14.74,0,0,0,2.35.52,12.49,12.49,0,0,0,2.52.06,12.4,12.4,0,0,1,2.73.09,8.32,8.32,0,0,1,5.66,3.27,5.85,5.85,0,0,1,1,3.18v1.71a12.43,12.43,0,0,1-12.44,12.43h-351a12.43,12.43,0,0,1-12.44-12.43s0-1.67,0-1.7a5.67,5.67,0,0,1,2.53-4.42,10.49,10.49,0,0,1,5-1.87,10.69,10.69,0,0,1,2.12,0,12.8,12.8,0,0,0,4.79-.58L151,387.67Z"/><path class="cls-99" d="M225.53,364.29a86.12,86.12,0,0,1,46.33-1.4c1.78.44,3.82,1,5.57,1.58l73.18,23.22L423.93,411a13.51,13.51,0,0,0,2.35.52,12.38,12.38,0,0,0,2.51.05,11.9,11.9,0,0,1,2.74.09,8.36,8.36,0,0,1,5.66,3.26,5.76,5.76,0,0,1,1,3.18v1.7a12.44,12.44,0,0,1-12.44,12.44h-351a12.44,12.44,0,0,1-12.44-12.44s0-1.67,0-1.69a5.7,5.7,0,0,1,2.52-4.45,10.18,10.18,0,0,1,5-1.87,10.69,10.69,0,0,1,2.12,0,12.82,12.82,0,0,0,4.8-.56L151,387.8Z"/><path class="cls-100" d="M225.51,364.56a86.51,86.51,0,0,1,46.33-1.4c1.8.43,3.8,1,5.58,1.57l73.18,23.12L423.91,411a13.69,13.69,0,0,0,2.35.51,13.26,13.26,0,0,0,2.52,0,11.82,11.82,0,0,1,2.73.08,8.44,8.44,0,0,1,5.67,3.26,5.63,5.63,0,0,1,1,3.17v1.7a12.44,12.44,0,0,1-12.44,12.44h-351a12.44,12.44,0,0,1-12.44-12.44s0-1.67,0-1.69a5.72,5.72,0,0,1,2.49-4.47,10.09,10.09,0,0,1,5-1.88,10.71,10.71,0,0,1,2.12,0,12.39,12.39,0,0,0,4.8-.54L151,387.93Z"/><path class="cls-101" d="M225.49,364.83a86.91,86.91,0,0,1,46.33-1.41c1.82.44,3.79,1,5.58,1.56l73.2,23,73.3,23.07a13.49,13.49,0,0,0,2.35.51,12.38,12.38,0,0,0,2.51,0,11.27,11.27,0,0,1,2.73.08,8.42,8.42,0,0,1,5.68,3.25,5.56,5.56,0,0,1,1,3.16v1.71a12.44,12.44,0,0,1-12.44,12.43h-351a12.44,12.44,0,0,1-12.44-12.43s0-1.69,0-1.7a5.78,5.78,0,0,1,2.47-4.49,10,10,0,0,1,5-1.89,10.72,10.72,0,0,1,2.12,0,12.43,12.43,0,0,0,4.81-.53L151,388.06Z"/><path class="cls-102" d="M225.48,365.11a87,87,0,0,1,46.32-1.43c1.84.44,3.77,1,5.58,1.56l73.22,22.93,73.28,23a12,12,0,0,0,2.35.5,11.8,11.8,0,0,0,2.52,0,10.8,10.8,0,0,1,2.73.08,8.49,8.49,0,0,1,5.68,3.24,5.45,5.45,0,0,1,1,3.16v1.7a12.43,12.43,0,0,1-12.44,12.43h-351a12.43,12.43,0,0,1-12.44-12.43s0-1.69,0-1.7a5.78,5.78,0,0,1,2.45-4.51,9.84,9.84,0,0,1,5-1.89,10.82,10.82,0,0,1,2.13,0,12.25,12.25,0,0,0,4.81-.51l74.32-23Z"/><path class="cls-103" d="M225.46,365.38A87.48,87.48,0,0,1,271.78,364c1.86.44,3.75,1,5.58,1.54l73.24,22.84,73.27,22.86a12.59,12.59,0,0,0,2.35.49,12.38,12.38,0,0,0,2.51,0,11.28,11.28,0,0,1,2.73.07,8.61,8.61,0,0,1,5.69,3.23,5.41,5.41,0,0,1,1,3.16v1.7a12.44,12.44,0,0,1-12.44,12.44h-351a12.44,12.44,0,0,1-12.44-12.44s0-1.69,0-1.7a5.77,5.77,0,0,1,2.42-4.53,9.76,9.76,0,0,1,5-1.9,10.84,10.84,0,0,1,2.13,0,12.32,12.32,0,0,0,4.82-.5L151,388.32Z"/><path d="M425.75,432.32h-351a12.44,12.44,0,0,1-12.44-12.43v-1.7c0-4,4.63-7,9.5-6.45a12.1,12.1,0,0,0,4.82-.48l74.39-22.81,74.39-22.8a88,88,0,0,1,51.9.1l73.26,22.74,73.25,22.75a12.16,12.16,0,0,0,4.87.5c4.85-.51,9.47,2.41,9.47,6.45v1.7A12.44,12.44,0,0,1,425.75,432.32Z"/></g><path class="cls-134" d="M435.41,448.3H64.61a7.83,7.83,0,0,1-7.83-7.83V398.25a1,1,0,0,1,.71-1c12.68-3.84,191-55.25,191-55.25a3.9,3.9,0,0,0,3,0s182,52.39,191.36,55.34a.55.55,0,0,1,.37.52v42.57A7.83,7.83,0,0,1,435.41,448.3Z"/><path class="cls-106" d="M444,398.73s-86-23.31-191.78-53.9l1-.06a5.08,5.08,0,0,1-1.83.41,5.49,5.49,0,0,1-2.32-.41l1,.06C144.31,375.38,58.57,398.64,58.57,398.64s84.9-26.1,190.61-56.69l.52-.15.48.21a2.51,2.51,0,0,0,1,.18A2.69,2.69,0,0,0,252,342l.5-.21.5.15C358.88,372.58,444,398.73,444,398.73Z"/><path class="cls-107" d="M251.34,345.15a5.37,5.37,0,0,1-2.3-.41l1,.05c-51.59,14.91-98.36,28.06-132.38,37.52L61.74,397.72l55.48-16.8c33.81-10.16,80.37-24,132-38.93l.51-.15.46.2a2.66,2.66,0,0,0,1.05.19A2.53,2.53,0,0,0,252,342l.48-.2.49.15c51.67,14.95,98.33,28.82,132.2,39l55.59,16.84-56-15.44c-34.09-9.48-80.93-22.65-132.59-37.59l1-.05A5.59,5.59,0,0,1,251.34,345.15Z"/><path class="cls-108" d="M251.34,345.11a5.39,5.39,0,0,1-2.29-.41l.95.05c-50.38,14.57-96.05,27.41-129.43,36.7L64.91,396.8l55.25-16.72c33.18-10,78.66-23.48,129-38.06l.5-.14.45.2a2.5,2.5,0,0,0,1.06.18,2.57,2.57,0,0,0,.83-.18l.47-.2.48.14c50.45,14.6,96,28.14,129.26,38.12l55.37,16.76-55.79-15.39c-33.45-9.31-79.19-22.17-129.63-36.75l.94-.06A5.57,5.57,0,0,1,251.34,345.11Z"/><path class="cls-109" d="M251.33,345.07a5.45,5.45,0,0,1-2.26-.4l.92.05c-49.12,14.2-93.7,26.74-126.45,35.85L68.08,395.89l55.07-16.66c32.55-9.76,76.94-23,126.06-37.17l.48-.14.44.19a2.46,2.46,0,0,0,1.08.19,2.43,2.43,0,0,0,.85-.19l.45-.19.47.14c49.19,14.23,93.66,27.45,126.29,37.24L434.45,396l-55.59-15.35c-32.82-9.13-77.47-21.7-126.65-35.91l.92-.05A5.6,5.6,0,0,1,251.33,345.07Z"/><path class="cls-110" d="M251.33,345a5.27,5.27,0,0,1-2.25-.4l.9.05C154.25,372.35,76.05,393.63,71.25,395c4.77-1.42,82.25-25.17,178-52.87l.47-.14.43.19a2.56,2.56,0,0,0,1.95,0l.44-.19.46.14c95.86,27.74,173.54,51.54,178.31,53-4.81-1.35-83.23-22.69-179.06-50.39l.89-.05A5.27,5.27,0,0,1,251.33,345Z"/><path class="cls-111" d="M251.33,345a5.34,5.34,0,0,1-2.23-.39l.87,0c-93.21,26.94-169.56,47.73-175.55,49.41,6-1.78,81.61-24.94,174.81-51.91l.46-.14.41.18a2.54,2.54,0,0,0,2,0l.42-.17.44.12c93.35,27,169.19,50.24,175.16,52-6-1.68-82.57-22.53-175.88-49.5l.87,0A5.23,5.23,0,0,1,251.33,345Z"/><path class="cls-112" d="M251.33,345a5.2,5.2,0,0,1-2.22-.39l.85.05c-90.69,26.21-165.18,46.51-172.37,48.53,7.15-2.14,81-24.72,171.65-51l.45-.13.4.18a2.81,2.81,0,0,0,1.12.2,2.61,2.61,0,0,0,.89-.2l.42-.17.42.12c90.83,26.28,164.84,48.93,172,51.06-7.2-2-81.9-22.38-172.7-48.62l.84-.05A5.16,5.16,0,0,1,251.33,345Z"/><path class="cls-113" d="M251.33,344.91a5.1,5.1,0,0,1-2.2-.39l.82.05c-88.17,25.48-160.81,45.3-169.2,47.65,8.35-2.49,80.34-24.5,168.5-50l.43-.13.39.17a2.74,2.74,0,0,0,1.15.21,2.77,2.77,0,0,0,.9-.21l.4-.16.41.12c88.31,25.55,160.49,47.61,168.85,50.11-8.41-2.36-81.25-22.23-169.53-47.75l.82,0A5.18,5.18,0,0,1,251.33,344.91Z"/><path class="cls-114" d="M251.32,344.88a5.22,5.22,0,0,1-2.18-.39l.8,0c-85.65,24.76-156.43,44.09-166,46.77,9.54-2.84,79.7-24.27,165.34-49.05l.42-.12.38.16a2.66,2.66,0,0,0,1.16.2,2.8,2.8,0,0,0,.91-.2l.39-.16.4.11c85.79,24.83,156.14,46.31,165.69,49.16C409,388.71,338,369.32,252.26,344.54l.79-.05A5.34,5.34,0,0,1,251.32,344.88Z"/><path class="cls-115" d="M251.32,344.84a5,5,0,0,1-2.16-.39l.77.05c-83.14,24-152.06,42.87-162.84,45.89,10.73-3.2,79.06-24.05,162.18-48.11l.41-.11.37.16a2.71,2.71,0,0,0,1.17.2,2.94,2.94,0,0,0,.93-.2l.37-.16.39.11c83.27,24.09,151.79,45,162.53,48.2-10.81-3-79.93-21.92-163.17-46l.77-.05A5.09,5.09,0,0,1,251.32,344.84Z"/><path class="cls-116" d="M251.32,344.8a5,5,0,0,1-2.15-.38l.75,0c-80.62,23.3-147.68,41.66-159.66,45,11.92-3.55,78.42-23.82,159-47.15l.4-.11.35.15a2.67,2.67,0,0,0,1.19.21,2.73,2.73,0,0,0,.94-.21l.37-.15.37.11c80.75,23.36,147.44,43.69,159.37,47.25-12-3.36-79.27-21.78-160-45.11l.74,0A5,5,0,0,1,251.32,344.8Z"/><path class="cls-117" d="M251.32,344.76a4.89,4.89,0,0,1-2.13-.38l.71,0C171.81,367,106.6,384.87,93.43,388.56c13.11-3.92,77.78-23.6,155.87-46.2l.37-.11.35.15a2.85,2.85,0,0,0,2.16,0l.35-.15.36.1C331.12,365,396,384.74,409.1,388.65,395.9,385,330.5,367,252.29,344.42l.72,0A4.8,4.8,0,0,1,251.32,344.76Z"/><path class="cls-118" d="M251.32,344.72a4.89,4.89,0,0,1-2.12-.37l.69,0C174.32,366.23,111,383.62,96.6,387.64c14.29-4.27,77.14-23.38,152.71-45.25l.36-.1.33.14a3,3,0,0,0,1.22.22,2.9,2.9,0,0,0,1-.22l.34-.14.35.1c75.7,21.91,138.74,41.07,153.05,45.35-14.39-4-77.94-21.48-153.62-43.35l.68,0A5,5,0,0,1,251.32,344.72Z"/><path class="cls-119" d="M251.32,344.68a4.9,4.9,0,0,1-2.11-.37l.67,0c-73,21.11-134.55,38-150.12,42.37,15.49-4.62,76.51-23.15,149.56-44.29l.35-.1.32.14a3,3,0,0,0,1.24.22,3.31,3.31,0,0,0,1-.22l.32-.14.34.1c73.18,21.18,134.39,39.76,149.89,44.39-15.59-4.37-77.28-21.32-150.44-42.47l.66,0A4.8,4.8,0,0,1,251.32,344.68Z"/><path class="cls-120" d="M251.31,344.65a4.94,4.94,0,0,1-2.08-.37l.64,0c-70.54,20.39-130.18,36.8-146.94,41.5,16.68-5,75.87-22.93,146.4-43.34l.34-.1.3.13a2.95,2.95,0,0,0,2.25,0l.31-.13.33.1c70.66,20.44,130,38.45,146.74,43.43-16.79-4.7-76.63-21.17-147.27-41.59l.63,0A5.11,5.11,0,0,1,251.31,344.65Z"/><path class="cls-121" d="M251.31,344.61a5,5,0,0,1-2.07-.37l.62,0c-68,19.66-125.81,35.59-143.76,40.62,17.86-5.33,75.23-22.7,143.24-42.39l.32-.09.3.13a2.92,2.92,0,0,0,1.27.22,3,3,0,0,0,1-.22l.3-.13.31.09C321,362.22,378.54,379.65,396.43,385c-18-5-76-21-144.09-40.71l.61,0A4.91,4.91,0,0,1,251.31,344.61Z"/><path class="cls-122" d="M251.31,344.57a4.86,4.86,0,0,1-2.05-.36l.59,0c-65.5,18.93-121.44,34.37-140.58,39.73,19-5.68,74.59-22.47,140.08-41.43l.31-.09.28.12a2.89,2.89,0,0,0,1.29.23,2.79,2.79,0,0,0,1-.23l.29-.12.3.09c65.62,19,121.35,35.84,140.42,41.53-19.18-5.37-75.3-20.87-140.91-39.83l.58,0A4.86,4.86,0,0,1,251.31,344.57Z"/><path class="cls-123" d="M251.31,344.53a4.87,4.87,0,0,1-2-.36l.57,0c-63,18.2-117.08,33.16-137.4,38.86,20.23-6,73.95-22.26,136.92-40.48l.3-.09.27.12a2.91,2.91,0,0,0,1.3.23,3.2,3.2,0,0,0,1-.23l.27-.12.29.09c63.1,18.26,117,34.53,137.26,40.57-20.37-5.7-74.64-20.71-137.73-38.95l.56,0A4.62,4.62,0,0,1,251.31,344.53Z"/><path class="cls-124" d="M251.31,344.49a4.63,4.63,0,0,1-2-.36l.54,0c-60.46,17.48-112.71,32-134.22,38,21.41-6.39,73.31-22,133.76-39.52l.28-.09.26.11a3.21,3.21,0,0,0,1.32.24,3.25,3.25,0,0,0,1.05-.24l.26-.11.28.08c60.58,17.53,112.65,33.23,134.1,39.63-21.56-6-74-20.57-134.55-38.07l.53,0A4.55,4.55,0,0,1,251.31,344.49Z"/><path class="cls-125" d="M251.31,344.45a4.8,4.8,0,0,1-2-.35l.52,0c-57.94,16.74-108.34,30.74-131,37.09,22.59-6.74,72.67-21.8,130.6-38.57l.27-.08.25.11a3.28,3.28,0,0,0,1.34.24,3.38,3.38,0,0,0,1.06-.24l.25-.1.26.07c58.06,16.8,108.31,31.92,130.94,38.67C361,375,310.44,360.91,252.38,344.13l.51,0A4.61,4.61,0,0,1,251.31,344.45Z"/><path class="cls-126" d="M251.3,344.42a4.7,4.7,0,0,1-2-.36l.49,0c-55.43,16-104,29.53-127.87,36.22,23.77-7.09,72-21.58,127.45-37.62l.26-.08.23.11a3.16,3.16,0,0,0,2.43,0l.24-.1.24.07c55.55,16.07,104,30.61,127.79,37.72-23.94-6.71-72.65-20.27-128.19-36.32l.48,0A4.78,4.78,0,0,1,251.3,344.42Z"/><path class="cls-127" d="M251.3,344.38a4.72,4.72,0,0,1-2-.35l.47,0c-52.91,15.29-99.62,28.32-124.69,35.34,25-7.44,71.39-21.35,124.29-36.66l.25-.07.22.09a3.17,3.17,0,0,0,1.37.24,3.13,3.13,0,0,0,1.09-.24l.22-.09.23.06c53,15.35,99.64,29.31,124.64,36.77-25.14-7-72-20.11-125-35.44l.46,0A4.79,4.79,0,0,1,251.3,344.38Z"/><path class="cls-128" d="M251.3,344.34a4.59,4.59,0,0,1-2-.35l.44,0c-50.55,14.6-95.31,27.12-121.51,34.46,26.08-7.79,70.6-21.09,121.14-35.72l.23-.06.2.09a3.31,3.31,0,0,0,2.49,0l.21-.09.22.06c50.64,14.65,95.34,28,121.48,35.81C348,371.21,303,358.65,252.41,344l.43,0A4.48,4.48,0,0,1,251.3,344.34Z"/><path class="cls-129" d="M251.3,344.3a4.61,4.61,0,0,1-1.94-.34l.41,0c-48,13.87-90.94,25.91-118.32,33.58,27.25-8.13,70-20.87,118-34.76l.21-.06.2.08a3.26,3.26,0,0,0,2.52,0l.19-.08.21.06c48.1,13.92,91,26.7,118.32,34.86C343.61,370,300.52,357.88,252.42,344l.41,0A4.58,4.58,0,0,1,251.3,344.3Z"/><path class="cls-130" d="M251.3,344.26a4.4,4.4,0,0,1-1.92-.34l.38,0c-45.46,13.14-86.58,24.7-115.14,32.7C163,368.16,204,356,249.44,342.84l.2-.06.18.08a3.53,3.53,0,0,0,1.43.25,3.73,3.73,0,0,0,1.12-.25l.19-.08.19.06c45.57,13.18,86.66,25.4,115.16,33.9-28.65-8-69.92-19.63-115.48-32.8l.38,0A4.44,4.44,0,0,1,251.3,344.26Z"/><path class="cls-131" d="M251.3,344.22a4.58,4.58,0,0,1-1.91-.33l.36,0c-42.92,12.4-82.22,23.49-112,31.82,29.6-8.83,68.74-20.44,111.66-32.86l.19-.05.17.07a3.26,3.26,0,0,0,2.57,0l.18-.07.18.05c43,12.45,82.32,24.1,112,32.95-29.84-8.35-69.27-19.48-112.3-31.91l.36,0A4.52,4.52,0,0,1,251.3,344.22Z"/><path class="cls-132" d="M251.29,344.18a4.37,4.37,0,0,1-1.88-.33l.33,0c-40.38,11.67-77.87,22.28-108.78,30.94,30.76-9.18,68.12-20.21,108.5-31.9l.17-.05.16.07a3.63,3.63,0,0,0,1.46.26,3.49,3.49,0,0,0,1.15-.26l.16-.07.17.05c40.49,11.71,78,22.79,108.84,32-31-8.69-68.63-19.34-109.12-31l.34,0A4.63,4.63,0,0,1,251.29,344.18Z"/></svg>