<svg id="Layer_1" data-name="Layer 1" xmlns="http://www.w3.org/2000/svg" viewBox="0 0 53.58 43.99"><defs><style>.cls-1{fill:#1d3859;}</style></defs><g id="תיבות_אפור" data-name="תיבות אפור"><path class="cls-1" d="M53.58,37.15c-4.52,2.27-8,4.54-12.58,6.79a.86.86,0,0,1-.68-.06q-6.47-3.19-12.91-6.44a1.07,1.07,0,0,0-1.09,0q-6.45,3.26-12.91,6.45a.94.94,0,0,1-.73.06c-4.44-2.2-8-3.79-12.41-6L0,37.76C3.46,30.84,6.91,25.94,10.39,19c2.32,2.34,3.72,4,6,6.31l.57-.37q4.71-3.12,9.4-6.27a.7.7,0,0,1,.94,0c3.14,2.12,6.29,4.21,9.44,6.31l.49.31.86-.82c.56,1.1.11,1.17.68,2.28-.54.3-.48.73-.38,1.22.86,4.19,1.69,8.39,2.54,12.65,2.68-1.34,6.31-2.65,9-4C49,34.68,48,32.79,47.06,30.93a1.23,1.23,0,0,1,0-1.28c.56-1,.07-2.07.64-3.19.14.25.24.41.32.58,1.75,3.5,3.5,6,5.25,9.49.09.18.19.34.29.51ZM14.47,39.88a1.46,1.46,0,0,0,.2,0c3.06-1.53,7.12-3.05,10.17-4.6a.75.75,0,0,0,.27-.55c0-3.84.46-8.14.46-12,0-.13,0-.26-.05-.44-2.34,1.56-6.07,3.53-8.34,5.06a1,1,0,0,0-.32.58c-.58,2.82-1.14,5.64-1.71,8.46C14.92,37.53,14.7,38.69,14.47,39.88Zm13.6-17.62c0,.16,0,.23,0,.29,0,3.92-.44,8.29-.46,12.21,0,.35.18.46.44.58,2.91,1.45,6.82,2.91,9.74,4.37l.42.19c0-.07,0-.11,0-.14q-1.18-6-2.39-12a.78.78,0,0,0-.29-.42C33.25,25.8,30.42,23.83,28.07,22.26Zm-17.56.88L3.79,36.59l7.91,4,.07-.08c.87-4.32,1.75-8.64,2.6-13a.83.83,0,0,0-.23-.6c-1-1-2-2-3-3C11,23.7,10.77,23.45,10.51,23.14Z"/><path class="cls-1" d="M44.19,27.72c-.13-.21-.22-.35-.3-.51q-3.72-7.29-7.43-14.58a8.66,8.66,0,1,1,15.4.1L44.5,27.16Zm0-24.23A5.14,5.14,0,0,0,39,8.66a5.17,5.17,0,0,0,10.33.06A5.14,5.14,0,0,0,44.19,3.49Z"/></g></svg>