<svg id="Layer_1" data-name="Layer 1" xmlns="http://www.w3.org/2000/svg" viewBox="0 0 51.32 45.49"><defs><style>.cls-1{fill:#1d3859;}</style></defs><g id="תיבות_אפור" data-name="תיבות אפור"><path class="cls-1" d="M51.32,42.18a7.87,7.87,0,0,1-.56,1.37,3.89,3.89,0,0,1-3.55,1.94H20.46c-5.47,0-10.93,0-16.39,0a3.89,3.89,0,0,1-4-3.28,4.11,4.11,0,0,1,.61-2.91Q6.54,29.17,12.39,19q4.89-8.44,9.76-16.89a4,4,0,0,1,7,0L33,8.66Q41.8,23.95,50.61,39.24a15.74,15.74,0,0,1,.71,1.63Zm-4-.69L25.67,4,4,41.49Z"/><path class="cls-1" d="M27.5,24.16c-.32,1.31-.61,2.57-.94,3.82a1.18,1.18,0,0,0,.21,1.1,21.51,21.51,0,0,1,1.32,2,2.62,2.62,0,0,1,.35,1.16c0,.93,0,1.87,0,2.8a1.27,1.27,0,0,1-.71,1.23,1.12,1.12,0,0,1-1.26-.14A1.4,1.4,0,0,1,26,34.87c0-.75,0-1.5,0-2.25a1.06,1.06,0,0,0-.14-.56C25.17,31,24.47,30,23.76,29c0,0-.07-.06-.15-.12-.23,1-.43,1.87-.66,2.78a2.19,2.19,0,0,1-.36.81c-.94,1.17-1.9,2.32-2.87,3.47a1.15,1.15,0,0,1-1.25.42,1.06,1.06,0,0,1-.86-1A2,2,0,0,1,18,34.2c.71-.94,1.51-1.82,2.24-2.75a2.28,2.28,0,0,0,.46-.92c.61-2.6,1.18-5.21,1.77-7.83a2.43,2.43,0,0,0,0-.3,1.15,1.15,0,0,0-1,.56c-.47.75-1,1.46-1.51,2.18a1.19,1.19,0,0,1-1.2.56,1,1,0,0,1-.95-.83,1.59,1.59,0,0,1,.15-1c.65-1,1.36-2,2.07-3a1.4,1.4,0,0,1,.68-.47,10.81,10.81,0,0,1,4.16-.7,3.26,3.26,0,0,1,1.57.52c1,.73,1.92,1.59,2.89,2.38a2.82,2.82,0,0,0,.9.49c.91.26,1.83.47,2.75.71a1.22,1.22,0,0,1,1,1.1,1.08,1.08,0,0,1-.7,1.19,1.84,1.84,0,0,1-.93.05c-1.07-.24-2.14-.5-3.19-.81A5.28,5.28,0,0,1,28,24.6,3.63,3.63,0,0,1,27.5,24.16Z"/><path class="cls-1" d="M28.16,14.8a2.83,2.83,0,1,1-2.87,2.8A2.83,2.83,0,0,1,28.16,14.8Z"/><path class="cls-1" d="M26.09,39.44h-4.6l.6-2.58h3.17a.35.35,0,0,1,.27.21C25.73,37.85,25.9,38.63,26.09,39.44Z"/><path class="cls-1" d="M18.76,36.86l-.62,2.59h-4.4a2.67,2.67,0,0,1,.19-.28c.63-.69,1.27-1.37,1.92-2.05a.69.69,0,0,1,.45-.24C17.1,36.85,17.9,36.86,18.76,36.86Z"/><path class="cls-1" d="M29.42,39.42l-.6-2.55c.9,0,1.74,0,2.58,0a.39.39,0,0,1,.24.15l2.24,2.39Z"/></g></svg>