<svg id="Layer_1" data-name="Layer 1" xmlns="http://www.w3.org/2000/svg" viewBox="0 0 86.13 36.02"><defs><style>.cls-1{fill:#2f486b;}.cls-2{fill:#fff;}</style></defs><path class="cls-1" d="M.37,32.49a1.36,1.36,0,0,0,1.16.92C1.2,32.71.84,32.41.37,32.49Z"/><path class="cls-1" d="M1.54,33.42h0Z"/><path class="cls-1" d="M85.81,1l-.36.05A.51.51,0,0,0,85.81,1Z"/><path class="cls-1" d="M22.58,35.5l.06-1.2c1,0,.3,1.38,1.26,1.08.37-1.7,1.58.18,1.91-.73,0,.14.46.19.43.72.14-.92.48-.21.77-.45.11-.25-.08-.27-.16-.55l.68-.33c.26.3.32.84,0,.94,1.76.33,10.22,1.21,12.11.75-.24-.69-.83-.22-1-1.31.5-.62.74.21,1-.43.19,1.62,1.1.39,1.48,2l.15-.92.25.57c2.2-1,.5-.47,2.45-.26,1.14-.14,1.67-1.42,2.3-.94-.09,0-.34-.58,0-.81,0,.81.78-.58.93.23.28-.1,1.22,0,.9-1.1.16.55,1,.78.49,1.26.28,0,.56.19.76,0l-.36-.31c.94-.16,1.46.69,2.07-.31l-.34-.44c.56-.07,1-.15,1.26,1l-.59.33a3.43,3.43,0,0,0,2.29-.68l-.28,0c1-1.09,6.21-2,7.12-3.37L60,29.29l.79-.71c-.09,0-.38,2.76-.46,2.48,1.69-.08,10.49-.74,12-.17.63.48.11,1.35.1,1.49.77-.32.33-.9,1-.83.17.15,0,.67-.14.79.28-.1.55.19.57-.21-.36-.3-.21-1.36-.36-2l.84.09,0,.66c.19,0,.48-1.81,1.3-1.46,1.39.29,2.9.06,4.3.21a1.24,1.24,0,0,1-.61.87c.19,0,.47-.08.65.21-.34-.71.58-.47.32-.77,1-1.63,2.35-.14,3.25-1.25.08-1.46,1.93-25.12,1.93-26.86.28,0,.56.06.65.21a.61.61,0,0,0-.92-.37l0,.93c-.67.32-.16-.56-.81-.49,0-.77.57-.93,1.1-1-.48-.09-1-.65-1.15.19-.46-.32,0-.93-.5-1.26-.39.22-.89,1-1.34.52V.39c-1.08-.79-1.66,1.15-2.64.37l.1-.25c-.35-.44-1,.15-1.66-.32.18.15.33.7,0,.8C77.5.5,77,1,76.48.39L76,1.14c-2.53-.15-12.49.91-15,1l.1-.12c-3.86.38-11.79.32-15.77,1.35-.62-.74-1.47-.56-2.12-.77.36.31.24.83,0,.8-2-.09-.13.51-2.12.82-2.28.69-11-.09-13-.72-1.09,1.08-2.45.26-3.52,1l.11-.26c-1.14.41-7.63-.59-9-.2l.18.15c-1.16.67-1-.51-1.92-.88a2,2,0,0,1-1.26,2l0-.27c-.57.2-1.87,1.26-2.82,1.42l0-.66C9,6.49,7.55,6.2,7,6.27,5.69,6,3.69,4.83,2,5.71L.84,3.82.67,4s-1.8,22.9.49,27.78l0,.66.46-.09c.54.33.79-.44.75.22l-.74-.08c.54.2.16.55,0,.92a1.37,1.37,0,0,1,.63.35c.1-.26-.08-.28-.17-.42.3-.23.7-.86,1.06-.55.56.06,0,1.07.69,1.15,3.44.51,6.77,1.28,10.24,1.13.08.27,0,.26-.12.39,1-.29,2-.18,2.93-.48a2.35,2.35,0,0,1,.42,1C17.07,35.41,22.49,35.36,22.58,35.5Z"/><path class="cls-2" d="M25,25.27V15.46l-.19-1.76h2.3l.19,1.76v9.81Z"/><path class="cls-2" d="M30.49,17a1.23,1.23,0,0,1-1-.48,2.24,2.24,0,0,1-.37-1.38,3.15,3.15,0,0,1,.54-1.82A4,4,0,0,1,31.25,12l.5.9a2.79,2.79,0,0,0-1.05.79,1.77,1.77,0,0,0-.36,1.12L30.42,16l-.75-1a1.87,1.87,0,0,1,.39-.22,1.07,1.07,0,0,1,.43-.09,1.24,1.24,0,0,1,.82.28.9.9,0,0,1,.34.75A1.09,1.09,0,0,1,30.49,17Zm3.62,0a1.23,1.23,0,0,1-1-.48,2.24,2.24,0,0,1-.37-1.38,3.15,3.15,0,0,1,.54-1.82A4,4,0,0,1,34.88,12l.49.9a2.79,2.79,0,0,0-1,.79A1.76,1.76,0,0,0,34,14.8L34.05,16l-.75-1a1.57,1.57,0,0,1,.38-.22,1.07,1.07,0,0,1,.43-.09,1.24,1.24,0,0,1,.82.28.9.9,0,0,1,.35.75,1.14,1.14,0,0,1-.33.86A1.16,1.16,0,0,1,34.11,17Z"/><path class="cls-2" d="M37.24,22.27v-4.1l.32-1h2v5.1Zm5.33,0V16.42a1.08,1.08,0,0,0-.28-.84,1.14,1.14,0,0,0-.79-.26H37.34V13.7h4.78a3.37,3.37,0,0,1,1.42.29,2.13,2.13,0,0,1,1,.9,3.2,3.2,0,0,1,.36,1.63v5.75Z"/><path class="cls-2" d="M50.25,22.27V16.42a1.12,1.12,0,0,0-.28-.84,1.14,1.14,0,0,0-.79-.26H46.06V13.7H49.8a3.4,3.4,0,0,1,1.42.29,2.18,2.18,0,0,1,1,.9,3.2,3.2,0,0,1,.36,1.63v5.75Z"/><path class="cls-2" d="M58.22,22.27V16.42a1.08,1.08,0,0,0-.28-.84,1.13,1.13,0,0,0-.8-.26H54V13.7h3.77A3.4,3.4,0,0,1,59.2,14a2.11,2.11,0,0,1,1,.9,3.21,3.21,0,0,1,.35,1.63v5.75Zm-4.21,0V20.65h7.58v1.62Z"/></svg>