<svg id="Layer_1" data-name="Layer 1" xmlns="http://www.w3.org/2000/svg" viewBox="0 0 414.96 52.6"><defs><style>.cls-1{fill:#1d1d1b;stroke:#1d1d1b;stroke-miterlimit:10;stroke-width:0.25px;}</style></defs><path class="cls-1" d="M97.44,8,94.86,13.8a28.48,28.48,0,0,1-4.4,6.49L90,20.15a9.74,9.74,0,0,0,1.19-1.87c.12-.24.42-.91.92-2L95.4,8.85Zm4.12,3.09a3.34,3.34,0,0,1-.19,1.09l-.51-.21a3.73,3.73,0,0,0,.17-1.07c0-.41-.15-.62-.44-.62a1,1,0,0,0-.43.1,7,7,0,0,0-3,2.82A8.05,8.05,0,0,0,96,17.35c0,.86.23,1.28.68,1.28a2,2,0,0,0,1.5-.84,12.34,12.34,0,0,0,1-1.46l.4.25c-1,1.69-2,2.54-3,2.54a1.7,1.7,0,0,1-1.47-.87,3.12,3.12,0,0,1-.47-1.67A6.88,6.88,0,0,1,96.42,12a5.35,5.35,0,0,1,4.24-2.19.75.75,0,0,1,.65.44A1.65,1.65,0,0,1,101.56,11.12Z"/><path class="cls-1" d="M120.45.12a1.75,1.75,0,0,1,0,.65c-.13,0-.84.17-2.14.38A7.6,7.6,0,0,0,115,2.27a6.39,6.39,0,0,0-2,2.58L109.6,12a8.4,8.4,0,0,1,1.54-.35l-.22.45a3.64,3.64,0,0,0-1.8.77,21.61,21.61,0,0,1-1.4,2.72A16.33,16.33,0,0,1,106,18.16a2.9,2.9,0,0,1-2.12,1.16.8.8,0,0,1-.7-.38,1.46,1.46,0,0,1-.2-.78q0-2.68,4.06-4.69l3-6.07a33.1,33.1,0,0,1,3.09-5.18A4.25,4.25,0,0,1,115.39,1c.46-.12,1.35-.28,2.69-.49ZM106.74,14.34a20,20,0,0,0-2.15,1.6,3.1,3.1,0,0,0-1.16,2.22c0,.49.11.73.33.73.9,0,1.7-.95,2.4-2.87C106.3,15.59,106.5,15,106.74,14.34Z"/><path class="cls-1" d="M119.58,10.62a5,5,0,0,1-1.07,3,10.07,10.07,0,0,1-2.16,2.09,7.07,7.07,0,0,1-2.74,1.38l0,.5q0,.93.81.93A4.19,4.19,0,0,0,117,17.29,8.53,8.53,0,0,0,118.94,15l.39.31q-2.13,3.81-5.1,3.81a2,2,0,0,1-1.44-.61,1.91,1.91,0,0,1-.62-1.4,7.33,7.33,0,0,1,1.63-4.49,10.84,10.84,0,0,1,2.13-2.08,5,5,0,0,1,2.7-1.25.82.82,0,0,1,.74.46A1.78,1.78,0,0,1,119.58,10.62Zm-.64-.31a.4.4,0,0,0-.45-.45,3.32,3.32,0,0,0-2.09,1.25,9,9,0,0,0-1.48,2,12.87,12.87,0,0,0-1.19,3.39c1-.35,2.29-1.51,4-3.5A4.31,4.31,0,0,0,118.94,10.31Z"/><path class="cls-1" d="M140.6,13a3,3,0,0,1-.11.87,8.64,8.64,0,0,1-2,3.44,4.91,4.91,0,0,1-3.6,1.74c-.88,0-1.45-.67-1.73-2-1,1.53-1.53,2.35-1.63,2.48a13.23,13.23,0,0,1-2,2,1.71,1.71,0,0,1-.54-.31,6,6,0,0,0,1.66-2.22l3.22-7.38.38-.17.68.86c1.26-1.38,2.42-2.07,3.5-2.07a1.9,1.9,0,0,1,1.68.94A3.22,3.22,0,0,1,140.6,13Zm-1-1.36a.88.88,0,0,0-.33-.68,1.1,1.1,0,0,0-.74-.29,3.19,3.19,0,0,0-2.16,1.11,6.9,6.9,0,0,0-1,1.17l-.76,1.39-.6,1.12a3.05,3.05,0,0,0-.29,1.23,4,4,0,0,0,.15,1,1,1,0,0,0,.43.62,1.23,1.23,0,0,0,.75.25,1.62,1.62,0,0,0,.9-.47Q139.63,15,139.63,11.6Z"/><path class="cls-1" d="M150.6,10.92a1.12,1.12,0,0,1-.12.46,4.83,4.83,0,0,1-1.76,1.87,22,22,0,0,1-2.35,1.23q1.35.62,1.35,1.44a2.35,2.35,0,0,1-1.05,1.61,9,9,0,0,1-1.74,1.14l-2.19,1.07-.06-.52c.09-.09.67-.5,1.73-1.23s1.79-1.64,1.79-2.43c0-.44-.18-.66-.53-.66a11.9,11.9,0,0,0-1.64.61l-.26-.39,1.74-.88a10.09,10.09,0,0,0,2.35-1.64,3.36,3.36,0,0,0,1.32-2.27c0-.35-.16-.52-.49-.52a5,5,0,0,0-2.46.87l-.79.54q-.81.45-1.92,1.2a1.48,1.48,0,0,0-.53,1.05c0,.14.08.2.24.2a3.59,3.59,0,0,0,2.49-1.43l.48.43a4.69,4.69,0,0,1-3,1.42.59.59,0,0,1-.67-.68,1.31,1.31,0,0,1,.1-.5,5.63,5.63,0,0,1,2.64-2.63,8,8,0,0,1,3.84-1,1.38,1.38,0,0,1,1.08.5A1.68,1.68,0,0,1,150.6,10.92Z"/><path class="cls-1" d="M158.56,8,156,13.8a28.39,28.39,0,0,1-4.39,6.49l-.49-.14a9.28,9.28,0,0,0,1.19-1.87c.12-.24.43-.91.92-2l3.31-7.43Zm4.13,3.09a3.36,3.36,0,0,1-.2,1.09L162,12a3.73,3.73,0,0,0,.17-1.07c0-.41-.15-.62-.43-.62a1,1,0,0,0-.44.1,7,7,0,0,0-3,2.82,8.15,8.15,0,0,0-1.12,4.12c0,.86.23,1.28.68,1.28a2,2,0,0,0,1.5-.84,11.22,11.22,0,0,0,1-1.46l.4.25c-1,1.69-2,2.54-2.95,2.54a1.7,1.7,0,0,1-1.47-.87,3.11,3.11,0,0,1-.46-1.67A6.87,6.87,0,0,1,157.54,12a5.37,5.37,0,0,1,4.25-2.19.73.73,0,0,1,.64.44A1.67,1.67,0,0,1,162.69,11.12Z"/><path class="cls-1" d="M177.92,8.22l-1.83,4.28a4.94,4.94,0,0,1-2.84,2.72l-.38-.22c.39-.5.64-.83.76-1a4.68,4.68,0,0,0,.6-1.09l1.46-4.06,1.74-1Z"/><path class="cls-1" d="M190.09,10.9a8.79,8.79,0,0,1-1.5,4.52,17.78,17.78,0,0,1-3.14,3.8l-.46-.44a17.28,17.28,0,0,0,3.4-8,.53.53,0,0,0-.15-.48.66.66,0,0,0-.51-.21,1.32,1.32,0,0,0-.63.23,19.7,19.7,0,0,0-3,2.31l-1.23,3a25.15,25.15,0,0,1-3.48,6.12,6.16,6.16,0,0,1-1.6,1.49,4.35,4.35,0,0,1-2.16.47,4.11,4.11,0,0,1-1.76-.65,3.51,3.51,0,0,1-1.42-1.18l.54-.57a4.47,4.47,0,0,0,1.35,1,3.65,3.65,0,0,0,1.6.44,3.6,3.6,0,0,0,2.88-1.65,9.62,9.62,0,0,0,1.24-2.36c.29-.8.59-1.6.89-2.4l2.77-6.78,1.9-.48-.87,2.09c.47-.43,1-.86,1.54-1.3s.85-.63,1.06-.76a2.66,2.66,0,0,1,1.25-.31C189.6,8.85,190.09,9.53,190.09,10.9Z"/><path class="cls-1" d="M198.35,10.62a5.09,5.09,0,0,1-1.07,3,10.57,10.57,0,0,1-2.16,2.09,7.07,7.07,0,0,1-2.74,1.38l-.06.5c0,.62.28.93.82.93a4.19,4.19,0,0,0,2.64-1.25A8.31,8.31,0,0,0,197.7,15l.4.31c-1.42,2.54-3.13,3.81-5.1,3.81a2,2,0,0,1-1.45-.61,1.9,1.9,0,0,1-.61-1.4,7.38,7.38,0,0,1,1.62-4.49,10.92,10.92,0,0,1,2.14-2.08,5,5,0,0,1,2.69-1.25.84.84,0,0,1,.75.46A1.78,1.78,0,0,1,198.35,10.62Zm-.65-.31c0-.3-.14-.45-.44-.45a3.3,3.3,0,0,0-2.09,1.25,9.06,9.06,0,0,0-1.49,2,13.63,13.63,0,0,0-1.19,3.39c1-.35,2.29-1.51,4-3.5A4.29,4.29,0,0,0,197.7,10.31Z"/><path class="cls-1" d="M209.26,10.68a1.18,1.18,0,0,1-.78,1.09,3.06,3.06,0,0,1-1.44.31,3.45,3.45,0,0,1-2.79-1A8,8,0,0,0,201.87,14a8.19,8.19,0,0,0-.86,3.62,1.14,1.14,0,0,0,.61,1,2.29,2.29,0,0,0,1.24.34,3,3,0,0,0,2.49-1.34,4.29,4.29,0,0,0,1-2.67.6.6,0,0,0-.28-.52,1.09,1.09,0,0,0-.63-.19,1.85,1.85,0,0,0-1.69,1.3l-.42-.3a2.31,2.31,0,0,1,.94-1.07,2.77,2.77,0,0,1,1.45-.41,1.22,1.22,0,0,1,1,.52,1.7,1.7,0,0,1,.4,1.08,3.81,3.81,0,0,1-1.35,2.87,4.46,4.46,0,0,1-3.1,1.24,2.62,2.62,0,0,1-2.08-1.05,3.32,3.32,0,0,1-.8-2.16q0-3.06,4.21-5.54a2.09,2.09,0,0,1-.3-1.12,3.81,3.81,0,0,1,.44-1.7l1.1-2.23h.69l-.79,2.48a2.1,2.1,0,0,0-.14.61,2.8,2.8,0,0,0,.4,1.3,5.68,5.68,0,0,1,2.16-.41,2.61,2.61,0,0,1,1.12.25A.91.91,0,0,1,209.26,10.68Zm-.51.1c0-.4-.46-.59-1.39-.59a3.14,3.14,0,0,0-1.7.44,2.21,2.21,0,0,0,1.92.87,1.84,1.84,0,0,0,.76-.15A.64.64,0,0,0,208.75,10.78Z"/><path class="cls-1" d="M222.14,10.15a6.53,6.53,0,0,1-.78,2.66,11.37,11.37,0,0,1-1.55,2.45A19.58,19.58,0,0,1,217,18a6.21,6.21,0,0,1-3.66,1.36c-1.39,0-2.09-.75-2.09-2.25l-.83.1-.07-.61.9-.15c0-.94.61-2.12,1.83-3.53s2.42-2.18,3.38-2.18a1.35,1.35,0,0,1,.66.2.58.58,0,0,1,.34.48,4.72,4.72,0,0,1-1.72,3.55A8.28,8.28,0,0,1,212,16.87l0,.76a1.22,1.22,0,0,0,.28.82,1.26,1.26,0,0,0,1,.44A5.12,5.12,0,0,0,216,17.31a21.68,21.68,0,0,0,2.23-2.26,8.81,8.81,0,0,0,2.54-5.61,3.3,3.3,0,0,0-.39-1.63,1.49,1.49,0,0,0-1.36-.89q-2.7,0-5.36,3.07l-.19-.62A8.8,8.8,0,0,1,216,7.26a6.54,6.54,0,0,1,3.2-.89,2.57,2.57,0,0,1,2.35,1.28A4.73,4.73,0,0,1,222.14,10.15Zm-5.32,1.26q0-.24-.27-.24-1.12,0-2.64,2a12.4,12.4,0,0,0-1.73,3,6.85,6.85,0,0,0,1.75-.89,10.36,10.36,0,0,0,1.55-1.16A3.8,3.8,0,0,0,216.82,11.41Z"/><path class="cls-1" d="M239.16,8l-2.58,5.77a28.48,28.48,0,0,1-4.4,6.49l-.49-.14a9.75,9.75,0,0,0,1.2-1.87l.92-2,3.31-7.43Zm4.12,3.09a3.34,3.34,0,0,1-.19,1.09l-.52-.21a3.41,3.41,0,0,0,.17-1.07c0-.41-.14-.62-.43-.62a.94.94,0,0,0-.43.1,7,7,0,0,0-3,2.82,8.05,8.05,0,0,0-1.12,4.12c0,.86.22,1.28.68,1.28a2.08,2.08,0,0,0,1.5-.84,12.34,12.34,0,0,0,1-1.46l.39.25c-1,1.69-2,2.54-2.95,2.54a1.68,1.68,0,0,1-1.46-.87,3.12,3.12,0,0,1-.47-1.67A6.87,6.87,0,0,1,238.13,12a5.37,5.37,0,0,1,4.25-2.19.76.76,0,0,1,.65.44A1.65,1.65,0,0,1,243.28,11.12Z"/><path class="cls-1" d="M262.16.12a1.67,1.67,0,0,1,0,.65c-.13,0-.85.17-2.15.38a7.55,7.55,0,0,0-3.22,1.12,6.41,6.41,0,0,0-2,2.58L251.32,12a8,8,0,0,1,1.53-.35l-.22.45a3.6,3.6,0,0,0-1.79.77,21.61,21.61,0,0,1-1.4,2.72,17.85,17.85,0,0,1-1.76,2.53,2.92,2.92,0,0,1-2.12,1.16.82.82,0,0,1-.71-.38,1.46,1.46,0,0,1-.19-.78q0-2.68,4.05-4.69l3-6.07a31.62,31.62,0,0,1,3.09-5.18A4.21,4.21,0,0,1,257.1,1c.46-.12,1.36-.28,2.7-.49Zm-13.7,14.22a21.8,21.8,0,0,0-2.16,1.6,3.14,3.14,0,0,0-1.16,2.22c0,.49.11.73.33.73.91,0,1.71-.95,2.4-2.87C248,15.59,248.21,15,248.46,14.34Z"/><path class="cls-1" d="M273.43,13a3,3,0,0,1-.11.87,8.64,8.64,0,0,1-2,3.44,4.91,4.91,0,0,1-3.6,1.74c-.88,0-1.45-.67-1.73-2-1,1.53-1.53,2.35-1.63,2.48a13.23,13.23,0,0,1-2,2,1.71,1.71,0,0,1-.54-.31,6,6,0,0,0,1.66-2.22l3.22-7.38.38-.17.68.86c1.26-1.38,2.42-2.07,3.5-2.07a1.9,1.9,0,0,1,1.68.94A3.22,3.22,0,0,1,273.43,13Zm-1-1.36a.88.88,0,0,0-.33-.68,1.1,1.1,0,0,0-.74-.29,3.15,3.15,0,0,0-2.15,1.11,6.66,6.66,0,0,0-1.05,1.17l-.76,1.39-.6,1.12a3.05,3.05,0,0,0-.29,1.23,4,4,0,0,0,.15,1,1,1,0,0,0,.43.62,1.23,1.23,0,0,0,.75.25,1.62,1.62,0,0,0,.9-.47Q272.46,15,272.46,11.6Z"/><path class="cls-1" d="M292.48.12a1.55,1.55,0,0,1,0,.65c-.13,0-.84.17-2.14.38a7.55,7.55,0,0,0-3.22,1.12,6.32,6.32,0,0,0-2,2.58L281.64,12a8,8,0,0,1,1.53-.35l-.22.45a3.6,3.6,0,0,0-1.79.77,21.83,21.83,0,0,1-1.41,2.72A17.13,17.13,0,0,1,278,18.16a2.92,2.92,0,0,1-2.12,1.16.82.82,0,0,1-.71-.38,1.46,1.46,0,0,1-.19-.78q0-2.68,4-4.69l3-6.07a31.62,31.62,0,0,1,3.09-5.18A4.17,4.17,0,0,1,287.42,1c.46-.12,1.36-.28,2.69-.49ZM278.77,14.34a22.52,22.52,0,0,0-2.15,1.6,3.14,3.14,0,0,0-1.16,2.22c0,.49.11.73.33.73.91,0,1.71-.95,2.4-2.87Z"/><path class="cls-1" d="M291.37,7.26,288.81,13a29.35,29.35,0,0,1-4.36,6.52l-.5-.17a19,19,0,0,0,2.14-3.86L289.34,8Z"/><path class="cls-1" d="M303.52,6.34,300.78,8a24.16,24.16,0,0,0-2.8,2.11,7.21,7.21,0,0,1,1,3.83,5.66,5.66,0,0,1-1.49,3.62,4.11,4.11,0,0,1-3.09,1.8,1.86,1.86,0,0,1-1.69-1.11,4.35,4.35,0,0,1-.46-2c0-1.45.89-3,2.69-4.74.45-.38,1.13-1,2.06-1.79a2.1,2.1,0,0,0-1.72-1l.49-.4a2.76,2.76,0,0,1,1.61,1.14,15.19,15.19,0,0,1,3-1.89l2.72-1.38ZM298,13.26a6.5,6.5,0,0,0-.14-1.52l-.46-1.36c-.77.79-1.32,1.4-1.66,1.83a9.1,9.1,0,0,0-2.13,5.55,1,1,0,0,0,.22.63.71.71,0,0,0,.59.3,3.13,3.13,0,0,0,2.72-2A7.29,7.29,0,0,0,298,13.26Z"/><path class="cls-1" d="M316.21,9.08q-2.38,3.75-3,4.83A24,24,0,0,0,311,19.12h-.45l-.87-6.36a18.56,18.56,0,0,1-4.92,8.44l-.6-2a10.16,10.16,0,0,0,3.51-3.74,23.78,23.78,0,0,0,1.9-4.72l.34-.34.91,6.27a13.63,13.63,0,0,1,1.65-4.23l1.84-3,1.5-.67Z"/><path class="cls-1" d="M319.94,8.59a2.61,2.61,0,0,1-.67,1.75,3.32,3.32,0,0,1-1.65,1V11a4.3,4.3,0,0,0,1-.71,1.61,1.61,0,0,0,.46-1.13c0-.33-.11-.49-.31-.49a1.19,1.19,0,0,0-.34.07,1.49,1.49,0,0,1-.35.06.87.87,0,0,1-.65-.26.83.83,0,0,1-.27-.63.92.92,0,0,1,.36-.74,1.27,1.27,0,0,1,.83-.3,1.36,1.36,0,0,1,1.12.54A1.86,1.86,0,0,1,319.94,8.59Zm4.32,0a2.45,2.45,0,0,1-.66,1.71,3.62,3.62,0,0,1-1.68,1V11c1-.5,1.49-1.1,1.49-1.79,0-.36-.1-.54-.29-.54a1,1,0,0,0-.34.07,1.43,1.43,0,0,1-.34.06.9.9,0,0,1-.66-.27.87.87,0,0,1-.27-.64.92.92,0,0,1,.35-.73,1.26,1.26,0,0,1,.81-.29,1.42,1.42,0,0,1,1.13.54A1.89,1.89,0,0,1,324.26,8.59Z"/><path class="cls-1" d="M24.13,32a7.72,7.72,0,0,0-3.39,3.69,11,11,0,0,0-1.31,4.89,4.81,4.81,0,0,0,1.06,3.46l-.49.24a4.89,4.89,0,0,1-1.79-4,9.67,9.67,0,0,1,1.41-5.09,8,8,0,0,1,4.09-3.49Z"/><path class="cls-1" d="M30.19,31.22,28.37,35.5a5,5,0,0,1-2.85,2.72L25.14,38c.39-.5.64-.83.76-1a4.68,4.68,0,0,0,.6-1.09L28,31.85l1.73-1Z"/><path class="cls-1" d="M36.32,31.22,34.49,35.5a4.91,4.91,0,0,1-2.84,2.72L31.27,38c.39-.5.64-.83.76-1a4.68,4.68,0,0,0,.6-1.09l1.47-4.06,1.73-1Z"/><path class="cls-1" d="M55.14,23.12a1.48,1.48,0,0,1,0,.65c-.13.05-.85.17-2.15.38a7.6,7.6,0,0,0-3.22,1.12,6.41,6.41,0,0,0-2,2.58L44.3,35a8.22,8.22,0,0,1,1.53-.35l-.22.45a3.6,3.6,0,0,0-1.79.77,21.61,21.61,0,0,1-1.4,2.72,17.06,17.06,0,0,1-1.76,2.53,2.92,2.92,0,0,1-2.12,1.16.82.82,0,0,1-.71-.38,1.46,1.46,0,0,1-.19-.78q0-2.69,4-4.69l3-6.07a31.62,31.62,0,0,1,3.09-5.18A4.21,4.21,0,0,1,50.08,24c.46-.12,1.36-.28,2.7-.49ZM41.44,37.34a21.8,21.8,0,0,0-2.16,1.6,3.14,3.14,0,0,0-1.16,2.22c0,.49.11.73.33.73.91,0,1.71-1,2.4-2.87C41,38.59,41.19,38,41.44,37.34Z"/><path class="cls-1" d="M51.79,31.22,50,35.5a4.93,4.93,0,0,1-2.85,2.72L46.73,38c.39-.5.65-.83.76-1a5.19,5.19,0,0,0,.61-1.09l1.46-4.06,1.73-1Z"/><path class="cls-1" d="M70.61,23.12a1.75,1.75,0,0,1,0,.65c-.13.05-.84.17-2.14.38a7.6,7.6,0,0,0-3.23,1.12,6.39,6.39,0,0,0-2,2.58L59.76,35a8.4,8.4,0,0,1,1.54-.35l-.22.45a3.64,3.64,0,0,0-1.8.77,21.61,21.61,0,0,1-1.4,2.72,16.33,16.33,0,0,1-1.76,2.53A2.9,2.9,0,0,1,54,42.32a.8.8,0,0,1-.7-.38,1.46,1.46,0,0,1-.2-.78q0-2.69,4.06-4.69l3-6.07a33.1,33.1,0,0,1,3.09-5.18A4.25,4.25,0,0,1,65.55,24c.46-.12,1.35-.28,2.69-.49ZM56.9,37.34a20,20,0,0,0-2.15,1.6,3.1,3.1,0,0,0-1.16,2.22c0,.49.11.73.33.73.9,0,1.7-1,2.4-2.87C56.46,38.59,56.66,38,56.9,37.34Z"/><path class="cls-1" d="M71.77,33.68A1.18,1.18,0,0,1,71,34.77a3.06,3.06,0,0,1-1.44.31,3.45,3.45,0,0,1-2.79-1A8,8,0,0,0,64.38,37a8.19,8.19,0,0,0-.86,3.62,1.14,1.14,0,0,0,.61,1,2.29,2.29,0,0,0,1.24.34,3,3,0,0,0,2.49-1.34,4.29,4.29,0,0,0,1-2.67.6.6,0,0,0-.28-.52,1.09,1.09,0,0,0-.63-.19,1.85,1.85,0,0,0-1.69,1.3l-.42-.3a2.26,2.26,0,0,1,.94-1.07,2.77,2.77,0,0,1,1.45-.41,1.22,1.22,0,0,1,1,.52,1.7,1.7,0,0,1,.4,1.08,3.81,3.81,0,0,1-1.35,2.87,4.46,4.46,0,0,1-3.1,1.24,2.62,2.62,0,0,1-2.08-1.05,3.32,3.32,0,0,1-.8-2.16q0-3.06,4.21-5.54a2.09,2.09,0,0,1-.3-1.12,3.81,3.81,0,0,1,.44-1.7l1.1-2.23h.69l-.79,2.48a2.1,2.1,0,0,0-.14.61,2.8,2.8,0,0,0,.4,1.3A5.68,5.68,0,0,1,70,32.63a2.61,2.61,0,0,1,1.12.25A.91.91,0,0,1,71.77,33.68Zm-.51.1c0-.4-.46-.59-1.39-.59a3.14,3.14,0,0,0-1.7.44,2.21,2.21,0,0,0,1.92.87,1.84,1.84,0,0,0,.76-.15A.64.64,0,0,0,71.26,33.78Z"/><path class="cls-1" d="M89.37,30.26,86.82,36a29.71,29.71,0,0,1-4.36,6.52L82,42.32a18.47,18.47,0,0,0,2.14-3.86L87.34,31Z"/><path class="cls-1" d="M97.65,31,95.07,36.8a28.48,28.48,0,0,1-4.4,6.49l-.49-.14a9.75,9.75,0,0,0,1.2-1.87c.12-.24.42-.91.92-2l3.31-7.43Zm4.12,3.09a3.34,3.34,0,0,1-.19,1.09l-.52-.21a3.41,3.41,0,0,0,.17-1.07c0-.41-.14-.62-.43-.62a.94.94,0,0,0-.43.1,7,7,0,0,0-3,2.82,8.05,8.05,0,0,0-1.12,4.12c0,.86.22,1.28.68,1.28a2.08,2.08,0,0,0,1.5-.84,12.34,12.34,0,0,0,1-1.46l.39.25c-1,1.69-2,2.54-2.94,2.54a1.69,1.69,0,0,1-1.47-.87,3.12,3.12,0,0,1-.47-1.67A6.93,6.93,0,0,1,96.62,35a5.37,5.37,0,0,1,4.25-2.19.75.75,0,0,1,.65.44A1.65,1.65,0,0,1,101.77,34.12Z"/><path class="cls-1" d="M120.65,23.12a1.48,1.48,0,0,1,0,.65c-.13.05-.85.17-2.15.38a7.6,7.6,0,0,0-3.22,1.12,6.49,6.49,0,0,0-2,2.58L109.81,35a8.18,8.18,0,0,1,1.54-.35l-.23.45a3.6,3.6,0,0,0-1.79.77,21.61,21.61,0,0,1-1.4,2.72,17.06,17.06,0,0,1-1.76,2.53,2.92,2.92,0,0,1-2.12,1.16.82.82,0,0,1-.71-.38,1.46,1.46,0,0,1-.19-.78q0-2.69,4-4.69l3-6.07a31.62,31.62,0,0,1,3.09-5.18A4.21,4.21,0,0,1,115.59,24c.46-.12,1.36-.28,2.7-.49ZM107,37.34a21.8,21.8,0,0,0-2.16,1.6,3.13,3.13,0,0,0-1.15,2.22c0,.49.1.73.32.73.91,0,1.71-1,2.4-2.87Z"/><path class="cls-1" d="M117.3,31.22l-1.83,4.28a4.94,4.94,0,0,1-2.84,2.72l-.38-.22c.38-.5.64-.83.76-1a5.57,5.57,0,0,0,.6-1.09l1.46-4.06,1.73-1Z"/><path class="cls-1" d="M136.12,23.12a1.75,1.75,0,0,1,0,.65c-.13.05-.84.17-2.14.38a7.65,7.65,0,0,0-3.23,1.12,6.39,6.39,0,0,0-2,2.58L125.27,35a8.4,8.4,0,0,1,1.54-.35l-.22.45a3.6,3.6,0,0,0-1.79.77,23.28,23.28,0,0,1-1.41,2.72,16.33,16.33,0,0,1-1.76,2.53,2.9,2.9,0,0,1-2.12,1.16.8.8,0,0,1-.7-.38,1.46,1.46,0,0,1-.2-.78q0-2.69,4.06-4.69l3-6.07a32.29,32.29,0,0,1,3.1-5.18A4.17,4.17,0,0,1,131.06,24c.46-.12,1.35-.28,2.69-.49ZM122.41,37.34a20,20,0,0,0-2.15,1.6,3.1,3.1,0,0,0-1.16,2.22c0,.49.11.73.33.73.9,0,1.7-1,2.4-2.87Z"/><path class="cls-1" d="M137.28,33.68a1.18,1.18,0,0,1-.77,1.09,3.13,3.13,0,0,1-1.45.31,3.45,3.45,0,0,1-2.79-1A8,8,0,0,0,129.89,37a8.19,8.19,0,0,0-.86,3.62,1.14,1.14,0,0,0,.61,1,2.29,2.29,0,0,0,1.24.34,3,3,0,0,0,2.49-1.34,4.29,4.29,0,0,0,1-2.67.6.6,0,0,0-.28-.52,1.09,1.09,0,0,0-.63-.19,1.85,1.85,0,0,0-1.69,1.3l-.42-.3a2.31,2.31,0,0,1,.94-1.07,2.77,2.77,0,0,1,1.45-.41,1.21,1.21,0,0,1,1,.52,1.7,1.7,0,0,1,.4,1.08,3.81,3.81,0,0,1-1.35,2.87,4.46,4.46,0,0,1-3.1,1.24,2.63,2.63,0,0,1-2.08-1.05,3.32,3.32,0,0,1-.8-2.16q0-3.06,4.21-5.54a2.08,2.08,0,0,1-.29-1.12,3.79,3.79,0,0,1,.43-1.7l1.1-2.23h.69l-.79,2.48a2.1,2.1,0,0,0-.14.61,2.8,2.8,0,0,0,.4,1.3,5.68,5.68,0,0,1,2.16-.41,2.61,2.61,0,0,1,1.12.25A.91.91,0,0,1,137.28,33.68Zm-.51.1c0-.4-.46-.59-1.39-.59a3.14,3.14,0,0,0-1.7.44,2.21,2.21,0,0,0,1.92.87,1.84,1.84,0,0,0,.76-.15A.64.64,0,0,0,136.77,33.78Z"/><path class="cls-1" d="M144.34,35.42a9.31,9.31,0,0,1-1.5,5,10.69,10.69,0,0,1-3.9,3.72l-.52-.17a11.86,11.86,0,0,0,3.47-4.27,12,12,0,0,0,1.23-5.4,9.94,9.94,0,0,0-.49-2.51l.62.16A5.71,5.71,0,0,1,144.34,35.42Z"/><path class="cls-1" d="M158.1,33.31a.9.9,0,0,1-.36.73,1.23,1.23,0,0,1-.8.29,1.4,1.4,0,0,1-1.14-.55,1.83,1.83,0,0,1-.45-1.2,2.53,2.53,0,0,1,.68-1.74,3.86,3.86,0,0,1,1.65-1v.36c-1,.5-1.46,1.09-1.46,1.78,0,.36.09.54.29.54a1.3,1.3,0,0,0,.32-.06,1.07,1.07,0,0,1,.34-.07.89.89,0,0,1,.65.27A.86.86,0,0,1,158.1,33.31Zm4.32,0a.92.92,0,0,1-.37.75,1.25,1.25,0,0,1-.83.3,1.36,1.36,0,0,1-1.12-.53,1.82,1.82,0,0,1-.43-1.2,2.52,2.52,0,0,1,.67-1.74,3.2,3.2,0,0,1,1.64-1v.34a4.52,4.52,0,0,0-1,.71,1.61,1.61,0,0,0-.45,1.14c0,.31.1.47.31.47a1.45,1.45,0,0,0,.33-.06,1.29,1.29,0,0,1,.36-.07.92.92,0,0,1,.65.26A.86.86,0,0,1,162.42,33.28Z"/><path class="cls-1" d="M170.36,30.26,167.81,36a29.71,29.71,0,0,1-4.36,6.52l-.5-.17a19,19,0,0,0,2.13-3.86L168.33,31Z"/><path class="cls-1" d="M176.1,38c0,.49-.58,1.31-1.72,2.47s-1.93,1.75-2.34,1.75a.78.78,0,0,1-.62-.39c2.26-1.28,3.39-2.62,3.39-4a.46.46,0,0,0-.15-.33.44.44,0,0,0-.34-.16,2.21,2.21,0,0,0-1.1.41l-1,.7.13-1a4.08,4.08,0,0,1,2.47-.83,1.21,1.21,0,0,1,.89.4,1.3,1.3,0,0,1,.37.87ZM182,34.5a5.77,5.77,0,0,1-.86,2.8,16.63,16.63,0,0,1-2,2.6L177,42.17l-.8-.29a20.84,20.84,0,0,0,1.63-2.13c.49-.74,1-1.47,1.46-2.21a6.87,6.87,0,0,0,1.41-3.61,1.15,1.15,0,0,0-.3-.8,1,1,0,0,0-.8-.34c-2.26,0-4.71,1.17-7.37,3.49l.31-1.73A10.57,10.57,0,0,1,176,32.83a13.26,13.26,0,0,1,3.86-.57,1.92,1.92,0,0,1,1.52.68A2.32,2.32,0,0,1,182,34.5Z"/><path class="cls-1" d="M190.91,33.62a5.09,5.09,0,0,1-1.07,3,10.39,10.39,0,0,1-2.17,2.09,7,7,0,0,1-2.73,1.38l-.06.5c0,.62.27.93.82.93a4.19,4.19,0,0,0,2.64-1.25A8.31,8.31,0,0,0,190.26,38l.4.31q-2.15,3.81-5.11,3.81a2,2,0,0,1-1.44-.61,1.9,1.9,0,0,1-.61-1.4,7.38,7.38,0,0,1,1.62-4.49,10.92,10.92,0,0,1,2.14-2.08A4.94,4.94,0,0,1,190,32.29a.82.82,0,0,1,.74.46A1.68,1.68,0,0,1,190.91,33.62Zm-.65-.31a.39.39,0,0,0-.44-.45,3.28,3.28,0,0,0-2.09,1.25,9.06,9.06,0,0,0-1.49,2,13.63,13.63,0,0,0-1.19,3.39c1-.35,2.29-1.51,4-3.5A4.26,4.26,0,0,0,190.26,33.31Z"/><path class="cls-1" d="M203.83,32.08q-2.39,3.75-3,4.83a24,24,0,0,0-2.2,5.21h-.45l-.87-6.36a18.56,18.56,0,0,1-4.92,8.44l-.6-2a10.16,10.16,0,0,0,3.51-3.74,24.41,24.41,0,0,0,1.9-4.72l.34-.34.91,6.27a13.88,13.88,0,0,1,1.64-4.23l1.85-3,1.5-.67Z"/><path class="cls-1" d="M220.63,30.26,218.08,36a29.71,29.71,0,0,1-4.36,6.52l-.51-.17a18.47,18.47,0,0,0,2.14-3.86L218.6,31Z"/><path class="cls-1" d="M229.35,32.24l-3.84,7.39a23.3,23.3,0,0,1-2.64,3.93,13.11,13.11,0,0,1-3.46,3.2,4.52,4.52,0,0,1-2.15.57,6.14,6.14,0,0,1-3.36-1.07l.32-.32a7.55,7.55,0,0,0,3.21.58,4.41,4.41,0,0,0,3.27-1.67,15.13,15.13,0,0,0,2-3.13l4.82-9.26L229,32Z"/><path class="cls-1" d="M241.79,32.08q-2.39,3.75-3,4.83a24,24,0,0,0-2.21,5.21h-.45l-.86-6.36a18.74,18.74,0,0,1-4.92,8.44l-.6-2a10.06,10.06,0,0,0,3.5-3.74,23.78,23.78,0,0,0,1.9-4.72l.34-.34.91,6.27a13.63,13.63,0,0,1,1.65-4.23l1.84-3,1.5-.67Z"/><path class="cls-1" d="M253.84,32.08q-2.39,3.75-3,4.83a24,24,0,0,0-2.2,5.21h-.45l-.87-6.36a18.56,18.56,0,0,1-4.92,8.44l-.6-2a10.16,10.16,0,0,0,3.51-3.74,24.41,24.41,0,0,0,1.9-4.72l.34-.34.91,6.27a13.88,13.88,0,0,1,1.64-4.23l1.85-3,1.5-.67Z"/><path class="cls-1" d="M272.05,33.92a1,1,0,0,1-.13.46,4.88,4.88,0,0,1-1.75,1.87,24.33,24.33,0,0,1-2.35,1.23c.89.41,1.34.89,1.34,1.44a2.35,2.35,0,0,1-1.05,1.61,9,9,0,0,1-1.74,1.14l-2.19,1.07-.05-.52c.09-.09.66-.5,1.72-1.23s1.79-1.64,1.79-2.43c0-.44-.17-.66-.53-.66a12.47,12.47,0,0,0-1.64.61l-.26-.39,1.74-.88a10.09,10.09,0,0,0,2.35-1.64,3.38,3.38,0,0,0,1.33-2.27c0-.35-.17-.52-.5-.52a4.94,4.94,0,0,0-2.45.87l-.8.54c-.53.3-1.17.7-1.91,1.2a1.45,1.45,0,0,0-.53,1c0,.14.08.2.23.2a3.55,3.55,0,0,0,2.49-1.43l.48.43a4.66,4.66,0,0,1-3,1.42.59.59,0,0,1-.67-.68,1.33,1.33,0,0,1,.11-.5,5.54,5.54,0,0,1,2.64-2.63,7.92,7.92,0,0,1,3.83-1,1.39,1.39,0,0,1,1.09.5A1.73,1.73,0,0,1,272.05,33.92Z"/><path class="cls-1" d="M280.08,30.26,277.53,36a29.71,29.71,0,0,1-4.36,6.52l-.5-.17a19,19,0,0,0,2.13-3.86L278.05,31Z"/><path class="cls-1" d="M292.72,32.08q-2.39,3.75-3,4.83a24,24,0,0,0-2.21,5.21h-.45l-.86-6.36a18.74,18.74,0,0,1-4.92,8.44l-.6-2a10.06,10.06,0,0,0,3.5-3.74,23.78,23.78,0,0,0,1.9-4.72l.35-.34.91,6.27A13.38,13.38,0,0,1,289,35.42l1.84-3,1.5-.67Z"/><path class="cls-1" d="M310.93,23.12a1.48,1.48,0,0,1,0,.65c-.13.05-.85.17-2.15.38a7.6,7.6,0,0,0-3.22,1.12,6.41,6.41,0,0,0-2,2.58L300.09,35a8.22,8.22,0,0,1,1.53-.35l-.22.45a3.6,3.6,0,0,0-1.79.77,21.61,21.61,0,0,1-1.4,2.72,17.06,17.06,0,0,1-1.76,2.53,2.92,2.92,0,0,1-2.12,1.16.82.82,0,0,1-.71-.38,1.46,1.46,0,0,1-.19-.78q0-2.69,4.05-4.69l3-6.07a31.62,31.62,0,0,1,3.09-5.18A4.21,4.21,0,0,1,305.87,24c.46-.12,1.36-.28,2.7-.49Zm-13.7,14.22a21.8,21.8,0,0,0-2.16,1.6,3.14,3.14,0,0,0-1.16,2.22c0,.49.11.73.33.73.91,0,1.71-1,2.4-2.87C296.79,38.59,297,38,297.23,37.34Z"/><path class="cls-1" d="M320.27,23.12a1.75,1.75,0,0,1,0,.65c-.13.05-.84.17-2.14.38a7.6,7.6,0,0,0-3.23,1.12,6.39,6.39,0,0,0-2,2.58L309.42,35a8.4,8.4,0,0,1,1.54-.35l-.22.45a3.64,3.64,0,0,0-1.8.77,21.61,21.61,0,0,1-1.4,2.72,16.33,16.33,0,0,1-1.76,2.53,2.9,2.9,0,0,1-2.12,1.16.8.8,0,0,1-.7-.38,1.46,1.46,0,0,1-.2-.78q0-2.69,4.06-4.69l3-6.07a33.1,33.1,0,0,1,3.09-5.18A4.25,4.25,0,0,1,315.21,24c.46-.12,1.35-.28,2.69-.49ZM306.56,37.34a20,20,0,0,0-2.15,1.6,3.1,3.1,0,0,0-1.16,2.22c0,.49.11.73.33.73.9,0,1.7-1,2.4-2.87C306.12,38.59,306.32,38,306.56,37.34Z"/><path class="cls-1" d="M325.57,38c0,.49-.57,1.31-1.71,2.47s-1.93,1.75-2.34,1.75a.76.76,0,0,1-.62-.39c2.26-1.28,3.38-2.62,3.38-4a.45.45,0,0,0-.14-.33.44.44,0,0,0-.34-.16,2.27,2.27,0,0,0-1.11.41l-1,.7.14-1a4.08,4.08,0,0,1,2.47-.83,1.17,1.17,0,0,1,.88.4,1.26,1.26,0,0,1,.37.87Zm5.86-3.5a5.69,5.69,0,0,1-.87,2.8,15.46,15.46,0,0,1-2,2.6l-2.1,2.27-.79-.29a20.88,20.88,0,0,0,1.62-2.13c.5-.74,1-1.47,1.47-2.21a6.87,6.87,0,0,0,1.41-3.61,1.15,1.15,0,0,0-.3-.8,1,1,0,0,0-.8-.34c-2.26,0-4.71,1.17-7.37,3.49l.31-1.73a10.57,10.57,0,0,1,3.42-1.72,13.21,13.21,0,0,1,3.86-.57,1.89,1.89,0,0,1,1.51.68A2.28,2.28,0,0,1,331.43,34.5Z"/><path class="cls-1" d="M337.89,31.22l-1.82,4.28a5,5,0,0,1-2.85,2.72l-.38-.22c.39-.5.64-.83.76-1a4.68,4.68,0,0,0,.6-1.09l1.47-4.06,1.73-1Z"/><path class="cls-1" d="M343.64,38c0,.49-.57,1.31-1.71,2.47s-1.93,1.75-2.34,1.75a.76.76,0,0,1-.62-.39c2.26-1.28,3.38-2.62,3.38-4a.45.45,0,0,0-.14-.33.44.44,0,0,0-.34-.16,2.27,2.27,0,0,0-1.11.41l-1,.7.14-1a4.06,4.06,0,0,1,2.47-.83,1.19,1.19,0,0,1,.88.4,1.26,1.26,0,0,1,.37.87Zm5.86-3.5a5.69,5.69,0,0,1-.87,2.8,16,16,0,0,1-2,2.6l-2.1,2.27-.79-.29a22.45,22.45,0,0,0,1.62-2.13c.5-.74,1-1.47,1.47-2.21a6.87,6.87,0,0,0,1.41-3.61,1.15,1.15,0,0,0-.3-.8,1,1,0,0,0-.8-.34c-2.26,0-4.71,1.17-7.37,3.49l.31-1.73a10.57,10.57,0,0,1,3.42-1.72,13.21,13.21,0,0,1,3.86-.57,1.89,1.89,0,0,1,1.51.68A2.28,2.28,0,0,1,349.5,34.5Z"/><path class="cls-1" d="M369.2,31.64l-4,8q-1.91,3.8-2.57,5a20,20,0,0,1-3.2,4.48L359,48.9A31.53,31.53,0,0,0,361,45.12c.59-1.3,1.19-2.6,1.79-3.91l4.31-9.13,1.79-.75Z"/><path class="cls-1" d="M381.61,33.9a8.79,8.79,0,0,1-1.5,4.52,17.78,17.78,0,0,1-3.14,3.8l-.47-.44a17.18,17.18,0,0,0,3.4-8,.5.5,0,0,0-.14-.48.66.66,0,0,0-.51-.21,1.25,1.25,0,0,0-.63.23,19.22,19.22,0,0,0-3,2.31l-1.23,3a25.15,25.15,0,0,1-3.48,6.12,6,6,0,0,1-1.61,1.49,4.31,4.31,0,0,1-2.15.47,4.11,4.11,0,0,1-1.76-.65A3.51,3.51,0,0,1,364,44.93l.54-.57a4.47,4.47,0,0,0,1.35,1,3.65,3.65,0,0,0,1.6.44,3.6,3.6,0,0,0,2.88-1.65,9.62,9.62,0,0,0,1.24-2.36c.29-.8.59-1.6.89-2.4l2.77-6.78,1.9-.48-.87,2.09c.47-.43,1-.86,1.54-1.3s.85-.63,1.06-.76a2.66,2.66,0,0,1,1.25-.31C381.12,31.85,381.61,32.53,381.61,33.9Z"/><path class="cls-1" d="M387.38,31.22l-1.83,4.28a4.93,4.93,0,0,1-2.85,2.72l-.38-.22c.39-.5.65-.83.76-1a4.68,4.68,0,0,0,.6-1.09l1.47-4.06,1.73-1Z"/><path class="cls-1" d="M396.11,32.24l-3.84,7.39a23.3,23.3,0,0,1-2.64,3.93,13.11,13.11,0,0,1-3.46,3.2,4.52,4.52,0,0,1-2.15.57,6.14,6.14,0,0,1-3.36-1.07l.32-.32a7.55,7.55,0,0,0,3.21.58,4.41,4.41,0,0,0,3.27-1.67,15.13,15.13,0,0,0,2-3.13l4.82-9.26,1.43-.51Z"/></svg>