<svg id="Layer_1" data-name="Layer 1" xmlns="http://www.w3.org/2000/svg" viewBox="0 0 172.28 49.98"><defs><style>.cls-1{fill:#1d1d1b;}</style></defs><path class="cls-1" d="M128,15.78l-.37-.86a2.65,2.65,0,0,0,1.15-.77,1.65,1.65,0,0,0,.4-1.09L129,11.85l.67,1a.84.84,0,0,1-.33.21,1.23,1.23,0,0,1-.39.06,1.15,1.15,0,0,1-.76-.26.83.83,0,0,1-.32-.72.86.86,0,0,1,.33-.71,1.24,1.24,0,0,1,.78-.26,1.1,1.1,0,0,1,.94.43,2,2,0,0,1,.32,1.2,2.91,2.91,0,0,1-.6,1.82A3.69,3.69,0,0,1,128,15.78Z"/><path class="cls-1" d="M131.92,13.12V9l.24-1h1.47v5.08Zm5.41,0V7.42a1.5,1.5,0,0,0-.39-1.17,1.62,1.62,0,0,0-1-.33H132V4.69h4.36a3.39,3.39,0,0,1,1.4.28,2.14,2.14,0,0,1,1,.9A3.31,3.31,0,0,1,139,7.5v5.62Z"/><path class="cls-1" d="M140.56,13.12V11.9h2.29a2.52,2.52,0,0,0,1.28-.3,1.76,1.76,0,0,0,.73-.86,3.31,3.31,0,0,0,.24-1.32v-1a3.41,3.41,0,0,0-.24-1.34,1.72,1.72,0,0,0-.73-.84,2.43,2.43,0,0,0-1.28-.3h-2.29V4.69h2.71a3.88,3.88,0,0,1,1.95.45,2.8,2.8,0,0,1,1.18,1.29,4.57,4.57,0,0,1,.41,2.05v.87a4.54,4.54,0,0,1-.41,2,2.85,2.85,0,0,1-1.18,1.29,3.78,3.78,0,0,1-1.95.45Z"/><path class="cls-1" d="M152.52,13.12V7.42a1.5,1.5,0,0,0-.38-1.17,1.59,1.59,0,0,0-1-.33h-3V4.69h3.38a3.48,3.48,0,0,1,1.41.28,2.09,2.09,0,0,1,1,.9,3.32,3.32,0,0,1,.34,1.63v5.62Z"/><path class="cls-1" d="M160.39,13.12V7.42A1.5,1.5,0,0,0,160,6.25a1.62,1.62,0,0,0-1-.33h-3V4.69h3.43a3.39,3.39,0,0,1,1.4.28,2.14,2.14,0,0,1,1,.9,3.31,3.31,0,0,1,.35,1.63v5.62Zm-4.43,0V11.9h7.24v1.22Z"/><path class="cls-1" d="M168.91,13.12V7.42a1.5,1.5,0,0,0-.39-1.17,1.62,1.62,0,0,0-1-.33h-3V4.69h3.43a3.39,3.39,0,0,1,1.4.28,2.09,2.09,0,0,1,1,.9,3.31,3.31,0,0,1,.35,1.63v5.62Zm-4.43,0V11.9h7.24v1.22Z"/><path class="cls-1" d="M28.16,30.05V21.62h1.71v8.43Zm.4,0V28.82h6.35l-.08,1.23Zm5.23,0v-5.7a1.47,1.47,0,0,0-.38-1.17,1.54,1.54,0,0,0-1-.33H29.23V21.62h3.56a3.32,3.32,0,0,1,1.41.28,2,2,0,0,1,1,.89,3.36,3.36,0,0,1,.34,1.64v5.62Z"/><path class="cls-1" d="M38.5,24a1,1,0,0,1-.84-.4,1.81,1.81,0,0,1-.31-1.13,2.86,2.86,0,0,1,.48-1.65,3.61,3.61,0,0,1,1.39-1.17l.42.69a3,3,0,0,0-1,.8,1.75,1.75,0,0,0-.33,1.09l.16,1.08-.7-.84a1,1,0,0,1,.32-.2.86.86,0,0,1,.36-.07,1,1,0,0,1,.67.22.75.75,0,0,1,.29.64.94.94,0,0,1-.26.69A1,1,0,0,1,38.5,24Zm3.1,0a1,1,0,0,1-.85-.4,1.87,1.87,0,0,1-.3-1.13,2.86,2.86,0,0,1,.48-1.65,3.61,3.61,0,0,1,1.39-1.17l.41.69a3.22,3.22,0,0,0-.95.8,1.75,1.75,0,0,0-.33,1.09l.16,1.08-.7-.84a1.17,1.17,0,0,1,.33-.2.86.86,0,0,1,.36-.07,1.06,1.06,0,0,1,.67.22.75.75,0,0,1,.29.64.9.9,0,0,1-.27.69A.93.93,0,0,1,41.6,24Z"/><path class="cls-1" d="M44.37,22.85V19.3h1.55v3.55Zm1.82,7.2,3-7.2H44.37V21.62h6.52V23l-3,7.09Z"/><path class="cls-1" d="M59.87,30.05H58.05L54.7,25.27l-1.58,4.78H51.49l1.76-5.16.44-1.06-1.46-2.21H54l1.34,2,1.34,1.89.4-1.31.81-2.61H59.5l-1.85,5.31Z"/><path class="cls-1" d="M106.2,32.71l-.37-.86a2.74,2.74,0,0,0,1.15-.77,1.67,1.67,0,0,0,.4-1.09l-.11-1.21.67,1a.84.84,0,0,1-.33.21,1.23,1.23,0,0,1-.39.06,1.21,1.21,0,0,1-.76-.26.93.93,0,0,1,0-1.43,1.19,1.19,0,0,1,.78-.26,1.09,1.09,0,0,1,.93.42,2,2,0,0,1,.33,1.21,2.91,2.91,0,0,1-.6,1.82A3.69,3.69,0,0,1,106.2,32.71Z"/><path class="cls-1" d="M110.41,33.05V23.38l-.19-1.76h1.69l.21,1.76v9.67Z"/><path class="cls-1" d="M114,30.05V26l.24-1h1.47v5.08Zm5.41,0v-5.7a1.47,1.47,0,0,0-.39-1.17,1.57,1.57,0,0,0-1-.33h-3.92V21.62h4.36a3.24,3.24,0,0,1,1.4.28,2.11,2.11,0,0,1,1,.89,3.36,3.36,0,0,1,.35,1.64v5.62Z"/><path class="cls-1" d="M122.64,30.05V28.82h2.29a2.45,2.45,0,0,0,1.28-.3,1.79,1.79,0,0,0,.73-.85,3.31,3.31,0,0,0,.24-1.32v-1a3.38,3.38,0,0,0-.24-1.34,1.79,1.79,0,0,0-.73-.85,2.55,2.55,0,0,0-1.28-.29h-2.29V21.62h2.71a4,4,0,0,1,1.94.44,2.86,2.86,0,0,1,1.19,1.29,4.6,4.6,0,0,1,.41,2v.87a4.51,4.51,0,0,1-.41,2,2.84,2.84,0,0,1-1.19,1.3,3.84,3.84,0,0,1-1.94.45Z"/><path class="cls-1" d="M134,33.05V23.38l-.2-1.76h1.7l.2,1.76v9.67Z"/><path class="cls-1" d="M141.63,30.05v-5.7a1.47,1.47,0,0,0-.39-1.17,1.54,1.54,0,0,0-1.05-.33h-2.95V21.62h3.38a3.32,3.32,0,0,1,1.41.28,2,2,0,0,1,1,.89,3.36,3.36,0,0,1,.34,1.64v5.62Z"/><path class="cls-1" d="M144.87,30.55l-.24-1.26,3.22-.59a3.94,3.94,0,0,0,1.41-.48,2.36,2.36,0,0,0,.83-.86,3.93,3.93,0,0,0,.42-1.33,12.48,12.48,0,0,0,.15-1.89c0-.73,0-1.57,0-2.52h1.7c0,1,0,2-.06,2.78a11.94,11.94,0,0,1-.28,2.17,4.6,4.6,0,0,1-.7,1.62A3.75,3.75,0,0,1,150,29.31a7.7,7.7,0,0,1-2.14.68Zm2.5-1.61-2-7.32h1.71L149,28.94Z"/><path class="cls-1" d="M26.49,47V42.9l.24-1h1.46V47Zm5.41,0v-5.7a1.44,1.44,0,0,0-.4-1.17,1.54,1.54,0,0,0-1-.33H26.53V38.55h4.36a3.4,3.4,0,0,1,1.4.27,2.09,2.09,0,0,1,1,.9,3.21,3.21,0,0,1,.35,1.63V47Z"/><path class="cls-1" d="M35.12,47V45.75h2.3a2.41,2.41,0,0,0,1.27-.3,1.83,1.83,0,0,0,.74-.86,3.31,3.31,0,0,0,.24-1.32v-1a3.33,3.33,0,0,0-.24-1.33,1.76,1.76,0,0,0-.74-.85,2.41,2.41,0,0,0-1.27-.29h-2.3V38.55h2.71a3.85,3.85,0,0,1,2,.44A2.82,2.82,0,0,1,41,40.28a4.71,4.71,0,0,1,.41,2v.87a4.68,4.68,0,0,1-.41,2,2.94,2.94,0,0,1-1.19,1.3,3.85,3.85,0,0,1-2,.45Z"/><path class="cls-1" d="M47.09,47v-5.7a1.47,1.47,0,0,0-.39-1.17,1.54,1.54,0,0,0-1.05-.33H42.7V38.55h3.38a3.44,3.44,0,0,1,1.41.27,2.09,2.09,0,0,1,1,.9,3.31,3.31,0,0,1,.35,1.63V47Z"/><path class="cls-1" d="M54.38,47V41.53a4,4,0,0,1,.12-1,2.18,2.18,0,0,1,.33-.72H50.52V38.55h7.12v1.23h-1.2a2.3,2.3,0,0,0-.29.86,7.25,7.25,0,0,0-.06.89V47Z"/><path class="cls-1" d="M59.28,47V42.9l.24-1H61V47Zm5.41,0v-5.7a1.47,1.47,0,0,0-.39-1.17,1.57,1.57,0,0,0-1-.33H59.33V38.55h4.35a3.44,3.44,0,0,1,1.41.27,2.19,2.19,0,0,1,1,.9,3.31,3.31,0,0,1,.35,1.63V47Z"/><path class="cls-1" d="M68.19,47V42.9l.23-1h1.47V47Zm5.41,0v-5.7a1.47,1.47,0,0,0-.4-1.17,1.54,1.54,0,0,0-1-.33H68.23V38.55h4.36a3.4,3.4,0,0,1,1.4.27,2.09,2.09,0,0,1,1,.9,3.21,3.21,0,0,1,.35,1.63V47Z"/><path class="cls-1" d="M79.88,47.2l-.16-1.11a2.48,2.48,0,0,0,1-.25,1.05,1.05,0,0,0,.46-.54,2.75,2.75,0,0,0,.13-.89V38.55H85.6a3.48,3.48,0,0,1,1.41.27,2.09,2.09,0,0,1,1,.9,3.43,3.43,0,0,1,.34,1.63V47H86.6v-5.7a1.51,1.51,0,0,0-.38-1.17,1.57,1.57,0,0,0-1-.33H83v4.45a3.49,3.49,0,0,1-.32,1.62,2.1,2.1,0,0,1-1,.95A5.26,5.26,0,0,1,79.88,47.2Z"/><path class="cls-1" d="M90.38,43.83V40.3l-.19-1.75h1.69l.21,1.75v3.23Z"/><path class="cls-1" d="M94.21,43.83V40.3L94,38.55h1.69l.21,1.75v3.23Z"/><path class="cls-1" d="M101.87,47v-5.7a1.47,1.47,0,0,0-.38-1.17,1.55,1.55,0,0,0-1-.33h-3V38.55h3.38a3.48,3.48,0,0,1,1.41.27,2.09,2.09,0,0,1,1,.9,3.32,3.32,0,0,1,.34,1.63V47Z"/><path class="cls-1" d="M105.42,50V42.75l.24-1h1.46V50Zm3-3-.16-1.23a3.78,3.78,0,0,0,1-.21,2,2,0,0,0,.78-.48,2.35,2.35,0,0,0,.55-.92,6,6,0,0,0,.27-1.47l.24-2.89h-5.65V38.55h7.48l-.06,1.08-.22,2.67a7.38,7.38,0,0,1-.34,1.93,4.22,4.22,0,0,1-.81,1.46,3.36,3.36,0,0,1-1.28.94A4.68,4.68,0,0,1,108.43,47Z"/><path class="cls-1" d="M121.41,47V41.53a4,4,0,0,1,.12-1,2.4,2.4,0,0,1,.32-.72h-4.31V38.55h7.12v1.23h-1.19a2.14,2.14,0,0,0-.29.86,7.38,7.38,0,0,0-.07.89V47Z"/><path class="cls-1" d="M126.26,50V42.75l.24-1H128V50Zm3-3-.16-1.23a3.61,3.61,0,0,0,1-.21,2.08,2.08,0,0,0,.79-.48,2.46,2.46,0,0,0,.54-.92,5.52,5.52,0,0,0,.27-1.47l.24-2.89h-5.65V38.55h7.48l-.06,1.08-.22,2.67a7,7,0,0,1-.34,1.93,4.37,4.37,0,0,1-.8,1.46,3.47,3.47,0,0,1-1.29.94A4.68,4.68,0,0,1,129.27,47Z"/><path class="cls-1" d="M135.53,47V45.75h2.89a2.93,2.93,0,0,0,1-.15,2,2,0,0,0,.75-.44,2.08,2.08,0,0,0,.49-.77,3.19,3.19,0,0,0,.18-1.13v-1a3.74,3.74,0,0,0-.22-1.33,1.69,1.69,0,0,0-.67-.85,2.06,2.06,0,0,0-1.16-.29h-1.43L137,41.26a1.57,1.57,0,0,0,.05,1.1,1.46,1.46,0,0,0,1,.55l-.3,1a3.32,3.32,0,0,1-1.6-.43,1.62,1.62,0,0,1-.71-1,3.2,3.2,0,0,1,0-1.41l.62-2.58h3.05a3.48,3.48,0,0,1,1.82.44,2.89,2.89,0,0,1,1.16,1.28,4.67,4.67,0,0,1,.4,2v.87a4.62,4.62,0,0,1-.28,1.7,3,3,0,0,1-.78,1.18,3.13,3.13,0,0,1-1.19.69,4.69,4.69,0,0,1-1.48.23Z"/><path class="cls-1" d="M144.05,47l1.15-5.81L144,38.55h1.77l1.1,2.68L145.76,47Zm3.19,0,.18-1.21a3.54,3.54,0,0,0,2-.05,1.89,1.89,0,0,0,1.07-1.11,5.13,5.13,0,0,0,.3-2,4.7,4.7,0,0,0-.28-1.69,1.83,1.83,0,0,0-.72-.89,2.25,2.25,0,0,0-2-.06,1.76,1.76,0,0,0-.64.6,2.38,2.38,0,0,0-.33.84l-.43-.77a2.73,2.73,0,0,1,1-1.66,2.86,2.86,0,0,1,1.63-.51,3.66,3.66,0,0,1,1.36.23,2.69,2.69,0,0,1,1.07.73,3.6,3.6,0,0,1,.69,1.29,6.53,6.53,0,0,1,.26,1.89,5.62,5.62,0,0,1-.56,2.8,3.24,3.24,0,0,1-1.77,1.55A5.06,5.06,0,0,1,147.24,47Z"/></svg>